<svg width="250" height="250" viewBox="0 0 250 250" fill="none" xmlns="http://www.w3.org/2000/svg">
<path d="M125.306 211.431C123.478 211.431 121.859 210.741 120.225 209.969C120.106 209.913 120.003 209.863 119.916 209.825C113.356 206.888 106.844 202.891 103.547 200.772C76.5626 183.428 61.6845 160.394 60.5188 134.163C60.0657 123.956 60.2657 113.509 60.4563 103.409C60.6313 94.3094 60.8095 84.9 60.5001 75.8531L60.4626 74.7594L61.8001 70.6219L63.7876 69.5438C62.9907 68.6 62.1782 67.5031 61.5876 66.3875C58.6595 60.8406 58.3626 53.9 60.772 47.3375L64.9001 36.0906L71.7095 45.8313C71.8001 45.925 71.997 46.1063 72.1438 46.2406C72.4188 46.4906 72.7313 46.775 73.0595 47.1156C77.4595 51.6656 80.7876 54.0031 85.7845 56.0563C88.1282 57.0188 89.7845 57.5938 90.6064 57.8344C91.6282 57.6031 93.5188 57.0438 94.6157 56.7188C95.9751 56.3156 97.147 55.9688 98.0251 55.7719C106.756 53.8188 115.872 52.8281 125.109 52.8281C134.347 52.8281 143.609 53.8344 152.416 55.8188C153.384 56.0375 154.584 56.4 155.975 56.8219C156.934 57.1125 158.566 57.6094 159.509 57.8344C160.916 57.4031 163.825 56.2781 165.247 55.65C169.903 53.5969 173.453 51.1063 177.406 47.1031C178.2 45.9719 180.125 43.4219 183.566 43.4219C185.175 43.4219 186.719 44.0188 187.909 45.1L189.313 46.375L189.772 48.2156C190.869 52.6156 191.719 57.8875 189.716 63.6188C188.925 65.8844 187.734 67.7969 186.369 69.4375L189.5 73.0969L189.481 135.828L189.456 136.106C188.506 146.631 185.8 156.247 181.409 164.681C171.847 183.053 153.928 198.575 128.147 210.816L127.584 211.081L126.981 211.231C126.438 211.366 125.872 211.434 125.3 211.434L125.306 211.431Z" fill="white"/>
<path d="M183.819 61.55C185.216 57.5531 184.709 53.7344 183.709 49.7219C183.3 49.35 182.406 50.925 182.181 51.1562C177.775 55.6781 173.6 58.7937 167.772 61.3625C166.328 62 160.937 64.1719 159.681 64.1687C158.078 64.1625 153.084 62.3687 151.044 61.9094C134.328 58.1437 116.119 58.125 99.3874 61.8656C97.4374 62.3 91.7749 64.2562 90.3437 64.15C88.9124 64.0437 84.9218 62.4531 83.4093 61.8312C77.1905 59.275 73.1749 56.2187 68.5718 51.4594C67.978 50.8469 67.1843 50.2625 66.6405 49.4844C64.9999 53.9563 64.8468 59.1656 67.1124 63.4562C67.8312 64.8125 69.5124 66.6594 70.6749 67.7062C71.9249 68.8312 73.4937 69.6344 74.8124 70.6719L66.9812 74.9188L66.7499 75.6344C67.4093 94.8906 65.9124 114.688 66.7655 133.881C67.9687 160.944 84.8999 181.35 106.931 195.512C111.659 198.553 117.35 201.825 122.472 204.119C123.184 204.438 124.859 205.316 125.472 205.163C145.587 195.613 165.425 181.859 175.869 161.791C180.078 153.7 182.412 144.65 183.234 135.537L183.253 75.3969L182.381 74.3781L175.425 70.675C178.794 68.2719 182.4 65.6094 183.819 61.55ZM157.431 178.981L157.081 178.047V178.037L150.387 182.244C148.606 182.716 143.7 179.278 141.569 179.219V182.887C141.569 184.25 142.328 185.656 142.731 186.744C142.844 187.05 142.953 187.356 143.059 187.659C143.059 187.659 143.06 187.661 143.062 187.666C143.169 187.969 143.275 188.269 143.384 188.569C143.416 188.647 143.444 188.722 143.472 188.8C143.672 189.322 143.894 189.838 144.172 190.341L134.116 195.781H134.109C134.041 195.225 134.822 194.887 135.009 194.544C135.612 193.434 137.072 189.006 137.072 187.859V180.875L125.097 187.744L113.491 180.894C113.294 180.784 112.925 181.166 112.925 181.228C112.925 183.219 112.731 185.706 112.925 187.619L112.919 187.612C113.091 189.309 114.184 192.769 114.981 194.3C114.981 194.303 114.984 194.303 114.987 194.306C115 194.331 115.016 194.353 115.031 194.378C115.075 194.444 115.137 194.513 115.206 194.578C115.3 194.672 115.409 194.766 115.512 194.869C115.756 195.109 115.962 195.391 115.881 195.775C115.534 195.612 115.178 195.447 114.819 195.281C114.453 195.106 114.081 194.931 113.709 194.75C113.341 194.572 112.972 194.394 112.603 194.206C112.225 194.019 111.85 193.828 111.475 193.631C111.106 193.441 110.741 193.244 110.381 193.044C110.194 192.941 110.009 192.837 109.828 192.734C109.65 192.631 109.469 192.528 109.294 192.425C108.591 192.009 107.909 191.581 107.275 191.137C106.994 190.941 106.641 190.756 106.387 190.516C106.359 190.491 106.334 190.463 106.309 190.434C106.256 190.378 106.209 190.319 106.175 190.256C106.084 190.116 106.037 189.953 106.047 189.766C106.062 189.462 107.044 187.303 107.259 186.741C107.322 186.584 107.6 186.591 107.728 186.206C108.397 184.212 108.337 181.312 108.419 179.212C108.412 179.209 108.406 179.203 108.397 179.197C107.747 178.775 100.975 182.775 99.603 182.237L92.8905 178.056L92.8843 178.05C92.2249 177.9 92.7187 179.016 91.8499 178.503C91.753 178.447 91.6374 178.369 91.503 178.266C89.503 176.744 85.9499 172.075 84.278 169.931C84.2093 169.844 84.1093 169.781 84.0093 169.719C83.9718 169.7 83.9343 169.678 83.8999 169.653C83.8655 169.638 83.8312 169.616 83.7999 169.591C83.7687 169.569 83.7374 169.547 83.7124 169.522C83.6718 169.487 83.6437 169.45 83.6187 169.406C83.6093 169.387 83.5999 169.369 83.5937 169.35C83.1874 168.125 84.1937 167.944 84.5624 167.313C86.4999 163.997 88.7437 157.862 89.603 154.119C91.8593 144.294 92.0468 133.872 89.7187 124.053C90.5655 123.309 102.328 126.019 104.162 126.534C111.069 128.475 117.706 131.444 123.853 135.119C124.259 135.363 124.666 135.609 125.069 135.856C132.444 131.216 140.712 127.675 149.225 125.678C150.619 125.353 159.475 123.597 160.241 124.041C160.25 124.047 160.259 124.053 160.266 124.059C159.831 126.053 159.366 128.097 159.112 130.122C158.394 135.856 158.462 142.406 159.428 148.806C159.478 149.131 159.528 149.453 159.581 149.775C159.687 150.419 159.8 151.059 159.925 151.697C160.303 153.625 160.762 155.522 161.309 157.366C161.666 158.572 162.059 159.753 162.491 160.906C162.512 160.963 162.534 161.016 162.553 161.072C163.428 163.375 164.453 165.556 165.641 167.55C165.641 167.553 165.644 167.553 165.647 167.556C165.741 167.712 165.878 167.834 166.025 167.95C166.1 168.009 166.178 168.069 166.25 168.131C166.253 168.134 166.256 168.137 166.256 168.137C166.312 168.181 166.362 168.231 166.409 168.281C166.475 168.356 166.534 168.434 166.575 168.528C166.659 168.716 166.675 168.95 166.569 169.281C163.541 172.525 160.922 176.237 157.434 178.978L157.431 178.981ZM143.306 115.694C143.306 115.694 143.303 115.694 143.3 115.694C142.425 115.503 141.553 115.259 140.684 114.959C139.816 114.662 138.953 114.316 138.1 113.912C137.803 113.772 137.103 113.338 136.375 112.912C136.278 112.859 136.184 112.803 136.087 112.75C135.506 112.416 134.944 112.116 134.587 112.012C134.431 111.966 134.316 111.956 134.256 111.997L125.122 127.6H125.119L115.775 112.081C115.762 112.072 115.747 112.066 115.734 112.062C115.719 112.056 115.703 112.05 115.687 112.047C115.106 111.897 113.706 113.122 113.087 113.441C103.953 118.184 92.5874 116.866 85.3843 110.091C83.6874 108.497 82.2249 106.6 81.0718 104.412C80.5655 103.45 80.1405 102.463 79.7968 101.459C78.4812 97.6469 78.3155 93.5938 79.2437 89.7C79.2437 89.7 79.2405 89.6969 79.2437 89.6969C79.6374 88.0625 80.2218 86.4531 80.9968 84.9031C81.1718 84.55 81.3593 84.2062 81.553 83.8688C81.7499 83.5281 81.9562 83.2 82.1687 82.8781C82.1687 82.8781 82.1687 82.8771 82.1687 82.875C82.9187 81.7438 83.7749 80.7 84.7062 79.7125C84.7062 79.7125 84.703 79.7125 84.7062 79.7094C85.3749 79.0094 86.0812 78.3375 86.8155 77.6906C87.3718 77.7156 87.9249 77.75 88.478 77.7875C88.5062 77.7875 88.5343 77.7906 88.5624 77.7937C88.9093 77.8219 89.253 77.85 89.5968 77.8812C89.6312 77.8812 89.6655 77.8812 89.6999 77.8906C90.0374 77.9219 90.3718 77.9562 90.7093 77.9937C90.753 77.9969 90.7937 78 90.8374 78.0094C92.2687 78.1719 93.6905 78.3937 95.0937 78.6812C95.1687 78.6937 95.2468 78.7094 95.3218 78.7281C96.7437 79.0281 98.1468 79.3937 99.5312 79.8375C99.7093 79.8969 99.8874 79.9531 100.066 80.0156C100.597 80.1906 101.125 80.3813 101.65 80.5875C102.175 80.7906 102.697 81.0063 103.216 81.2344C103.562 81.3875 103.906 81.5437 104.25 81.7094C104.809 81.9781 105.359 82.2563 105.897 82.5438C106.431 82.8313 106.956 83.125 107.472 83.4281C107.472 83.4281 107.473 83.4281 107.475 83.4281C107.991 83.7344 108.494 84.05 108.991 84.3719C109.156 84.4812 109.322 84.5906 109.487 84.7031C109.812 84.9219 110.134 85.1469 110.45 85.3781C111.884 86.4125 113.234 87.5406 114.519 88.7594C114.803 89.0281 115.081 89.3031 115.359 89.5844C115.637 89.8625 115.912 90.1469 116.184 90.4375C116.184 90.4375 116.185 90.4375 116.187 90.4375C116.459 90.725 116.728 91.0187 116.991 91.3187C117.656 92.0687 118.303 92.8438 118.934 93.6531C119.147 93.9281 119.356 94.2 119.559 94.4687C119.762 94.7344 119.959 95 120.153 95.2656C120.153 95.2687 120.156 95.2687 120.156 95.2687C120.35 95.5312 120.541 95.7969 120.728 96.0625C121.103 96.5937 121.466 97.125 121.822 97.6688C122.359 98.4813 122.878 99.3156 123.403 100.2L125.228 103.919L125.231 103.925C125.284 103.737 125.362 103.509 125.459 103.256C125.459 103.256 125.456 103.256 125.459 103.253C125.578 102.953 125.722 102.619 125.875 102.278C125.875 102.278 125.872 102.275 125.875 102.275C125.928 102.166 125.978 102.05 126.031 101.938C126.028 101.934 126.031 101.934 126.031 101.934C126.191 101.594 126.353 101.259 126.5 100.956C126.5 100.956 126.497 100.953 126.5 100.953C126.825 100.294 127.087 99.7906 127.122 99.7281C134.3 86.45 147.475 78.15 162.762 77.6281C162.884 77.6187 162.987 77.6375 163.087 77.6687C163.15 77.6906 163.212 77.7187 163.272 77.7531C163.341 77.7875 163.406 77.8281 163.478 77.8687C163.603 77.9406 164.978 79.2344 165.762 79.9937C165.828 80.0562 165.887 80.1156 165.944 80.1688C165.972 80.1969 165.997 80.2219 166.025 80.25C166.05 80.275 166.072 80.2969 166.097 80.3219C166.119 80.3437 166.141 80.3656 166.159 80.3844C166.216 80.4406 166.259 80.4844 166.281 80.5094C166.4 80.6437 166.522 80.7844 166.644 80.9375C166.947 81.3094 167.256 81.7375 167.566 82.2031C167.628 82.2969 167.694 82.3937 167.756 82.4906C167.878 82.6812 168.003 82.875 168.122 83.075C168.122 83.0781 168.125 83.0781 168.125 83.0781C168.309 83.3812 168.491 83.6906 168.666 84.0094C169.497 85.4937 170.241 87.1125 170.706 88.5062C170.878 89.0062 171.009 89.4781 171.097 89.9031C174.606 106.884 158.709 119.1 143.3 115.691L143.306 115.694Z" fill="#031638"/>
<path d="M171.1 89.9031C171.012 89.4781 170.881 89.0094 170.712 88.5094C170.247 87.1156 169.503 85.4969 168.672 84.0125C168.494 83.6938 168.312 83.3844 168.131 83.0813C168.131 83.0813 168.128 83.0813 168.128 83.0781C168.006 82.8813 167.884 82.6844 167.762 82.4938C167.7 82.3969 167.634 82.3 167.572 82.2063C167.262 81.7406 166.95 81.3125 166.65 80.9406C166.528 80.7875 166.406 80.6469 166.287 80.5125C166.265 80.4875 166.222 80.4438 166.165 80.3875C166.147 80.3688 166.125 80.3469 166.103 80.325C166.078 80.3 166.056 80.2781 166.031 80.2531C166.003 80.225 165.978 80.2 165.95 80.1719C165.894 80.1188 165.834 80.0594 165.769 79.9969C164.984 79.2375 163.609 77.9438 163.484 77.8719C163.412 77.8313 163.347 77.7906 163.278 77.7563C163.219 77.7219 163.156 77.6938 163.094 77.6719C162.994 77.6344 162.887 77.6188 162.765 77.6281C147.478 78.15 134.303 86.45 127.125 99.7281C127.09 99.7906 126.828 100.297 126.506 100.956C126.503 100.956 126.506 100.959 126.506 100.959C126.353 101.263 126.194 101.597 126.037 101.938C126.037 101.938 126.034 101.938 126.037 101.941C125.984 102.053 125.934 102.169 125.881 102.278C125.878 102.278 125.881 102.281 125.881 102.281C125.725 102.622 125.581 102.956 125.465 103.256C125.462 103.259 125.465 103.259 125.465 103.259C125.365 103.509 125.287 103.734 125.234 103.922L123.409 100.203C122.884 99.3188 122.365 98.4844 121.828 97.6719C121.472 97.1313 121.109 96.6 120.734 96.0688C120.547 95.8 120.356 95.5375 120.162 95.2719C120.162 95.2719 120.159 95.2719 120.159 95.2688C119.965 95.0063 119.769 94.7406 119.565 94.4719C119.362 94.2031 119.153 93.9313 118.94 93.6594C118.309 92.8469 117.662 92.0719 116.997 91.3219C116.731 91.025 116.462 90.7313 116.194 90.4406C116.194 90.4406 116.193 90.4406 116.19 90.4406C115.919 90.1531 115.644 89.8688 115.366 89.5875C115.087 89.3094 114.806 89.0344 114.525 88.7625C113.241 87.5438 111.89 86.4156 110.456 85.3813C110.14 85.15 109.819 84.925 109.494 84.7063C109.328 84.5938 109.162 84.4844 108.997 84.375C108.503 84.05 107.997 83.7344 107.481 83.4313C107.481 83.4313 107.48 83.4313 107.478 83.4313C106.965 83.125 106.441 82.8313 105.903 82.5469C105.366 82.2594 104.815 81.9813 104.256 81.7125C103.912 81.5469 103.569 81.3906 103.222 81.2375C102.703 81.0094 102.181 80.7938 101.656 80.5906C101.131 80.3844 100.603 80.1938 100.072 80.0188C99.8936 79.9563 99.7155 79.9 99.5374 79.8406C98.153 79.3938 96.7499 79.0281 95.328 78.7313C95.253 78.7125 95.1749 78.6969 95.0999 78.6844C93.6968 78.3969 92.278 78.175 90.8436 78.0125C90.7999 78.0031 90.7593 78 90.7155 77.9969C90.378 77.9594 90.0436 77.925 89.7061 77.8938C89.6717 77.8875 89.6374 77.8844 89.603 77.8844C89.2593 77.8531 88.9155 77.825 88.5686 77.7969C88.5405 77.7938 88.5124 77.7906 88.4842 77.7906C87.9311 77.75 87.3749 77.7156 86.8186 77.6906C86.0843 78.3375 85.378 79.0094 84.7124 79.7125C84.7092 79.7156 84.7124 79.7156 84.7124 79.7156C83.7749 80.7031 82.9217 81.7469 82.1749 82.8781C82.1749 82.8781 82.1749 82.8792 82.1749 82.8813C81.9592 83.2031 81.753 83.5313 81.5592 83.8688C81.3624 84.2094 81.1749 84.5531 80.9999 84.9031C80.2249 86.4563 79.6405 88.0625 79.2499 89.7C79.2468 89.7 79.2499 89.7031 79.2499 89.7031C78.3186 93.5969 78.4842 97.6469 79.803 101.463C80.1467 102.466 80.5718 103.453 81.078 104.416C82.2311 106.603 83.6936 108.5 85.3905 110.094C92.5967 116.863 103.959 118.184 113.091 113.441C113.709 113.119 115.112 111.894 115.694 112.05C115.709 112.053 115.725 112.056 115.74 112.066C115.753 112.066 115.769 112.075 115.781 112.084L125.125 127.6L134.259 111.997C134.319 111.956 134.434 111.966 134.594 112.016C134.95 112.119 135.512 112.419 136.094 112.753C136.19 112.806 136.284 112.863 136.381 112.916C137.109 113.341 137.809 113.775 138.106 113.916C138.959 114.319 139.822 114.666 140.69 114.963C141.559 115.259 142.431 115.503 143.306 115.697C143.309 115.697 143.312 115.697 143.312 115.697C158.722 119.097 174.615 106.884 171.106 89.9063L171.1 89.9031ZM105.819 104.281C94.3655 108.688 84.2374 94.7094 94.2186 86.5281C97.1686 84.1094 101.625 83.3969 105.256 84.6188C105.412 84.6719 105.566 84.725 105.716 84.7813C106.016 84.8969 106.306 85.0188 106.59 85.1531C107.012 85.35 107.416 85.5688 107.797 85.8063C108.306 86.1219 108.775 86.4719 109.209 86.8438C109.425 87.0313 109.634 87.225 109.828 87.4281C114.756 92.4281 113.684 101.256 105.819 104.281ZM125.119 121.209L115.534 103.809C115.45 103.534 115.581 103.444 115.778 103.434H115.787C115.878 103.428 115.984 103.444 116.087 103.463H116.09C116.244 103.494 116.39 103.538 116.49 103.563C119.6 104.353 121.162 105.869 122.956 108.341C123.059 108.484 123.384 108.566 123.54 108.809C123.737 109.116 124.965 112.184 125.234 111.978C125.625 110.625 126.265 109.313 127.103 108.138C127.356 107.788 127.625 107.447 127.909 107.122C128.1 106.906 128.3 106.697 128.503 106.494C130.244 104.775 132.475 103.603 134.944 103.459L125.119 121.209ZM159.772 96.4C159.734 96.5688 159.694 96.7375 159.65 96.9063C159.584 97.1563 159.506 97.4031 159.419 97.6469C159.359 97.8094 159.297 97.9719 159.228 98.1313C159.194 98.2125 159.159 98.2906 159.125 98.3688C159.053 98.5281 158.978 98.6844 158.897 98.8406C158.856 98.9188 158.815 98.9938 158.775 99.0719C158.647 99.3 158.512 99.525 158.369 99.7469C158.275 99.8938 158.175 100.041 158.072 100.184C157.969 100.325 157.862 100.469 157.75 100.606C157.64 100.744 157.528 100.881 157.409 101.016C157.294 101.15 157.172 101.281 157.047 101.409C156.984 101.475 156.922 101.538 156.856 101.603C154.494 103.953 151.031 105.397 147.375 105.109C143.297 104.788 138.622 101.316 137.662 97.3031C134.822 85.4188 150.681 78.9813 157.997 88.9281C159.812 91.3969 160.272 94.0094 159.772 96.4Z" fill="#FCFCFC"/>
<path d="M166.575 168.528C166.534 168.434 166.475 168.356 166.409 168.281C166.362 168.231 166.312 168.184 166.256 168.137C166.256 168.137 166.253 168.138 166.25 168.131C166.178 168.072 166.1 168.012 166.025 167.95C165.878 167.834 165.74 167.712 165.647 167.556C164.459 165.559 163.431 163.378 162.553 161.072C162.534 161.016 162.512 160.963 162.49 160.906C162.059 159.753 161.665 158.572 161.309 157.366C160.762 155.522 160.303 153.625 159.925 151.697C159.803 151.059 159.687 150.419 159.581 149.775C159.528 149.453 159.478 149.131 159.428 148.806C158.469 142.406 158.4 135.862 159.119 130.128C159.372 128.1 159.837 126.056 160.272 124.062C160.269 124.062 160.269 124.059 160.265 124.059C160.259 124.053 160.25 124.047 160.24 124.041C159.425 123.612 150.619 125.359 149.231 125.684C140.719 127.678 132.45 131.219 125.075 135.862C125.072 135.862 125.072 135.859 125.069 135.856C124.665 135.609 124.259 135.362 123.853 135.119C117.706 131.447 111.075 128.481 104.169 126.541C102.334 126.025 90.5717 123.316 89.7248 124.059C92.053 133.878 91.8686 144.3 89.6092 154.125C88.7467 157.866 86.503 164 84.5686 167.319C84.1998 167.95 83.1936 168.131 83.5998 169.356C83.6061 169.375 83.6123 169.391 83.6186 169.406C83.6436 169.45 83.6717 169.487 83.7123 169.522C83.7373 169.547 83.7686 169.569 83.7998 169.591C83.8311 169.616 83.8655 169.637 83.8998 169.653C83.9342 169.678 83.9717 169.7 84.0092 169.719C84.1092 169.781 84.2092 169.844 84.278 169.931C85.9498 172.075 89.503 176.744 91.503 178.266C91.6373 178.369 91.753 178.447 91.8498 178.503C92.728 179.028 92.2311 177.909 92.8905 178.056L99.603 182.237L99.6092 182.244C100.975 182.778 107.703 178.809 108.397 179.197C108.406 179.203 108.412 179.209 108.419 179.212L108.425 179.219C108.344 181.319 108.4 184.219 107.734 186.212C107.606 186.597 107.328 186.588 107.265 186.747C107.05 187.306 106.069 189.469 106.053 189.772C106.044 189.956 106.09 190.116 106.175 190.256C106.209 190.319 106.256 190.378 106.309 190.434C106.334 190.463 106.359 190.491 106.387 190.516C106.64 190.756 106.994 190.941 107.275 191.137C107.909 191.581 108.59 192.009 109.294 192.425C109.469 192.528 109.65 192.631 109.828 192.734C110.009 192.837 110.194 192.941 110.381 193.044C110.74 193.244 111.106 193.441 111.475 193.631C111.85 193.828 112.225 194.019 112.603 194.206C112.972 194.394 113.34 194.572 113.709 194.75C114.081 194.931 114.453 195.106 114.819 195.281C115.181 195.45 115.537 195.619 115.887 195.781C115.972 195.391 115.756 195.109 115.512 194.869C115.409 194.766 115.3 194.672 115.206 194.578C115.137 194.509 115.078 194.444 115.031 194.378C115.015 194.353 115 194.331 114.987 194.306C114.187 192.772 113.097 189.312 112.925 187.619L112.931 187.625C112.737 185.713 112.931 183.225 112.931 181.234C112.931 181.175 113.3 180.791 113.497 180.9L125.103 187.75L137.072 180.884H137.078V187.866C137.078 189.012 135.619 193.441 135.015 194.55C134.828 194.891 134.056 195.228 134.115 195.781V195.791L144.178 190.347C143.9 189.841 143.675 189.322 143.472 188.8C143.444 188.722 143.415 188.647 143.384 188.569C143.275 188.269 143.169 187.969 143.062 187.666C143.062 187.666 143.061 187.664 143.059 187.659C142.956 187.356 142.85 187.053 142.737 186.75C142.334 185.662 141.575 184.256 141.575 182.894V179.225C143.706 179.284 148.612 182.722 150.394 182.25L157.081 178.047H157.084L157.434 178.978V178.987C160.925 176.244 163.547 172.531 166.575 169.287C166.681 168.953 166.662 168.716 166.575 168.528ZM97.6592 173.337C97.6092 173.303 97.5467 173.262 97.478 173.219C97.478 173.219 97.4748 173.219 97.4748 173.216C97.428 173.184 97.3748 173.15 97.3217 173.113H97.3186C97.2655 173.075 97.2061 173.034 97.1467 172.994C96.5092 172.553 95.6155 171.912 95.4905 171.797C94.0717 170.478 92.9717 168.219 92.3248 166.338C92.2811 166.209 92.2405 166.084 92.1998 165.963C91.6436 164.228 91.3373 161.909 91.5998 159.903C91.6436 159.581 91.8592 159.572 91.9905 159.503H91.9936C92.0342 159.475 92.0686 159.447 92.0811 159.394C92.2811 158.653 92.2936 157.706 92.5092 156.841C92.5623 156.625 92.628 156.412 92.7155 156.212C92.7436 156.144 92.7748 156.078 92.8061 156.012C92.8405 155.987 92.9092 155.994 93.0092 156.028C94.1186 156.403 99.0498 160.206 100.534 160.684C100.609 160.709 100.678 160.725 100.734 160.731C100.819 160.703 100.947 160.656 101.109 160.594H101.112C101.165 160.572 101.222 160.547 101.284 160.525C101.347 160.503 101.409 160.475 101.478 160.447C101.544 160.419 101.615 160.391 101.69 160.359C101.837 160.297 102 160.231 102.169 160.162C102.209 160.147 102.253 160.128 102.297 160.109C102.412 160.059 102.534 160.009 102.659 159.956C102.765 159.912 102.875 159.869 102.984 159.822C103.081 159.781 103.178 159.741 103.278 159.7C103.525 159.597 103.781 159.491 104.037 159.384C104.125 159.35 104.212 159.312 104.3 159.278C104.331 159.266 104.362 159.253 104.39 159.241C104.515 159.187 104.64 159.137 104.765 159.087C104.937 159.019 105.106 158.95 105.275 158.881C105.375 158.841 105.475 158.803 105.575 158.766C105.828 158.666 106.072 158.569 106.306 158.481C106.397 158.447 106.487 158.412 106.578 158.381C106.578 158.381 106.579 158.38 106.581 158.378C106.669 158.347 106.756 158.312 106.84 158.284C106.844 158.284 106.844 158.281 106.844 158.281C106.928 158.253 107.009 158.225 107.09 158.197C107.131 158.181 107.172 158.169 107.209 158.156C107.8 157.956 108.234 157.844 108.384 157.887C108.394 157.891 108.403 157.894 108.412 157.897C108.415 157.9 108.422 157.903 108.425 157.906C108.409 158.494 108.469 159.091 108.425 159.678C108.378 160.303 108.287 160.947 108.156 161.594C108.094 161.919 108.015 162.247 107.928 162.575C107.84 162.9 107.744 163.228 107.64 163.553C107.531 163.881 107.419 164.206 107.294 164.528V164.531C107.165 164.856 107.031 165.175 106.89 165.494C106.89 165.494 106.894 165.494 106.89 165.497C106.169 167.091 105.222 168.606 104.084 169.891C103.737 170.281 103.381 170.644 103.006 170.984C102.503 171.438 101.975 171.847 101.419 172.206C101.14 172.384 100.856 172.547 100.565 172.7C100.562 172.703 100.562 172.7 100.562 172.7C100.415 172.775 100.269 172.844 100.119 172.912C100.015 172.959 99.9092 173.009 99.7998 173.059C99.1623 173.341 98.4092 173.625 97.7967 173.412C97.778 173.406 97.7311 173.381 97.6655 173.337H97.6592ZM105.569 148.769C104.165 149.687 103.331 150.472 101.725 149.575C101.503 149.45 101.272 149.3 101.037 149.128C100.803 148.956 100.565 148.762 100.325 148.547C98.253 146.697 96.1186 143.456 96.1186 141.216C96.1186 139.759 95.9217 137.581 96.1186 136.244C96.1217 136.219 96.1623 136.131 96.2123 136.028C96.2467 135.959 96.2842 135.887 96.3248 135.822C96.3436 135.791 96.3623 135.762 96.3811 135.737C96.3998 135.709 96.4155 135.687 96.4311 135.675C96.4467 135.659 96.4623 135.65 96.4717 135.653L103.597 139.916C103.9 139.834 104.2 139.741 104.5 139.637C105.647 139.237 106.772 138.684 107.897 138.128C108.822 137.669 109.75 137.209 110.684 136.837C111.415 141.441 109.503 146.197 105.569 148.769ZM140.665 137.403C140.994 137.562 141.35 137.741 141.725 137.925C141.728 137.925 141.728 137.928 141.728 137.928C142.009 138.069 142.297 138.212 142.584 138.359C142.584 138.359 142.587 138.359 142.587 138.362C142.972 138.556 143.359 138.75 143.734 138.931C143.737 138.931 143.737 138.934 143.737 138.934C143.925 139.025 144.109 139.112 144.287 139.197C144.825 139.447 145.312 139.656 145.7 139.784C146.009 139.887 146.253 139.937 146.406 139.916C147.278 139.794 153.15 135.506 153.625 135.644C153.631 135.644 153.637 135.647 153.64 135.65L153.644 135.656C154.247 138.434 153.965 141.666 152.781 144.419V144.422C152.672 144.681 152.55 144.934 152.422 145.184C152.165 145.684 151.878 146.166 151.559 146.622C151.403 146.847 151.234 147.066 151.056 147.278C151.053 147.278 151.056 147.281 151.056 147.281C150.881 147.494 150.697 147.697 150.503 147.894C150.312 148.094 150.112 148.281 149.903 148.462C149.903 148.462 149.9 148.459 149.9 148.462C149.275 149.006 148.575 149.466 147.803 149.825C147.247 150.081 146.812 150.05 146.375 149.891C146.34 149.875 146.306 149.862 146.272 149.85C146.203 149.822 146.134 149.791 146.065 149.759C145.959 149.703 145.853 149.647 145.74 149.587C145.669 149.55 145.594 149.509 145.519 149.469C145.444 149.425 145.362 149.381 145.281 149.337C145.137 149.262 145 149.184 144.862 149.103C144.59 148.947 144.328 148.778 144.075 148.603C143.569 148.25 143.103 147.869 142.678 147.456C142.469 147.253 142.269 147.044 142.078 146.828C141.597 146.281 141.178 145.697 140.812 145.075C140.672 144.831 140.537 144.581 140.412 144.328C140.287 144.072 140.169 143.809 140.059 143.541C139.897 143.141 139.753 142.731 139.625 142.312C139.54 142.028 139.465 141.744 139.397 141.453C139.331 141.172 139.272 140.884 139.222 140.594C139.169 140.297 139.125 139.997 139.087 139.694C138.978 138.762 138.937 137.806 138.965 136.837C139.094 136.706 139.762 136.975 140.659 137.4H140.662L140.665 137.403ZM115.056 141.812H115.059L115.987 141.944L124.919 147.216H124.922L134.465 141.809C134.25 142.431 134.906 142.456 134.959 142.859C135.056 143.591 135.056 145.947 134.959 146.678C134.956 146.697 134.947 146.744 134.928 146.816C134.928 146.825 134.925 146.834 134.922 146.844C134.912 146.878 134.9 146.919 134.887 146.966C134.872 147.022 134.856 147.087 134.834 147.159C134.812 147.234 134.79 147.316 134.765 147.403C134.74 147.491 134.712 147.587 134.681 147.687C134.665 147.741 134.65 147.797 134.631 147.853C134.547 148.153 134.45 148.475 134.365 148.766C134.328 148.897 134.29 149.022 134.259 149.134C134.234 149.219 134.209 149.3 134.19 149.372C134.159 149.475 134.134 149.562 134.115 149.625C134.025 149.95 133.928 150.269 133.825 150.581C133.625 151.203 133.4 151.794 133.153 152.356C133.031 152.637 132.903 152.909 132.769 153.178C132.565 153.581 132.353 153.969 132.125 154.341C131.975 154.587 131.815 154.831 131.65 155.069C131.156 155.778 130.606 156.434 129.994 157.047C128.665 158.372 127.047 159.487 125.078 160.472C125.078 160.475 125.075 160.475 125.075 160.475C123.815 159.734 122.387 159.144 121.231 158.244C119.287 156.731 117.965 154.941 117.003 152.9C117.003 152.9 117.006 152.897 117.003 152.897C116.422 151.675 115.972 150.362 115.59 148.966C115.309 147.941 115.056 147.806 115.056 147.728V141.812ZM136.775 166.959C136.606 167.981 136.35 168.978 136.015 169.941C135.812 170.519 135.584 171.081 135.325 171.634C135.156 172.006 134.972 172.369 134.778 172.722C133.806 174.509 132.553 176.141 131.094 177.569C129.344 179.291 127.294 180.719 125.075 181.775C124.878 181.687 124.681 181.594 124.487 181.5C124.097 181.312 123.706 181.109 123.325 180.897C122.75 180.578 122.187 180.231 121.64 179.859C120.544 179.116 119.512 178.272 118.59 177.337C117.975 176.719 117.406 176.056 116.894 175.359C113.565 170.822 112.265 165.203 113.162 159.562L125.075 166.397L136.834 159.562C137.209 161.987 137.172 164.534 136.775 166.959ZM157.094 167.828C157.034 167.987 156.978 168.141 156.919 168.294C156.712 168.816 156.475 169.284 156.169 169.741C156.037 169.934 155.894 170.125 155.737 170.319C155.631 170.444 155.519 170.572 155.4 170.703C155.278 170.831 155.15 170.962 155.012 171.094C154.875 171.225 154.731 171.356 154.578 171.494C154.265 171.766 153.919 172.05 153.525 172.35C152.719 172.966 152.419 173.347 152.072 173.469C151.684 173.606 151.231 173.416 149.934 172.862C148.275 172.153 146.556 170.784 145.35 169.294C145.347 169.291 145.35 169.291 145.35 169.291C145.165 169.059 144.994 168.828 144.834 168.597V168.594C144.756 168.478 144.681 168.359 144.609 168.244C144.519 168.094 144.428 167.944 144.334 167.787C144.24 167.628 144.15 167.466 144.065 167.303C143.887 166.975 143.715 166.637 143.544 166.291C143.375 165.941 143.212 165.581 143.059 165.216C142.287 163.391 141.706 161.416 141.575 159.678C141.531 159.091 141.59 158.494 141.575 157.906C141.584 157.9 141.597 157.891 141.612 157.887C141.772 157.841 142.312 157.987 143.044 158.241C143.3 158.328 143.578 158.428 143.872 158.534C143.872 158.534 143.872 158.537 143.875 158.537C143.972 158.572 144.072 158.609 144.172 158.647C144.222 158.669 144.275 158.687 144.328 158.706C144.481 158.762 144.637 158.822 144.794 158.884C144.794 158.884 144.794 158.885 144.794 158.887C144.9 158.925 145.006 158.966 145.109 159.006C145.109 159.006 145.109 159.009 145.112 159.009C145.219 159.05 145.325 159.091 145.431 159.134H145.434C147.209 159.831 149.022 160.584 149.503 160.737C149.519 160.731 149.537 160.725 149.556 160.722C149.694 160.669 149.884 160.572 150.115 160.434C150.181 160.397 150.25 160.356 150.319 160.312C150.503 160.203 150.703 160.075 150.919 159.934C151.003 159.878 151.09 159.822 151.178 159.762C151.315 159.672 151.456 159.578 151.6 159.481C151.744 159.384 151.887 159.287 152.037 159.187C152.137 159.116 152.237 159.047 152.337 158.981H152.34C152.44 158.906 152.544 158.837 152.647 158.769C152.7 158.731 152.753 158.697 152.806 158.659C152.962 158.553 153.119 158.447 153.275 158.341C153.331 158.303 153.384 158.266 153.437 158.228C153.594 158.122 153.75 158.016 153.906 157.912C153.959 157.875 154.012 157.841 154.065 157.803C154.375 157.594 154.681 157.391 154.975 157.203H154.978C155.269 157.009 155.55 156.831 155.809 156.675C156.644 156.172 157.262 155.875 157.425 156.012C157.506 156.362 157.569 156.725 157.622 157.094C157.637 157.216 157.656 157.341 157.675 157.462C157.709 157.706 157.744 157.953 157.781 158.194C157.8 158.316 157.822 158.437 157.844 158.556C157.865 158.675 157.89 158.794 157.915 158.909C157.925 158.959 157.956 158.991 157.997 159.019C158.019 159.031 158.044 159.044 158.069 159.053C158.109 159.069 158.15 159.087 158.187 159.109C158.212 159.122 158.24 159.141 158.262 159.166C158.275 159.175 158.287 159.187 158.297 159.2C158.309 159.212 158.319 159.228 158.328 159.244C158.35 159.275 158.365 159.312 158.375 159.356C158.381 159.378 158.387 159.403 158.39 159.428C158.512 160.375 158.512 163.484 158.39 164.431C158.381 164.512 158.359 164.572 158.331 164.619H158.328C158.309 164.653 158.287 164.681 158.262 164.7C158.147 164.803 157.987 164.806 157.928 164.909C157.925 164.922 157.919 164.934 157.915 164.947C157.6 166.109 157.362 167.034 157.084 167.828H157.094Z" fill="#3A5070"/>
<path d="M136.834 159.562C137.209 161.987 137.172 164.534 136.775 166.959C135.703 173.494 130.987 178.956 125.075 181.772C121.922 180.362 118.937 178.147 116.894 175.359C113.565 170.822 112.265 165.2 113.162 159.559L125.075 166.394L136.834 159.559V159.562Z" fill="#031638"/>
<path d="M115.056 141.809L115.991 141.941L124.922 147.213L134.469 141.806C134.253 142.428 134.909 142.453 134.962 142.856C135.059 143.588 135.059 145.941 134.962 146.675C134.941 146.847 134.269 149.075 134.119 149.622C132.653 154.844 129.931 158.044 125.078 160.472C123.819 159.728 122.391 159.141 121.234 158.241C118.125 155.819 116.609 152.691 115.594 148.963C115.316 147.938 115.059 147.803 115.059 147.725V141.806L115.056 141.809Z" fill="#031638"/>
<path d="M157.431 156.013C157.653 156.953 157.719 157.975 157.922 158.913C157.966 159.116 158.344 159.009 158.397 159.431C158.519 160.378 158.519 163.488 158.397 164.434C158.341 164.859 157.978 164.738 157.922 164.95C156.916 168.669 156.672 169.947 153.525 172.35C151.812 173.656 152.391 173.916 149.931 172.866C147.891 171.994 145.753 170.116 144.606 168.247C143.141 165.853 141.781 162.459 141.572 159.681C141.528 159.094 141.587 158.497 141.572 157.909C141.897 157.566 148.512 160.425 149.503 160.741C150.672 160.378 156.866 155.531 157.428 156.016L157.431 156.013Z" fill="#031638"/>
<path d="M108.428 157.909C108.412 158.497 108.472 159.094 108.428 159.681C108.05 164.684 104.894 170.75 100.119 172.916C99.428 173.228 98.5093 173.666 97.7937 173.416C97.6562 173.369 95.6812 171.972 95.4905 171.797C93.978 170.391 92.8249 167.912 92.203 165.966C91.6468 164.231 91.3405 161.912 91.603 159.906C91.6593 159.475 92.028 159.606 92.0843 159.397C92.3499 158.409 92.2812 157.047 92.8093 156.016C93.2499 155.697 99.4812 160.606 100.737 160.734C101.709 160.419 108.081 157.544 108.431 157.912H108.428V157.909Z" fill="#031638"/>
<path d="M153.644 135.653C154.756 140.791 152.862 147.475 147.803 149.822C146.812 150.281 146.194 149.822 145.284 149.337C140.55 146.816 138.825 142.003 138.965 136.834C139.375 136.412 145.284 140.072 146.403 139.912C147.287 139.787 153.331 135.366 153.64 135.65H153.644V135.653Z" fill="#031638"/>
<path d="M96.1187 136.244C96.1281 136.178 96.4 135.631 96.4719 135.653L103.597 139.916C106.019 139.275 108.319 137.781 110.684 136.837C111.416 141.441 109.503 146.197 105.569 148.769C104.166 149.687 103.331 150.472 101.725 149.575C99.35 148.247 96.1187 143.972 96.1187 141.216C96.1187 139.759 95.9219 137.581 96.1187 136.244Z" fill="#031638"/>
<path d="M109.828 87.4281C109.631 87.225 109.425 87.0312 109.209 86.8437C108.775 86.4718 108.306 86.1218 107.797 85.8062C107.416 85.5718 107.012 85.3531 106.591 85.1531C106.306 85.0218 106.016 84.8968 105.716 84.7812C105.566 84.725 105.412 84.6719 105.256 84.6187C101.625 83.3969 97.1687 84.1094 94.2187 86.5281C84.2374 94.7094 94.3655 108.687 105.819 104.281C113.684 101.256 114.756 92.4281 109.828 87.4281ZM99.0312 94.625C98.8624 94.475 98.4624 93.7531 98.3718 93.5094C96.2249 87.7312 105.978 86.6187 105.741 92.1781C105.6 95.5094 101.331 96.6718 99.0312 94.625Z" fill="#031638"/>
<path d="M157.997 88.9281C150.681 78.9813 134.822 85.4188 137.662 97.3031C138.622 101.316 143.297 104.788 147.375 105.109C151.031 105.397 154.494 103.953 156.856 101.603C156.922 101.538 156.984 101.475 157.047 101.409C157.172 101.281 157.294 101.15 157.409 101.016C157.528 100.881 157.64 100.744 157.75 100.606C157.862 100.469 157.969 100.325 158.072 100.184C158.175 100.041 158.275 99.8938 158.369 99.7469C158.512 99.525 158.65 99.3 158.775 99.0719C158.815 98.9938 158.856 98.9188 158.897 98.8406C158.978 98.6844 159.053 98.5281 159.125 98.3688C159.159 98.2906 159.194 98.2125 159.228 98.1312C159.297 97.9719 159.359 97.8094 159.419 97.6469C159.506 97.4031 159.584 97.1563 159.65 96.9063C159.694 96.7375 159.734 96.5688 159.772 96.4C160.272 94.0094 159.812 91.3969 157.997 88.9281ZM150.734 94.7969C150.65 94.8625 150.562 94.9281 150.472 94.9875C150.378 95.0469 150.281 95.1063 150.181 95.1594C149.831 95.35 149.431 95.4969 148.978 95.5906C148.459 95.7 147.981 95.7219 147.547 95.6781C147.406 95.6625 147.275 95.6438 147.144 95.6156C146.562 95.4906 146.065 95.2344 145.659 94.8906C145.572 94.8156 145.484 94.7344 145.403 94.65C143.625 92.7969 144.044 89.0906 147.197 88.6063C147.615 88.5406 148.009 88.5219 148.378 88.5375C148.531 88.5438 148.681 88.5563 148.828 88.575C149.119 88.6156 149.39 88.6812 149.644 88.7656C149.769 88.8094 149.89 88.8594 150.006 88.9125C150.297 89.0469 150.559 89.2125 150.787 89.4C150.881 89.4781 150.969 89.5563 151.05 89.6406C152.444 91.0563 152.39 93.4844 150.734 94.7969Z" fill="#031638"/>
<path d="M125.234 111.978C126.484 107.65 130.294 103.731 134.944 103.459L125.119 121.209L115.534 103.809C115.353 103.216 115.466 103.413 115.787 103.434C120.025 103.728 124.122 107.706 125.234 111.978Z" fill="#031638"/>
<path d="M99.0311 94.625C98.8623 94.475 98.4623 93.7531 98.3717 93.5094C96.2248 87.7312 105.978 86.6187 105.74 92.1781C105.6 95.5093 101.331 96.6718 99.0311 94.625Z" fill="#FCFCFC"/>
<path d="M147.197 88.6063C152.806 87.7438 153.731 94.6 148.978 95.5907C143.787 96.675 142.656 89.3032 147.197 88.6063Z" fill="#FCFCFC"/>
</svg>
