<svg width="328" height="148" viewBox="0 0 328 148" fill="none" xmlns="http://www.w3.org/2000/svg">
<g filter="url(#filter0_d_632_119)">
<rect x="4" width="320" height="140" rx="8" fill="white"/>
<rect x="4.4" y="0.4" width="319.2" height="139.2" rx="7.6" stroke="#3060BF" stroke-width="0.8"/>
</g>
<path d="M108.923 60.072H112.595L118.139 76.32L119.531 76.56V78H112.451V76.56L114.251 76.32L113.315 73.2H107.099L106.163 76.344L108.107 76.56V78H101.987L101.963 76.56L103.403 76.32L108.923 60.072ZM110.579 64.128L110.147 62.256L109.691 64.152L107.555 71.52H112.835L110.579 64.128ZM128.319 78.264C125.599 78.264 123.519 77.456 122.079 75.84C120.639 74.208 119.919 71.984 119.919 69.168C119.919 67.312 120.295 65.696 121.047 64.32C121.815 62.928 122.863 61.856 124.191 61.104C125.519 60.352 127.023 59.976 128.703 59.976C129.407 59.976 130.087 60.024 130.743 60.12C131.399 60.2 132.175 60.312 133.071 60.456C133.743 60.568 134.111 60.624 134.175 60.624L133.911 65.568H131.703L130.959 62.136C130.783 61.96 130.479 61.816 130.047 61.704C129.615 61.592 129.063 61.536 128.391 61.536C127.031 61.536 125.935 62.168 125.103 63.432C124.287 64.68 123.879 66.496 123.879 68.88C123.879 71.184 124.271 73.064 125.055 74.52C125.839 75.976 126.983 76.704 128.487 76.704C129.207 76.704 129.759 76.64 130.143 76.512C130.543 76.368 130.879 76.168 131.151 75.912L132.207 73.44L134.223 73.632L133.743 77.352C133.407 77.384 133.071 77.448 132.735 77.544C132.415 77.624 132.215 77.672 132.135 77.688C131.495 77.864 130.895 78 130.335 78.096C129.791 78.208 129.119 78.264 128.319 78.264ZM143.54 78.264C140.932 78.264 138.98 77.448 137.684 75.816C136.388 74.184 135.74 71.96 135.74 69.144C135.74 67.304 136.076 65.688 136.748 64.296C137.436 62.904 138.396 61.832 139.628 61.08C140.86 60.328 142.276 59.952 143.876 59.952C146.516 59.952 148.492 60.736 149.804 62.304C151.132 63.856 151.796 66.032 151.796 68.832C151.796 70.688 151.444 72.336 150.74 73.776C150.052 75.2 149.084 76.304 147.836 77.088C146.588 77.872 145.156 78.264 143.54 78.264ZM143.78 61.416C142.468 61.416 141.444 62.064 140.708 63.36C139.972 64.656 139.604 66.576 139.604 69.12C139.604 71.632 139.956 73.544 140.66 74.856C141.38 76.152 142.404 76.8 143.732 76.8C145.028 76.8 146.044 76.12 146.78 74.76C147.516 73.384 147.884 71.408 147.884 68.832C147.884 66.336 147.532 64.48 146.828 63.264C146.124 62.032 145.108 61.416 143.78 61.416ZM155.336 61.968L153.488 61.656V60.168H161.168V61.656L158.864 61.968V76.296L164 76.08L165.512 71.592L167.456 71.856L166.712 78H153.44V76.56L155.336 76.32V61.968ZM170.641 61.968L168.865 61.656V60.168H176.161V61.656L174.145 61.968V67.992H181.441V61.968L179.593 61.656V60.168H186.793V61.656L184.969 61.968V76.32L186.793 76.56V78H179.569V76.56L181.441 76.32V69.816H174.145V76.32L176.161 76.56V78H168.817V76.56L170.641 76.32V61.968ZM190.968 61.968L188.928 61.656V60.168H196.608V61.656L194.496 61.968V76.32L196.608 76.584V78H188.928V76.56L190.968 76.32V61.968ZM201.531 61.968L198.939 61.656V60.168H206.427L209.283 70.488L209.955 73.296L210.531 70.488L213.363 60.168H220.779V61.656L218.163 61.968L220.083 76.296L222.027 76.56V78H214.371V76.56L216.483 76.32L215.427 65.808L214.971 61.416L214.083 65.112L210.603 77.256H208.059L204.507 65.736L203.283 61.416L202.923 65.808L202.011 76.32L204.435 76.56V78H197.763V76.56L199.779 76.32L201.531 61.968ZM224.922 61.968L223.002 61.656V60.168H235.794L236.106 64.2H234.426L233.634 61.824L228.45 61.608V68.064L231.786 67.992L232.17 66.024H233.706V71.832H232.17L231.786 69.768L228.45 69.696V76.464L234.258 76.176L235.65 73.104L237.45 73.608L236.826 78H223.026V76.56L224.922 76.32V61.968ZM240.672 61.968L238.776 61.656V60.168H244.224L251.376 70.968L252.72 73.704V61.968L250.656 61.656V60.168H256.608V61.656L254.76 61.968V78H251.856L244.392 66.648L242.712 63.48V76.32L245.136 76.56V78H238.776V76.56L240.672 76.32V61.968ZM263.85 61.752L260.418 61.872L259.482 67.104H257.466L257.874 60.168H273.354L273.642 67.104H271.746L270.81 61.872L267.426 61.752V76.32L270.786 76.56V78H260.778V76.56L263.85 76.32V61.752ZM282.688 78.264C280.08 78.264 278.128 77.448 276.832 75.816C275.536 74.184 274.888 71.96 274.888 69.144C274.888 67.304 275.224 65.688 275.896 64.296C276.584 62.904 277.544 61.832 278.776 61.08C280.008 60.328 281.424 59.952 283.024 59.952C285.664 59.952 287.64 60.736 288.952 62.304C290.28 63.856 290.944 66.032 290.944 68.832C290.944 70.688 290.592 72.336 289.888 73.776C289.2 75.2 288.232 76.304 286.984 77.088C285.736 77.872 284.304 78.264 282.688 78.264ZM282.928 61.416C281.616 61.416 280.592 62.064 279.856 63.36C279.12 64.656 278.752 66.576 278.752 69.12C278.752 71.632 279.104 73.544 279.808 74.856C280.528 76.152 281.552 76.8 282.88 76.8C284.176 76.8 285.192 76.12 285.928 74.76C286.664 73.384 287.032 71.408 287.032 68.832C287.032 66.336 286.68 64.48 285.976 63.264C285.272 62.032 284.256 61.416 282.928 61.416Z" fill="#1A2A4A"/>
<path fill-rule="evenodd" clip-rule="evenodd" d="M84.347 58.344L75.164 66C75.6129 67.9768 75.6129 70.0292 75.164 72.006L84.347 79.656C85.9289 76.3269 86.7496 72.6873 86.7496 69.0015C86.7496 65.3157 85.9289 61.6761 84.347 58.347V58.344ZM72.656 91.35L65 82.164C63.0231 82.6129 60.9708 82.6129 58.994 82.164L51.344 91.347C54.6731 92.9289 58.3126 93.7496 61.9985 93.7496C65.6843 93.7496 69.3239 92.9289 72.653 91.347L72.656 91.35ZM39.65 79.656L48.836 72C48.387 70.0232 48.387 67.9708 48.836 65.994L39.653 58.35C38.0711 61.6791 37.2503 65.3187 37.2503 69.0045C37.2503 72.6903 38.0711 76.3299 39.653 79.659L39.65 79.656ZM51.344 46.65L59 55.836C60.9768 55.3871 63.0291 55.3871 65.006 55.836L72.656 46.653C69.3269 45.0711 65.6873 44.2504 62.0015 44.2504C58.3156 44.2504 54.6761 45.0711 51.347 46.653L51.344 46.65ZM77.315 44.07C79.2645 45.2705 81.0668 46.6952 82.685 48.315C84.3033 49.9315 85.727 51.7317 86.927 53.679C89.7541 58.2876 91.2505 63.5888 91.2505 68.9955C91.2505 74.4022 89.7541 79.7034 86.927 84.312C85.7264 86.2616 84.3017 88.0638 82.682 89.682C81.0655 91.3003 79.2652 92.724 77.318 93.924C72.709 96.7517 67.4072 98.2484 62 98.2484C56.5927 98.2484 51.2909 96.7517 46.682 93.924C44.7345 92.7231 42.9342 91.2984 41.318 89.679C39.6986 88.0627 38.2739 86.2625 37.073 84.315C34.2453 79.706 32.7485 74.4043 32.7485 68.997C32.7485 63.5897 34.2453 58.288 37.073 53.679C38.2738 51.7315 39.6985 49.9313 41.318 48.315C42.9342 46.6956 44.7345 45.2709 46.682 44.07C51.2906 41.2429 56.5918 39.7465 61.9985 39.7465C67.4051 39.7465 72.7063 41.2429 77.315 44.07ZM68.363 62.64C67.4237 61.6973 66.2861 60.9758 65.033 60.528C63.0712 59.8298 60.9287 59.8298 58.967 60.528C57.7138 60.9758 56.5762 61.6973 55.637 62.64C54.659 63.615 53.957 64.755 53.525 65.97C52.8267 67.9317 52.8267 70.0743 53.525 72.036C53.957 73.251 54.659 74.391 55.637 75.366C56.612 76.344 57.752 77.046 58.967 77.478C60.923 78.177 63.077 78.177 65.033 77.478C66.2861 77.0302 67.4237 76.3087 68.363 75.366C69.341 74.391 70.043 73.251 70.475 72.036C71.1729 70.0742 71.1729 67.9318 70.475 65.97C70.0271 64.7169 69.3056 63.5793 68.363 62.64Z" fill="#1A2A4A"/>
<defs>
<filter id="filter0_d_632_119" x="0" y="0" width="328" height="148" filterUnits="userSpaceOnUse" color-interpolation-filters="sRGB">
<feFlood flood-opacity="0" result="BackgroundImageFix"/>
<feColorMatrix in="SourceAlpha" type="matrix" values="0 0 0 0 0 0 0 0 0 0 0 0 0 0 0 0 0 0 127 0" result="hardAlpha"/>
<feOffset dy="4"/>
<feGaussianBlur stdDeviation="2"/>
<feComposite in2="hardAlpha" operator="out"/>
<feColorMatrix type="matrix" values="0 0 0 0 0 0 0 0 0 0 0 0 0 0 0 0 0 0 0.25 0"/>
<feBlend mode="normal" in2="BackgroundImageFix" result="effect1_dropShadow_632_119"/>
<feBlend mode="normal" in="SourceGraphic" in2="effect1_dropShadow_632_119" result="shape"/>
</filter>
</defs>
</svg>
