<svg width="328" height="148" viewBox="0 0 328 148" fill="none" xmlns="http://www.w3.org/2000/svg">
<g filter="url(#filter0_d_632_106)">
<rect x="4" width="320" height="140" rx="8" fill="white"/>
<rect x="4.4" y="0.4" width="319.2" height="139.2" rx="7.6" stroke="#3060BF" stroke-width="0.8"/>
</g>
<path fill-rule="evenodd" clip-rule="evenodd" d="M82.452 40.51C82.87 40.1137 83.424 39.8929 84 39.8929C84.576 39.8929 85.13 40.1137 85.548 40.51C91.9162 46.5576 100.398 49.874 109.179 49.75C109.657 49.7438 110.125 49.8902 110.515 50.1681C110.904 50.4459 111.195 50.8406 111.345 51.295C112.611 55.1535 113.254 59.1891 113.25 63.25C113.25 81.076 101.058 96.049 84.561 100.294C84.193 100.389 83.807 100.389 83.439 100.294C66.942 96.049 54.75 81.076 54.75 63.25C54.75 59.08 55.419 55.06 56.655 51.295C56.8044 50.8401 57.0949 50.4447 57.4845 50.1663C57.874 49.8879 58.3422 49.741 58.821 49.747L59.25 49.75C68.238 49.75 76.404 46.24 82.452 40.51ZM84 58.75C84.5967 58.75 85.169 58.9871 85.591 59.409C86.0129 59.831 86.25 60.4033 86.25 61V72.25C86.25 72.8467 86.0129 73.419 85.591 73.841C85.169 74.263 84.5967 74.5 84 74.5C83.4033 74.5 82.831 74.263 82.409 73.841C81.9871 73.419 81.75 72.8467 81.75 72.25V61C81.75 60.4033 81.9871 59.831 82.409 59.409C82.831 58.9871 83.4033 58.75 84 58.75ZM84 79C83.4033 79 82.831 79.2371 82.409 79.659C81.9871 80.081 81.75 80.6533 81.75 81.25V81.274C81.75 82.516 82.758 83.524 84 83.524H84.024C84.6207 83.524 85.193 83.2869 85.615 82.865C86.0369 82.443 86.274 81.8707 86.274 81.274V81.25C86.274 80.6533 86.0369 80.081 85.615 79.659C85.193 79.2371 84.6207 79 84.024 79H84Z" fill="#1A2A4A"/>
<path d="M157.509 61.072H161.181L166.725 77.32L168.117 77.56V79H161.037V77.56L162.837 77.32L161.901 74.2H155.685L154.749 77.344L156.693 77.56V79H150.573L150.549 77.56L151.989 77.32L157.509 61.072ZM159.165 65.128L158.733 63.256L158.277 65.152L156.141 72.52H161.421L159.165 65.128ZM174.937 79.264C174.073 79.264 173.297 79.192 172.609 79.048C171.921 78.904 171.153 78.712 170.305 78.472C169.745 78.312 169.369 78.224 169.177 78.208L169.393 73.768H171.337L171.865 76.864C172.073 77.088 172.441 77.288 172.969 77.464C173.513 77.64 174.129 77.728 174.817 77.728C175.889 77.728 176.689 77.496 177.217 77.032C177.761 76.552 178.033 75.888 178.033 75.04C178.033 74.48 177.873 74 177.553 73.6C177.233 73.184 176.793 72.816 176.233 72.496C175.673 72.16 174.905 71.776 173.929 71.344C172.601 70.736 171.497 70.016 170.617 69.184C169.753 68.336 169.321 67.192 169.321 65.752C169.321 64.856 169.553 64.048 170.017 63.328C170.481 62.592 171.169 62.016 172.081 61.6C173.009 61.168 174.137 60.952 175.465 60.952C176.249 60.952 176.937 61.008 177.529 61.12C178.137 61.232 178.793 61.384 179.497 61.576C179.913 61.688 180.225 61.76 180.433 61.792L180.289 65.992H178.369L177.865 63.04C177.721 62.896 177.433 62.76 177.001 62.632C176.569 62.488 176.089 62.416 175.561 62.416C174.601 62.416 173.873 62.64 173.377 63.088C172.897 63.52 172.657 64.104 172.657 64.84C172.657 65.432 172.833 65.944 173.185 66.376C173.553 66.808 173.993 67.176 174.505 67.48C175.017 67.768 175.825 68.184 176.929 68.728C177.825 69.16 178.593 69.584 179.233 70C179.873 70.416 180.425 70.96 180.889 71.632C181.353 72.288 181.585 73.064 181.585 73.96C181.585 74.84 181.361 75.68 180.913 76.48C180.481 77.28 179.761 77.944 178.753 78.472C177.761 79 176.489 79.264 174.937 79.264ZM189.398 79.264C188.534 79.264 187.758 79.192 187.07 79.048C186.382 78.904 185.614 78.712 184.766 78.472C184.206 78.312 183.83 78.224 183.638 78.208L183.854 73.768H185.798L186.326 76.864C186.534 77.088 186.902 77.288 187.43 77.464C187.974 77.64 188.59 77.728 189.278 77.728C190.35 77.728 191.15 77.496 191.678 77.032C192.222 76.552 192.494 75.888 192.494 75.04C192.494 74.48 192.334 74 192.014 73.6C191.694 73.184 191.254 72.816 190.694 72.496C190.134 72.16 189.366 71.776 188.39 71.344C187.062 70.736 185.958 70.016 185.078 69.184C184.214 68.336 183.782 67.192 183.782 65.752C183.782 64.856 184.014 64.048 184.478 63.328C184.942 62.592 185.63 62.016 186.542 61.6C187.47 61.168 188.598 60.952 189.926 60.952C190.71 60.952 191.398 61.008 191.99 61.12C192.598 61.232 193.254 61.384 193.958 61.576C194.374 61.688 194.686 61.76 194.894 61.792L194.75 65.992H192.83L192.326 63.04C192.182 62.896 191.894 62.76 191.462 62.632C191.03 62.488 190.55 62.416 190.022 62.416C189.062 62.416 188.334 62.64 187.838 63.088C187.358 63.52 187.118 64.104 187.118 64.84C187.118 65.432 187.294 65.944 187.646 66.376C188.014 66.808 188.454 67.176 188.966 67.48C189.478 67.768 190.286 68.184 191.39 68.728C192.286 69.16 193.054 69.584 193.694 70C194.334 70.416 194.886 70.96 195.35 71.632C195.814 72.288 196.046 73.064 196.046 73.96C196.046 74.84 195.822 75.68 195.374 76.48C194.942 77.28 194.222 77.944 193.214 78.472C192.222 79 190.95 79.264 189.398 79.264ZM199.562 62.968L197.642 62.656V61.168H210.434L210.746 65.2H209.066L208.274 62.824L203.09 62.608V69.064L206.426 68.992L206.81 67.024H208.346V72.832H206.81L206.426 70.768L203.09 70.696V77.464L208.898 77.176L210.29 74.104L212.09 74.608L211.466 79H197.666V77.56L199.562 77.32V62.968ZM202.97 59.008L206.09 55.432L208.514 56.944C207.97 57.568 207.298 58.168 206.498 58.744C205.714 59.304 205.042 59.696 204.482 59.92L202.97 59.008ZM215.289 62.968L213.489 62.656V61.168H216.993C217.521 61.168 218.233 61.136 219.129 61.072C219.337 61.056 219.649 61.04 220.065 61.024C220.497 61.008 220.881 61 221.217 61C224.161 61 226.361 61.736 227.817 63.208C229.289 64.68 230.025 66.768 230.025 69.472C230.025 71.36 229.657 73.04 228.921 74.512C228.201 75.984 227.169 77.136 225.825 77.968C224.481 78.784 222.913 79.192 221.121 79.192C220.657 79.192 219.929 79.16 218.937 79.096C218.009 79.032 217.377 79 217.041 79H213.393V77.56L215.289 77.32V62.968ZM218.769 77.392C219.313 77.536 220.073 77.608 221.049 77.608C222.649 77.576 223.905 76.936 224.817 75.688C225.729 74.424 226.185 72.536 226.185 70.024C226.185 67.64 225.737 65.8 224.841 64.504C223.945 63.192 222.553 62.536 220.665 62.536C220.265 62.536 219.881 62.56 219.513 62.608C219.161 62.656 218.913 62.688 218.769 62.704V77.392ZM233.859 62.968L231.819 62.656V61.168H239.499V62.656L237.387 62.968V77.32L239.499 77.584V79H231.819V77.56L233.859 77.32V62.968ZM249.102 79.264C246.494 79.264 244.542 78.448 243.246 76.816C241.95 75.184 241.302 72.96 241.302 70.144C241.302 68.304 241.638 66.688 242.31 65.296C242.998 63.904 243.958 62.832 245.19 62.08C246.422 61.328 247.838 60.952 249.438 60.952C252.078 60.952 254.054 61.736 255.366 63.304C256.694 64.856 257.358 67.032 257.358 69.832C257.358 71.688 257.006 73.336 256.302 74.776C255.614 76.2 254.646 77.304 253.398 78.088C252.15 78.872 250.718 79.264 249.102 79.264ZM249.342 62.416C248.03 62.416 247.006 63.064 246.27 64.36C245.534 65.656 245.166 67.576 245.166 70.12C245.166 72.632 245.518 74.544 246.222 75.856C246.942 77.152 247.966 77.8 249.294 77.8C250.59 77.8 251.606 77.12 252.342 75.76C253.078 74.384 253.446 72.408 253.446 69.832C253.446 67.336 253.094 65.48 252.39 64.264C251.686 63.032 250.67 62.416 249.342 62.416Z" fill="#1A2A4A"/>
<defs>
<filter id="filter0_d_632_106" x="0" y="0" width="328" height="148" filterUnits="userSpaceOnUse" color-interpolation-filters="sRGB">
<feFlood flood-opacity="0" result="BackgroundImageFix"/>
<feColorMatrix in="SourceAlpha" type="matrix" values="0 0 0 0 0 0 0 0 0 0 0 0 0 0 0 0 0 0 127 0" result="hardAlpha"/>
<feOffset dy="4"/>
<feGaussianBlur stdDeviation="2"/>
<feComposite in2="hardAlpha" operator="out"/>
<feColorMatrix type="matrix" values="0 0 0 0 0 0 0 0 0 0 0 0 0 0 0 0 0 0 0.25 0"/>
<feBlend mode="normal" in2="BackgroundImageFix" result="effect1_dropShadow_632_106"/>
<feBlend mode="normal" in="SourceGraphic" in2="effect1_dropShadow_632_106" result="shape"/>
</filter>
</defs>
</svg>
