<svg width="328" height="148" viewBox="0 0 328 148" fill="none" xmlns="http://www.w3.org/2000/svg">
<g filter="url(#filter0_d_632_105)">
<rect x="4" width="320" height="140" rx="8" fill="white"/>
<rect x="4.4" y="0.4" width="319.2" height="139.2" rx="7.6" stroke="#3060BF" stroke-width="0.8"/>
</g>
<path d="M160.998 44.968L159.198 44.656V43.168H162.702C163.23 43.168 163.942 43.136 164.838 43.072C165.046 43.056 165.358 43.04 165.774 43.024C166.206 43.008 166.59 43 166.926 43C169.87 43 172.07 43.736 173.526 45.208C174.998 46.68 175.734 48.768 175.734 51.472C175.734 53.36 175.366 55.04 174.63 56.512C173.91 57.984 172.878 59.136 171.534 59.968C170.19 60.784 168.622 61.192 166.83 61.192C166.366 61.192 165.638 61.16 164.646 61.096C163.718 61.032 163.086 61 162.75 61H159.102V59.56L160.998 59.32V44.968ZM164.478 59.392C165.022 59.536 165.782 59.608 166.758 59.608C168.358 59.576 169.614 58.936 170.526 57.688C171.438 56.424 171.894 54.536 171.894 52.024C171.894 49.64 171.446 47.8 170.55 46.504C169.654 45.192 168.262 44.536 166.374 44.536C165.974 44.536 165.59 44.56 165.222 44.608C164.87 44.656 164.622 44.688 164.478 44.704V59.392ZM179.568 44.968L177.528 44.656V43.168H185.208V44.656L183.096 44.968V59.32L185.208 59.584V61H177.528V59.56L179.568 59.32V44.968ZM187.227 59.56L189.123 59.32V44.968L187.323 44.632V43.168H190.803C191.107 43.168 191.443 43.16 191.811 43.144C192.179 43.128 192.459 43.112 192.651 43.096C193.483 43.032 194.171 43 194.715 43C196.363 43 197.683 43.168 198.675 43.504C199.667 43.84 200.387 44.352 200.835 45.04C201.283 45.728 201.507 46.632 201.507 47.752C201.507 48.856 201.211 49.88 200.619 50.824C200.027 51.768 199.171 52.416 198.051 52.768C198.691 53.04 199.259 53.536 199.755 54.256C200.251 54.976 200.779 55.912 201.339 57.064C201.739 57.848 202.043 58.416 202.251 58.768C202.475 59.104 202.691 59.296 202.899 59.344L203.691 59.584V61H199.611C199.355 61 199.083 60.744 198.795 60.232C198.523 59.704 198.163 58.88 197.715 57.76C197.187 56.448 196.731 55.424 196.347 54.688C195.963 53.952 195.555 53.496 195.123 53.32H192.651V59.32L194.859 59.56V61H187.227V59.56ZM194.859 51.856C195.771 51.856 196.483 51.528 196.995 50.872C197.507 50.216 197.763 49.232 197.763 47.92C197.763 46.752 197.507 45.888 196.995 45.328C196.499 44.768 195.635 44.488 194.403 44.488C193.955 44.488 193.571 44.512 193.251 44.56C192.947 44.592 192.747 44.608 192.651 44.608V51.808C192.843 51.84 193.307 51.856 194.043 51.856H194.859ZM206.42 44.968L204.5 44.656V43.168H217.292L217.604 47.2H215.924L215.132 44.824L209.948 44.608V51.064L213.284 50.992L213.668 49.024H215.204V54.832H213.668L213.284 52.768L209.948 52.696V59.464L215.756 59.176L217.148 56.104L218.948 56.608L218.324 61H204.524V59.56L206.42 59.32V44.968ZM222.459 44.968L220.419 44.656V43.168H228.099V44.656L225.987 44.968V59.32L228.099 59.584V61H220.419V59.56L222.459 59.32V44.968ZM235.95 44.752L232.518 44.872L231.582 50.104H229.566L229.974 43.168H245.454L245.742 50.104H243.846L242.91 44.872L239.526 44.752V59.32L242.886 59.56V61H232.878V59.56L235.95 59.32V44.752ZM254.788 61.264C252.18 61.264 250.228 60.448 248.932 58.816C247.636 57.184 246.988 54.96 246.988 52.144C246.988 50.304 247.324 48.688 247.996 47.296C248.684 45.904 249.644 44.832 250.876 44.08C252.108 43.328 253.524 42.952 255.124 42.952C257.764 42.952 259.74 43.736 261.052 45.304C262.38 46.856 263.044 49.032 263.044 51.832C263.044 53.688 262.692 55.336 261.988 56.776C261.3 58.2 260.332 59.304 259.084 60.088C257.836 60.872 256.404 61.264 254.788 61.264ZM255.028 44.416C253.716 44.416 252.692 45.064 251.956 46.36C251.22 47.656 250.852 49.576 250.852 52.12C250.852 54.632 251.204 56.544 251.908 57.856C252.628 59.152 253.652 59.8 254.98 59.8C256.276 59.8 257.292 59.12 258.028 57.76C258.764 56.384 259.132 54.408 259.132 51.832C259.132 49.336 258.78 47.48 258.076 46.264C257.372 45.032 256.356 44.416 255.028 44.416ZM270.857 61.264C269.993 61.264 269.217 61.192 268.529 61.048C267.841 60.904 267.073 60.712 266.225 60.472C265.665 60.312 265.289 60.224 265.097 60.208L265.313 55.768H267.257L267.785 58.864C267.993 59.088 268.361 59.288 268.889 59.464C269.433 59.64 270.049 59.728 270.737 59.728C271.809 59.728 272.609 59.496 273.137 59.032C273.681 58.552 273.953 57.888 273.953 57.04C273.953 56.48 273.793 56 273.473 55.6C273.153 55.184 272.713 54.816 272.153 54.496C271.593 54.16 270.825 53.776 269.849 53.344C268.521 52.736 267.417 52.016 266.537 51.184C265.673 50.336 265.241 49.192 265.241 47.752C265.241 46.856 265.473 46.048 265.937 45.328C266.401 44.592 267.089 44.016 268.001 43.6C268.929 43.168 270.057 42.952 271.385 42.952C272.169 42.952 272.857 43.008 273.449 43.12C274.057 43.232 274.713 43.384 275.417 43.576C275.833 43.688 276.145 43.76 276.353 43.792L276.209 47.992H274.289L273.785 45.04C273.641 44.896 273.353 44.76 272.921 44.632C272.489 44.488 272.009 44.416 271.481 44.416C270.521 44.416 269.793 44.64 269.297 45.088C268.817 45.52 268.577 46.104 268.577 46.84C268.577 47.432 268.753 47.944 269.105 48.376C269.473 48.808 269.913 49.176 270.425 49.48C270.937 49.768 271.745 50.184 272.849 50.728C273.745 51.16 274.513 51.584 275.153 52C275.793 52.416 276.345 52.96 276.809 53.632C277.273 54.288 277.505 55.064 277.505 55.96C277.505 56.84 277.281 57.68 276.833 58.48C276.401 59.28 275.681 59.944 274.673 60.472C273.681 61 272.409 61.264 270.857 61.264ZM155.878 80.968L154.102 80.656V79.168H161.398V80.656L159.382 80.968V86.992H166.678V80.968L164.83 80.656V79.168H172.03V80.656L170.206 80.968V95.32L172.03 95.56V97H164.806V95.56L166.678 95.32V88.816H159.382V95.32L161.398 95.56V97H154.054V95.56L155.878 95.32V80.968ZM182.301 97.192C179.869 97.192 178.061 96.584 176.877 95.368C175.693 94.152 175.101 92.24 175.101 89.632V80.968L173.517 80.656V79.168H180.765V80.656L178.725 80.992V89.944C178.725 93.752 180.077 95.656 182.781 95.656C184.109 95.656 185.093 95.168 185.733 94.192C186.373 93.2 186.693 91.816 186.693 90.04V80.992L184.629 80.656V79.168H190.629V80.656L188.997 80.968V89.848C188.997 92.344 188.389 94.192 187.173 95.392C185.973 96.592 184.349 97.192 182.301 97.192ZM194.737 80.968L192.145 80.656V79.168H199.633L202.489 89.488L203.161 92.296L203.737 89.488L206.569 79.168H213.985V80.656L211.369 80.968L213.289 95.296L215.233 95.56V97H207.577V95.56L209.689 95.32L208.633 84.808L208.177 80.416L207.289 84.112L203.809 96.256H201.265L197.713 84.736L196.489 80.416L196.129 84.808L195.217 95.32L197.641 95.56V97H190.969V95.56L192.985 95.32L194.737 80.968ZM221.847 79.072H225.519L231.063 95.32L232.455 95.56V97H225.375V95.56L227.175 95.32L226.239 92.2H220.023L219.087 95.344L221.031 95.56V97H214.911L214.887 95.56L216.327 95.32L221.847 79.072ZM223.503 83.128L223.071 81.256L222.615 83.152L220.479 90.52H225.759L223.503 83.128ZM235.003 80.968L233.107 80.656V79.168H238.555L245.707 89.968L247.051 92.704V80.968L244.987 80.656V79.168H250.939V80.656L249.091 80.968V97H246.187L238.723 85.648L237.043 82.48V95.32L239.467 95.56V97H233.107V95.56L235.003 95.32V80.968ZM259.932 97.264C257.324 97.264 255.372 96.448 254.076 94.816C252.78 93.184 252.132 90.96 252.132 88.144C252.132 86.304 252.468 84.688 253.14 83.296C253.828 81.904 254.788 80.832 256.02 80.08C257.252 79.328 258.668 78.952 260.268 78.952C262.908 78.952 264.884 79.736 266.196 81.304C267.524 82.856 268.188 85.032 268.188 87.832C268.188 89.688 267.836 91.336 267.132 92.776C266.444 94.2 265.476 95.304 264.228 96.088C262.98 96.872 261.548 97.264 259.932 97.264ZM260.172 80.416C258.86 80.416 257.836 81.064 257.1 82.36C256.364 83.656 255.996 85.576 255.996 88.12C255.996 90.632 256.348 92.544 257.052 93.856C257.772 95.152 258.796 95.8 260.124 95.8C261.42 95.8 262.436 95.12 263.172 93.76C263.908 92.384 264.276 90.408 264.276 87.832C264.276 85.336 263.924 83.48 263.22 82.264C262.516 81.032 261.5 80.416 260.172 80.416ZM276.001 97.264C275.137 97.264 274.361 97.192 273.673 97.048C272.985 96.904 272.217 96.712 271.369 96.472C270.809 96.312 270.433 96.224 270.241 96.208L270.457 91.768H272.401L272.929 94.864C273.137 95.088 273.505 95.288 274.033 95.464C274.577 95.64 275.193 95.728 275.881 95.728C276.953 95.728 277.753 95.496 278.281 95.032C278.825 94.552 279.097 93.888 279.097 93.04C279.097 92.48 278.937 92 278.617 91.6C278.297 91.184 277.857 90.816 277.297 90.496C276.737 90.16 275.969 89.776 274.993 89.344C273.665 88.736 272.561 88.016 271.681 87.184C270.817 86.336 270.385 85.192 270.385 83.752C270.385 82.856 270.617 82.048 271.081 81.328C271.545 80.592 272.233 80.016 273.145 79.6C274.073 79.168 275.201 78.952 276.529 78.952C277.313 78.952 278.001 79.008 278.593 79.12C279.201 79.232 279.857 79.384 280.561 79.576C280.977 79.688 281.289 79.76 281.497 79.792L281.353 83.992H279.433L278.929 81.04C278.785 80.896 278.497 80.76 278.065 80.632C277.633 80.488 277.153 80.416 276.625 80.416C275.665 80.416 274.937 80.64 274.441 81.088C273.961 81.52 273.721 82.104 273.721 82.84C273.721 83.432 273.897 83.944 274.249 84.376C274.617 84.808 275.057 85.176 275.569 85.48C276.081 85.768 276.889 86.184 277.993 86.728C278.889 87.16 279.657 87.584 280.297 88C280.937 88.416 281.489 88.96 281.953 89.632C282.417 90.288 282.649 91.064 282.649 91.96C282.649 92.84 282.425 93.68 281.977 94.48C281.545 95.28 280.825 95.944 279.817 96.472C278.825 97 277.553 97.264 276.001 97.264Z" fill="#1A2A4A"/>
<path d="M59.3989 53.125C59.3989 49.8429 60.7027 46.6953 63.0235 44.3746C65.3442 42.0538 68.4919 40.75 71.7739 40.75C75.056 40.75 78.2036 42.0538 80.5244 44.3746C82.8451 46.6953 84.1489 49.8429 84.1489 53.125C84.1489 56.4071 82.8451 59.5547 80.5244 61.8754C78.2036 64.1962 75.056 65.5 71.7739 65.5C68.4919 65.5 65.3442 64.1962 63.0235 61.8754C60.7027 59.5547 59.3989 56.4071 59.3989 53.125ZM88.6489 59.875C88.6489 58.5454 88.9108 57.2288 89.4196 56.0003C89.9285 54.7719 90.6743 53.6557 91.6145 52.7155C92.5547 51.7753 93.6708 51.0295 94.8993 50.5207C96.1277 50.0119 97.4443 49.75 98.7739 49.75C100.104 49.75 101.42 50.0119 102.649 50.5207C103.877 51.0295 104.993 51.7753 105.933 52.7155C106.874 53.6557 107.619 54.7719 108.128 56.0003C108.637 57.2288 108.899 58.5454 108.899 59.875C108.899 62.5603 107.832 65.1356 105.933 67.0345C104.035 68.9333 101.459 70 98.7739 70C96.0886 70 93.5133 68.9333 91.6145 67.0345C89.7157 65.1356 88.6489 62.5603 88.6489 59.875ZM50.3989 91.375C50.3989 85.706 52.6509 80.2692 56.6595 76.2606C60.6681 72.252 66.1049 70 71.7739 70C77.4429 70 82.8797 72.252 86.8883 76.2606C90.8969 80.2692 93.1489 85.706 93.1489 91.375V91.384L93.1459 91.741C93.1396 92.1225 93.0363 92.4962 92.8458 92.8268C92.6553 93.1574 92.3838 93.4342 92.0569 93.631C85.9345 97.3179 78.9207 99.2609 71.7739 99.25C64.3579 99.25 57.4159 97.198 51.4939 93.631C51.1665 93.4345 50.8944 93.1579 50.7034 92.8273C50.5123 92.4966 50.4086 92.1228 50.4019 91.741L50.3989 91.375ZM97.6489 91.384L97.6459 91.816C97.6292 92.8159 97.3904 93.7996 96.9469 94.696C102.184 95.019 107.415 93.9748 112.127 91.666C112.491 91.4879 112.801 91.2146 113.023 90.875C113.244 90.5355 113.37 90.1422 113.387 89.737C113.493 87.2207 112.947 84.7197 111.803 82.4763C110.658 80.2328 108.954 78.3229 106.855 76.9315C104.755 75.5401 102.332 74.7145 99.8202 74.5344C97.3081 74.3544 94.7921 74.8262 92.5159 75.904C95.8555 80.3698 97.6557 85.7987 97.6459 91.375L97.6489 91.384Z" fill="#1A2A4A"/>
<defs>
<filter id="filter0_d_632_105" x="0" y="0" width="328" height="148" filterUnits="userSpaceOnUse" color-interpolation-filters="sRGB">
<feFlood flood-opacity="0" result="BackgroundImageFix"/>
<feColorMatrix in="SourceAlpha" type="matrix" values="0 0 0 0 0 0 0 0 0 0 0 0 0 0 0 0 0 0 127 0" result="hardAlpha"/>
<feOffset dy="4"/>
<feGaussianBlur stdDeviation="2"/>
<feComposite in2="hardAlpha" operator="out"/>
<feColorMatrix type="matrix" values="0 0 0 0 0 0 0 0 0 0 0 0 0 0 0 0 0 0 0.25 0"/>
<feBlend mode="normal" in2="BackgroundImageFix" result="effect1_dropShadow_632_105"/>
<feBlend mode="normal" in="SourceGraphic" in2="effect1_dropShadow_632_105" result="shape"/>
</filter>
</defs>
</svg>
