<svg width="328" height="148" viewBox="0 0 328 148" fill="none" xmlns="http://www.w3.org/2000/svg">
<g filter="url(#filter0_d_632_126)">
<rect x="4" width="320" height="140" rx="8" fill="white"/>
<rect x="4.4" y="0.4" width="319.2" height="139.2" rx="7.6" stroke="#3060BF" stroke-width="0.8"/>
</g>
<path d="M111.917 65.64L110.217 65.38V64.14H116.617V65.38L114.857 65.64V77.6L116.617 77.82V79H110.217V77.8L111.917 77.6V65.64ZM119.9 65.64L118.32 65.38V64.14H122.86L128.82 73.14L129.94 75.42V65.64L128.22 65.38V64.14H133.18V65.38L131.64 65.64V79H129.22L123 69.54L121.6 66.9V77.6L123.62 77.8V79H118.32V77.8L119.9 77.6V65.64ZM135.934 65.64L134.294 65.38V64.14H145.334L145.534 67.76H143.934L143.194 65.56L138.874 65.34V71L141.854 70.94L142.234 69.18H143.514V74.26H142.254L141.854 72.46L138.874 72.38V77.6L141.934 77.8V79H134.394V77.8L135.934 77.6V65.64ZM146.796 77.8L148.376 77.6V65.64L146.876 65.36V64.14H149.776C150.029 64.14 150.309 64.1333 150.616 64.12C150.922 64.1067 151.156 64.0933 151.316 64.08C152.009 64.0267 152.582 64 153.036 64C154.409 64 155.509 64.14 156.336 64.42C157.162 64.7 157.762 65.1267 158.136 65.7C158.509 66.2733 158.696 67.0267 158.696 67.96C158.696 68.88 158.449 69.7333 157.956 70.52C157.462 71.3067 156.749 71.8467 155.816 72.14C156.349 72.3667 156.822 72.78 157.236 73.38C157.649 73.98 158.089 74.76 158.556 75.72C158.889 76.3733 159.142 76.8467 159.316 77.14C159.502 77.42 159.682 77.58 159.856 77.62L160.516 77.82V79H157.116C156.902 79 156.676 78.7867 156.436 78.36C156.209 77.92 155.909 77.2333 155.536 76.3C155.096 75.2067 154.716 74.3533 154.396 73.74C154.076 73.1267 153.736 72.7467 153.376 72.6H151.316V77.6L153.156 77.8V79H146.796V77.8ZM153.156 71.38C153.916 71.38 154.509 71.1067 154.936 70.56C155.362 70.0133 155.576 69.1933 155.576 68.1C155.576 67.1267 155.362 66.4067 154.936 65.94C154.522 65.4733 153.802 65.24 152.776 65.24C152.402 65.24 152.082 65.26 151.816 65.3C151.562 65.3267 151.396 65.34 151.316 65.34V71.34C151.476 71.3667 151.862 71.38 152.476 71.38H153.156ZM165.89 64.06H168.95L173.57 77.6L174.73 77.8V79H168.83V77.8L170.33 77.6L169.55 75H164.37L163.59 77.62L165.21 77.8V79H160.11L160.09 77.8L161.29 77.6L165.89 64.06ZM167.27 67.44L166.91 65.88L166.53 67.46L164.75 73.6H169.15L167.27 67.44ZM176.833 65.64L175.233 65.38V64.14H185.893L186.153 67.5H184.753L184.093 65.52L179.773 65.34V70.72L182.553 70.66L182.873 69.02H184.153V73.86H182.873L182.553 72.14L179.773 72.08V77.72L184.613 77.48L185.773 74.92L187.273 75.34L186.753 79H175.253V77.8L176.833 77.6V65.64ZM193.518 79.22C192.798 79.22 192.151 79.16 191.578 79.04C191.005 78.92 190.365 78.76 189.658 78.56C189.191 78.4267 188.878 78.3533 188.718 78.34L188.898 74.64H190.518L190.958 77.22C191.131 77.4067 191.438 77.5733 191.878 77.72C192.331 77.8667 192.845 77.94 193.418 77.94C194.311 77.94 194.978 77.7467 195.418 77.36C195.871 76.96 196.098 76.4067 196.098 75.7C196.098 75.2333 195.965 74.8333 195.698 74.5C195.431 74.1533 195.065 73.8467 194.598 73.58C194.131 73.3 193.491 72.98 192.678 72.62C191.571 72.1133 190.651 71.5133 189.918 70.82C189.198 70.1133 188.838 69.16 188.838 67.96C188.838 67.2133 189.031 66.54 189.418 65.94C189.805 65.3267 190.378 64.8467 191.138 64.5C191.911 64.14 192.851 63.96 193.958 63.96C194.611 63.96 195.185 64.0067 195.678 64.1C196.185 64.1933 196.731 64.32 197.318 64.48C197.665 64.5733 197.925 64.6333 198.098 64.66L197.978 68.16H196.378L195.958 65.7C195.838 65.58 195.598 65.4667 195.238 65.36C194.878 65.24 194.478 65.18 194.038 65.18C193.238 65.18 192.631 65.3667 192.218 65.74C191.818 66.1 191.618 66.5867 191.618 67.2C191.618 67.6933 191.765 68.12 192.058 68.48C192.365 68.84 192.731 69.1467 193.158 69.4C193.585 69.64 194.258 69.9867 195.178 70.44C195.925 70.8 196.565 71.1533 197.098 71.5C197.631 71.8467 198.091 72.3 198.478 72.86C198.865 73.4067 199.058 74.0533 199.058 74.8C199.058 75.5333 198.871 76.2333 198.498 76.9C198.138 77.5667 197.538 78.12 196.698 78.56C195.871 79 194.811 79.22 193.518 79.22ZM205.269 65.46L202.409 65.56L201.629 69.92H199.949L200.289 64.14H213.189L213.429 69.92H211.849L211.069 65.56L208.249 65.46V77.6L211.049 77.8V79H202.709V77.8L205.269 77.6V65.46ZM214.647 77.8L216.227 77.6V65.64L214.727 65.36V64.14H217.627C217.881 64.14 218.161 64.1333 218.467 64.12C218.774 64.1067 219.007 64.0933 219.167 64.08C219.861 64.0267 220.434 64 220.887 64C222.261 64 223.361 64.14 224.187 64.42C225.014 64.7 225.614 65.1267 225.987 65.7C226.361 66.2733 226.547 67.0267 226.547 67.96C226.547 68.88 226.301 69.7333 225.807 70.52C225.314 71.3067 224.601 71.8467 223.667 72.14C224.201 72.3667 224.674 72.78 225.087 73.38C225.501 73.98 225.941 74.76 226.407 75.72C226.741 76.3733 226.994 76.8467 227.167 77.14C227.354 77.42 227.534 77.58 227.707 77.62L228.367 77.82V79H224.967C224.754 79 224.527 78.7867 224.287 78.36C224.061 77.92 223.761 77.2333 223.387 76.3C222.947 75.2067 222.567 74.3533 222.247 73.74C221.927 73.1267 221.587 72.7467 221.227 72.6H219.167V77.6L221.007 77.8V79H214.647V77.8ZM221.007 71.38C221.767 71.38 222.361 71.1067 222.787 70.56C223.214 70.0133 223.427 69.1933 223.427 68.1C223.427 67.1267 223.214 66.4067 222.787 65.94C222.374 65.4733 221.654 65.24 220.627 65.24C220.254 65.24 219.934 65.26 219.667 65.3C219.414 65.3267 219.247 65.34 219.167 65.34V71.34C219.327 71.3667 219.714 71.38 220.327 71.38H221.007ZM235.981 79.16C233.955 79.16 232.448 78.6533 231.461 77.64C230.475 76.6267 229.981 75.0333 229.981 72.86V65.64L228.661 65.38V64.14H234.701V65.38L233.001 65.66V73.12C233.001 76.2933 234.128 77.88 236.381 77.88C237.488 77.88 238.308 77.4733 238.841 76.66C239.375 75.8333 239.641 74.68 239.641 73.2V65.66L237.921 65.38V64.14H242.921V65.38L241.561 65.64V73.04C241.561 75.12 241.055 76.66 240.041 77.66C239.041 78.66 237.688 79.16 235.981 79.16ZM248.785 65.46L245.925 65.56L245.145 69.92H243.465L243.805 64.14H256.705L256.945 69.92H255.365L254.585 65.56L251.765 65.46V77.6L254.565 77.8V79H246.225V77.8L248.785 77.6V65.46ZM265.083 79.16C263.056 79.16 261.549 78.6533 260.563 77.64C259.576 76.6267 259.083 75.0333 259.083 72.86V65.64L257.763 65.38V64.14H263.803V65.38L262.103 65.66V73.12C262.103 76.2933 263.229 77.88 265.483 77.88C266.589 77.88 267.409 77.4733 267.943 76.66C268.476 75.8333 268.743 74.68 268.743 73.2V65.66L267.023 65.38V64.14H272.023V65.38L270.663 65.64V73.04C270.663 75.12 270.156 76.66 269.143 77.66C268.143 78.66 266.789 79.16 265.083 79.16ZM273.026 77.8L274.606 77.6V65.64L273.106 65.36V64.14H276.006C276.259 64.14 276.539 64.1333 276.846 64.12C277.153 64.1067 277.386 64.0933 277.546 64.08C278.239 64.0267 278.813 64 279.266 64C280.639 64 281.739 64.14 282.566 64.42C283.393 64.7 283.993 65.1267 284.366 65.7C284.739 66.2733 284.926 67.0267 284.926 67.96C284.926 68.88 284.679 69.7333 284.186 70.52C283.693 71.3067 282.979 71.8467 282.046 72.14C282.579 72.3667 283.053 72.78 283.466 73.38C283.879 73.98 284.319 74.76 284.786 75.72C285.119 76.3733 285.373 76.8467 285.546 77.14C285.733 77.42 285.913 77.58 286.086 77.62L286.746 77.82V79H283.346C283.133 79 282.906 78.7867 282.666 78.36C282.439 77.92 282.139 77.2333 281.766 76.3C281.326 75.2067 280.946 74.3533 280.626 73.74C280.306 73.1267 279.966 72.7467 279.606 72.6H277.546V77.6L279.386 77.8V79H273.026V77.8ZM279.386 71.38C280.146 71.38 280.739 71.1067 281.166 70.56C281.593 70.0133 281.806 69.1933 281.806 68.1C281.806 67.1267 281.593 66.4067 281.166 65.94C280.753 65.4733 280.033 65.24 279.006 65.24C278.633 65.24 278.313 65.26 278.046 65.3C277.793 65.3267 277.626 65.34 277.546 65.34V71.34C277.706 71.3667 278.093 71.38 278.706 71.38H279.386ZM292.12 64.06H295.18L299.8 77.6L300.96 77.8V79H295.06V77.8L296.56 77.6L295.78 75H290.6L289.82 77.62L291.44 77.8V79H286.34L286.32 77.8L287.52 77.6L292.12 64.06ZM293.5 67.44L293.14 65.88L292.76 67.46L290.98 73.6H295.38L293.5 67.44Z" fill="#1A2A4A"/>
<path fill-rule="evenodd" clip-rule="evenodd" d="M29 40.75C28.4033 40.75 27.831 40.9871 27.409 41.409C26.9871 41.831 26.75 42.4033 26.75 43C26.75 43.5967 26.9871 44.169 27.409 44.591C27.831 45.0129 28.4033 45.25 29 45.25V94.75H26.75C26.1533 94.75 25.581 94.9871 25.159 95.409C24.7371 95.831 24.5 96.4033 24.5 97C24.5 97.5967 24.7371 98.169 25.159 98.591C25.581 99.0129 26.1533 99.25 26.75 99.25H65V45.25C65.5967 45.25 66.169 45.0129 66.591 44.591C67.0129 44.169 67.25 43.5967 67.25 43C67.25 42.4033 67.0129 41.831 66.591 41.409C66.169 40.9871 65.5967 40.75 65 40.75H29ZM40.25 92.5V85.75C40.25 85.1533 40.4871 84.581 40.909 84.159C41.331 83.7371 41.9033 83.5 42.5 83.5H51.5C52.0967 83.5 52.669 83.7371 53.091 84.159C53.5129 84.581 53.75 85.1533 53.75 85.75V92.5C53.75 93.0967 53.5129 93.669 53.091 94.091C52.669 94.5129 52.0967 94.75 51.5 94.75H42.5C41.9033 94.75 41.331 94.5129 40.909 94.091C40.4871 93.669 40.25 93.0967 40.25 92.5ZM38 54.25C38 53.6533 38.2371 53.081 38.659 52.659C39.081 52.2371 39.6533 52 40.25 52H42.5C43.0967 52 43.669 52.2371 44.091 52.659C44.5129 53.081 44.75 53.6533 44.75 54.25C44.75 54.8467 44.5129 55.419 44.091 55.841C43.669 56.2629 43.0967 56.5 42.5 56.5H40.25C39.6533 56.5 39.081 56.2629 38.659 55.841C38.2371 55.419 38 54.8467 38 54.25ZM40.25 61C39.6533 61 39.081 61.2371 38.659 61.659C38.2371 62.081 38 62.6533 38 63.25C38 63.8467 38.2371 64.419 38.659 64.841C39.081 65.2629 39.6533 65.5 40.25 65.5H42.5C43.0967 65.5 43.669 65.2629 44.091 64.841C44.5129 64.419 44.75 63.8467 44.75 63.25C44.75 62.6533 44.5129 62.081 44.091 61.659C43.669 61.2371 43.0967 61 42.5 61H40.25ZM38 72.25C38 71.6533 38.2371 71.081 38.659 70.659C39.081 70.2371 39.6533 70 40.25 70H42.5C43.0967 70 43.669 70.2371 44.091 70.659C44.5129 71.081 44.75 71.6533 44.75 72.25C44.75 72.8467 44.5129 73.419 44.091 73.841C43.669 74.2629 43.0967 74.5 42.5 74.5H40.25C39.6533 74.5 39.081 74.2629 38.659 73.841C38.2371 73.419 38 72.8467 38 72.25ZM51.5 52C50.9033 52 50.331 52.2371 49.909 52.659C49.4871 53.081 49.25 53.6533 49.25 54.25C49.25 54.8467 49.4871 55.419 49.909 55.841C50.331 56.2629 50.9033 56.5 51.5 56.5H53.75C54.3467 56.5 54.919 56.2629 55.341 55.841C55.7629 55.419 56 54.8467 56 54.25C56 53.6533 55.7629 53.081 55.341 52.659C54.919 52.2371 54.3467 52 53.75 52H51.5ZM49.25 63.25C49.25 62.6533 49.4871 62.081 49.909 61.659C50.331 61.2371 50.9033 61 51.5 61H53.75C54.3467 61 54.919 61.2371 55.341 61.659C55.7629 62.081 56 62.6533 56 63.25C56 63.8467 55.7629 64.419 55.341 64.841C54.919 65.2629 54.3467 65.5 53.75 65.5H51.5C50.9033 65.5 50.331 65.2629 49.909 64.841C49.4871 64.419 49.25 63.8467 49.25 63.25ZM51.5 70C50.9033 70 50.331 70.2371 49.909 70.659C49.4871 71.081 49.25 71.6533 49.25 72.25C49.25 72.8467 49.4871 73.419 49.909 73.841C50.331 74.2629 50.9033 74.5 51.5 74.5H53.75C54.3467 74.5 54.919 74.2629 55.341 73.841C55.7629 73.419 56 72.8467 56 72.25C56 71.6533 55.7629 71.081 55.341 70.659C54.919 70.2371 54.3467 70 53.75 70H51.5ZM69.5 54.25V99.25H85.25C85.8467 99.25 86.419 99.0129 86.841 98.591C87.2629 98.169 87.5 97.5967 87.5 97C87.5 96.4033 87.2629 95.831 86.841 95.409C86.419 94.9871 85.8467 94.75 85.25 94.75H83V58.75C83.5967 58.75 84.169 58.5129 84.591 58.091C85.0129 57.669 85.25 57.0967 85.25 56.5C85.25 55.9033 85.0129 55.331 84.591 54.909C84.169 54.4871 83.5967 54.25 83 54.25H69.5ZM74 67.75C74 67.1533 74.2371 66.581 74.659 66.159C75.081 65.7371 75.6533 65.5 76.25 65.5H76.274C76.8707 65.5 77.443 65.7371 77.865 66.159C78.2869 66.581 78.524 67.1533 78.524 67.75V67.774C78.524 68.3707 78.2869 68.943 77.865 69.365C77.443 69.7869 76.8707 70.024 76.274 70.024H76.25C75.6533 70.024 75.081 69.7869 74.659 69.365C74.2371 68.943 74 68.3707 74 67.774V67.75ZM76.25 74.5C75.6533 74.5 75.081 74.7371 74.659 75.159C74.2371 75.581 74 76.1533 74 76.75V76.774C74 78.016 75.008 79.024 76.25 79.024H76.274C76.8707 79.024 77.443 78.7869 77.865 78.365C78.2869 77.943 78.524 77.3707 78.524 76.774V76.75C78.524 76.1533 78.2869 75.581 77.865 75.159C77.443 74.7371 76.8707 74.5 76.274 74.5H76.25ZM74 85.75C74 85.1533 74.2371 84.581 74.659 84.159C75.081 83.7371 75.6533 83.5 76.25 83.5H76.274C76.8707 83.5 77.443 83.7371 77.865 84.159C78.2869 84.581 78.524 85.1533 78.524 85.75V85.774C78.524 86.3707 78.2869 86.943 77.865 87.365C77.443 87.7869 76.8707 88.024 76.274 88.024H76.25C75.6533 88.024 75.081 87.7869 74.659 87.365C74.2371 86.943 74 86.3707 74 85.774V85.75Z" fill="#1A2A4A"/>
<defs>
<filter id="filter0_d_632_126" x="0" y="0" width="328" height="148" filterUnits="userSpaceOnUse" color-interpolation-filters="sRGB">
<feFlood flood-opacity="0" result="BackgroundImageFix"/>
<feColorMatrix in="SourceAlpha" type="matrix" values="0 0 0 0 0 0 0 0 0 0 0 0 0 0 0 0 0 0 127 0" result="hardAlpha"/>
<feOffset dy="4"/>
<feGaussianBlur stdDeviation="2"/>
<feComposite in2="hardAlpha" operator="out"/>
<feColorMatrix type="matrix" values="0 0 0 0 0 0 0 0 0 0 0 0 0 0 0 0 0 0 0.25 0"/>
<feBlend mode="normal" in2="BackgroundImageFix" result="effect1_dropShadow_632_126"/>
<feBlend mode="normal" in="SourceGraphic" in2="effect1_dropShadow_632_126" result="shape"/>
</filter>
</defs>
</svg>
