<svg width="328" height="148" viewBox="0 0 328 148" fill="none" xmlns="http://www.w3.org/2000/svg">
<g filter="url(#filter0_d_632_71)">
<rect x="4" width="320" height="140" rx="8" fill="white"/>
<rect x="4.4" y="0.4" width="319.2" height="139.2" rx="7.6" stroke="#3060BF" stroke-width="0.8"/>
</g>
<path d="M127.012 62.968L124.972 62.656V61.168H132.652V62.656L130.54 62.968V77.32L132.652 77.584V79H124.972V77.56L127.012 77.32V62.968ZM136.591 62.968L134.695 62.656V61.168H140.143L147.295 71.968L148.639 74.704V62.968L146.575 62.656V61.168H152.527V62.656L150.679 62.968V79H147.775L140.311 67.648L138.631 64.48V77.32L141.055 77.56V79H134.695V77.56L136.591 77.32V62.968ZM159.768 62.752L156.336 62.872L155.4 68.104H153.384L153.792 61.168H169.272L169.56 68.104H167.664L166.728 62.872L163.344 62.752V77.32L166.704 77.56V79H156.696V77.56L159.768 77.32V62.752ZM172.918 62.968L170.998 62.656V61.168H183.79L184.102 65.2H182.422L181.63 62.824L176.446 62.608V69.064L179.782 68.992L180.166 67.024H181.702V72.832H180.166L179.782 70.768L176.446 70.696V77.464L182.254 77.176L183.646 74.104L185.446 74.608L184.822 79H171.022V77.56L172.918 77.32V62.968ZM195.077 79.264C193.317 79.264 191.797 78.88 190.517 78.112C189.253 77.328 188.293 76.256 187.637 74.896C186.981 73.536 186.653 72 186.653 70.288C186.653 68.32 187.029 66.632 187.781 65.224C188.549 63.816 189.629 62.752 191.021 62.032C192.413 61.312 194.037 60.952 195.893 60.952C197.637 60.952 199.597 61.2 201.773 61.696L201.509 66.16H199.085L198.437 63.088C198.277 62.928 197.973 62.784 197.525 62.656C197.077 62.512 196.493 62.44 195.773 62.44C194.205 62.44 192.973 63.08 192.077 64.36C191.181 65.624 190.733 67.456 190.733 69.856C190.733 72.208 191.117 74.112 191.885 75.568C192.653 77.008 193.821 77.728 195.389 77.728C196.029 77.728 196.629 77.648 197.189 77.488C197.749 77.328 198.173 77.12 198.461 76.864V71.704L195.917 71.464V69.856H203.213V71.464L201.941 71.68V78.04C201.605 78.056 200.997 78.192 200.117 78.448C199.093 78.72 198.213 78.92 197.477 79.048C196.757 79.192 195.957 79.264 195.077 79.264ZM204.608 77.56L206.504 77.32V62.968L204.704 62.632V61.168H208.184C208.488 61.168 208.824 61.16 209.192 61.144C209.56 61.128 209.84 61.112 210.032 61.096C210.864 61.032 211.552 61 212.096 61C213.744 61 215.064 61.168 216.056 61.504C217.048 61.84 217.768 62.352 218.216 63.04C218.664 63.728 218.888 64.632 218.888 65.752C218.888 66.856 218.592 67.88 218 68.824C217.408 69.768 216.552 70.416 215.432 70.768C216.072 71.04 216.64 71.536 217.136 72.256C217.632 72.976 218.16 73.912 218.72 75.064C219.12 75.848 219.424 76.416 219.632 76.768C219.856 77.104 220.072 77.296 220.28 77.344L221.072 77.584V79H216.992C216.736 79 216.464 78.744 216.176 78.232C215.904 77.704 215.544 76.88 215.096 75.76C214.568 74.448 214.112 73.424 213.728 72.688C213.344 71.952 212.936 71.496 212.504 71.32H210.032V77.32L212.24 77.56V79H204.608V77.56ZM212.24 69.856C213.152 69.856 213.864 69.528 214.376 68.872C214.888 68.216 215.144 67.232 215.144 65.92C215.144 64.752 214.888 63.888 214.376 63.328C213.88 62.768 213.016 62.488 211.784 62.488C211.336 62.488 210.952 62.512 210.632 62.56C210.328 62.592 210.128 62.608 210.032 62.608V69.808C210.224 69.84 210.688 69.856 211.424 69.856H212.24ZM224.113 62.968L222.073 62.656V61.168H229.753V62.656L227.641 62.968V77.32L229.753 77.584V79H222.073V77.56L224.113 77.32V62.968ZM233.668 62.968L231.868 62.656V61.168H235.372C235.9 61.168 236.612 61.136 237.508 61.072C237.716 61.056 238.028 61.04 238.444 61.024C238.876 61.008 239.26 61 239.596 61C242.54 61 244.74 61.736 246.196 63.208C247.668 64.68 248.404 66.768 248.404 69.472C248.404 71.36 248.036 73.04 247.3 74.512C246.58 75.984 245.548 77.136 244.204 77.968C242.86 78.784 241.292 79.192 239.5 79.192C239.036 79.192 238.308 79.16 237.316 79.096C236.388 79.032 235.756 79 235.42 79H231.772V77.56L233.668 77.32V62.968ZM237.148 77.392C237.692 77.536 238.452 77.608 239.428 77.608C241.028 77.576 242.284 76.936 243.196 75.688C244.108 74.424 244.564 72.536 244.564 70.024C244.564 67.64 244.116 65.8 243.22 64.504C242.324 63.192 240.932 62.536 239.044 62.536C238.644 62.536 238.26 62.56 237.892 62.608C237.54 62.656 237.292 62.688 237.148 62.704V77.392ZM255.646 61.072H259.318L264.862 77.32L266.254 77.56V79H259.174V77.56L260.974 77.32L260.038 74.2H253.822L252.886 77.344L254.83 77.56V79H248.71L248.686 77.56L250.126 77.32L255.646 61.072ZM257.302 65.128L256.87 63.256L256.414 65.152L254.278 72.52H259.558L257.302 65.128ZM268.778 62.968L266.978 62.656V61.168H270.482C271.01 61.168 271.722 61.136 272.618 61.072C272.826 61.056 273.138 61.04 273.554 61.024C273.986 61.008 274.37 61 274.706 61C277.65 61 279.85 61.736 281.306 63.208C282.778 64.68 283.514 66.768 283.514 69.472C283.514 71.36 283.146 73.04 282.41 74.512C281.69 75.984 280.658 77.136 279.314 77.968C277.97 78.784 276.402 79.192 274.61 79.192C274.146 79.192 273.418 79.16 272.426 79.096C271.498 79.032 270.866 79 270.53 79H266.882V77.56L268.778 77.32V62.968ZM272.258 77.392C272.802 77.536 273.562 77.608 274.538 77.608C276.138 77.576 277.394 76.936 278.306 75.688C279.218 74.424 279.674 72.536 279.674 70.024C279.674 67.64 279.226 65.8 278.33 64.504C277.434 63.192 276.042 62.536 274.154 62.536C273.754 62.536 273.37 62.56 273.002 62.608C272.65 62.656 272.402 62.688 272.258 62.704V77.392ZM287.036 62.968L285.116 62.656V61.168H297.908L298.22 65.2H296.54L295.748 62.824L290.564 62.608V69.064L293.9 68.992L294.284 67.024H295.82V72.832H294.284L293.9 70.768L290.564 70.696V77.464L296.372 77.176L297.764 74.104L299.564 74.608L298.94 79H285.14V77.56L287.036 77.32V62.968Z" fill="#1A2A4A"/>
<path fill-rule="evenodd" clip-rule="evenodd" d="M69.899 40.75C70.4957 40.75 71.068 40.9871 71.49 41.409C71.9119 41.831 72.149 42.4033 72.149 43V45.268C81.3747 45.406 90.5671 46.4104 99.605 48.268C100.152 48.3791 100.639 48.6898 100.97 49.1397C101.301 49.5896 101.452 50.1465 101.396 50.7021C101.339 51.2577 101.077 51.7723 100.662 52.1458C100.247 52.5193 99.7075 52.7251 99.149 52.723H93.395L100.817 83.095C100.936 83.5803 100.89 84.0914 100.686 84.5477C100.482 85.004 100.133 85.3795 99.692 85.615C96.7565 87.1854 93.478 88.0048 90.149 88C86.8199 88.0048 83.5414 87.1854 80.606 85.615C80.1652 85.3795 79.8154 85.004 79.6117 84.5477C79.408 84.0914 79.362 83.5803 79.481 83.095L86.903 52.723H72.149V92.563C76.028 92.791 79.751 93.592 83.24 94.891C83.7347 95.0749 84.1491 95.4269 84.4105 95.8854C84.672 96.344 84.7639 96.8798 84.6703 97.3993C84.5766 97.9187 84.3033 98.3887 83.8981 98.727C83.493 99.0654 82.9818 99.2505 82.454 99.25H57.344C56.8161 99.2505 56.3049 99.0654 55.8998 98.727C55.4946 98.3887 55.2213 97.9187 55.1276 97.3993C55.034 96.8798 55.1259 96.344 55.3874 95.8854C55.6489 95.4269 56.0632 95.0749 56.558 94.891C60.044 93.592 63.77 92.791 67.649 92.566V52.72H52.895L60.317 83.092C60.4359 83.5773 60.3899 84.0884 60.1862 84.5447C59.9825 85.001 59.6327 85.3765 59.192 85.612C56.2568 87.1834 52.9783 88.0038 49.649 88C46.3199 88.0048 43.0414 87.1854 40.106 85.615C39.6652 85.3795 39.3154 85.004 39.1117 84.5477C38.908 84.0914 38.862 83.5803 38.981 83.095L46.403 52.723H40.649C40.0905 52.7251 39.5511 52.5193 39.1359 52.1458C38.7207 51.7723 38.4592 51.2577 38.4023 50.7021C38.3455 50.1465 38.4973 49.5896 38.8282 49.1397C39.1592 48.6898 39.6456 48.3791 40.193 48.268C49.2308 46.4104 58.4232 45.406 67.649 45.268V43C67.649 42.4033 67.886 41.831 68.308 41.409C68.7299 40.9871 69.3022 40.75 69.899 40.75ZM84.533 81.379L90.149 58.393L95.765 81.379H84.533ZM55.265 81.379L49.649 58.393L44.033 81.379H55.265Z" fill="#1A2A4A"/>
<defs>
<filter id="filter0_d_632_71" x="0" y="0" width="328" height="148" filterUnits="userSpaceOnUse" color-interpolation-filters="sRGB">
<feFlood flood-opacity="0" result="BackgroundImageFix"/>
<feColorMatrix in="SourceAlpha" type="matrix" values="0 0 0 0 0 0 0 0 0 0 0 0 0 0 0 0 0 0 127 0" result="hardAlpha"/>
<feOffset dy="4"/>
<feGaussianBlur stdDeviation="2"/>
<feComposite in2="hardAlpha" operator="out"/>
<feColorMatrix type="matrix" values="0 0 0 0 0 0 0 0 0 0 0 0 0 0 0 0 0 0 0.25 0"/>
<feBlend mode="normal" in2="BackgroundImageFix" result="effect1_dropShadow_632_71"/>
<feBlend mode="normal" in="SourceGraphic" in2="effect1_dropShadow_632_71" result="shape"/>
</filter>
</defs>
</svg>
