<svg width="328" height="148" viewBox="0 0 328 148" fill="none" xmlns="http://www.w3.org/2000/svg">
<g filter="url(#filter0_d_632_120)">
<rect x="4" width="320" height="140" rx="8" fill="white"/>
</g>
<path d="M125.137 61.968L122.545 61.656V60.168H130.033L132.889 70.488L133.561 73.296L134.137 70.488L136.969 60.168H144.385V61.656L141.769 61.968L143.689 76.296L145.633 76.56V78H137.977V76.56L140.089 76.32L139.033 65.808L138.577 61.416L137.689 65.112L134.209 77.256H131.665L128.113 65.736L126.889 61.416L126.529 65.808L125.617 76.32L128.041 76.56V78H121.369V76.56L123.385 76.32L125.137 61.968ZM148.527 61.968L146.607 61.656V60.168H159.399L159.711 64.2H158.031L157.239 61.824L152.055 61.608V68.064L155.391 67.992L155.775 66.024H157.311V71.832H155.775L155.391 69.768L152.055 69.696V76.464L157.863 76.176L159.255 73.104L161.055 73.608L160.431 78H146.631V76.56L148.527 76.32V61.968ZM164.278 61.968L162.43 61.656V60.168H170.11V61.656L167.806 61.968V76.296L172.942 76.08L174.454 71.592L176.398 71.856L175.654 78H162.382V76.56L164.278 76.32V61.968ZM179.583 61.968L177.807 61.656V60.168H185.103V61.656L183.087 61.968V67.992H190.383V61.968L188.535 61.656V60.168H195.735V61.656L193.911 61.968V76.32L195.735 76.56V78H188.511V76.56L190.383 76.32V69.816H183.087V76.32L185.103 76.56V78H177.759V76.56L179.583 76.32V61.968ZM205.286 78.264C202.678 78.264 200.726 77.448 199.43 75.816C198.134 74.184 197.486 71.96 197.486 69.144C197.486 67.304 197.822 65.688 198.494 64.296C199.182 62.904 200.142 61.832 201.374 61.08C202.606 60.328 204.022 59.952 205.622 59.952C208.262 59.952 210.238 60.736 211.55 62.304C212.878 63.856 213.542 66.032 213.542 68.832C213.542 70.688 213.19 72.336 212.486 73.776C211.798 75.2 210.83 76.304 209.582 77.088C208.334 77.872 206.902 78.264 205.286 78.264ZM205.526 61.416C204.214 61.416 203.19 62.064 202.454 63.36C201.718 64.656 201.35 66.576 201.35 69.12C201.35 71.632 201.702 73.544 202.406 74.856C203.126 76.152 204.15 76.8 205.478 76.8C206.774 76.8 207.79 76.12 208.526 74.76C209.262 73.384 209.63 71.408 209.63 68.832C209.63 66.336 209.278 64.48 208.574 63.264C207.87 62.032 206.854 61.416 205.526 61.416ZM215.163 76.56L217.059 76.32V61.968L215.259 61.632V60.168H218.739C219.043 60.168 219.379 60.16 219.747 60.144C220.115 60.128 220.395 60.112 220.587 60.096C221.419 60.032 222.107 60 222.651 60C224.299 60 225.619 60.168 226.611 60.504C227.603 60.84 228.323 61.352 228.771 62.04C229.219 62.728 229.443 63.632 229.443 64.752C229.443 65.856 229.147 66.88 228.555 67.824C227.963 68.768 227.107 69.416 225.987 69.768C226.627 70.04 227.195 70.536 227.691 71.256C228.187 71.976 228.715 72.912 229.275 74.064C229.675 74.848 229.979 75.416 230.187 75.768C230.411 76.104 230.627 76.296 230.835 76.344L231.627 76.584V78H227.547C227.291 78 227.019 77.744 226.731 77.232C226.459 76.704 226.099 75.88 225.651 74.76C225.123 73.448 224.667 72.424 224.283 71.688C223.899 70.952 223.491 70.496 223.059 70.32H220.587V76.32L222.795 76.56V78H215.163V76.56ZM222.795 68.856C223.707 68.856 224.419 68.528 224.931 67.872C225.443 67.216 225.699 66.232 225.699 64.92C225.699 63.752 225.443 62.888 224.931 62.328C224.435 61.768 223.571 61.488 222.339 61.488C221.891 61.488 221.507 61.512 221.187 61.56C220.883 61.592 220.683 61.608 220.587 61.608V68.808C220.779 68.84 221.243 68.856 221.979 68.856H222.795ZM234.667 61.968L232.627 61.656V60.168H240.307V61.656L238.195 61.968V76.32L240.307 76.584V78H232.627V76.56L234.667 76.32V61.968ZM247.943 60.072H251.615L257.159 76.32L258.551 76.56V78H251.471V76.56L253.271 76.32L252.335 73.2H246.119L245.183 76.344L247.127 76.56V78H241.007L240.983 76.56L242.423 76.32L247.943 60.072ZM249.599 64.128L249.167 62.256L248.711 64.152L246.575 71.52H251.855L249.599 64.128ZM265.37 78.264C264.506 78.264 263.73 78.192 263.042 78.048C262.354 77.904 261.586 77.712 260.738 77.472C260.178 77.312 259.802 77.224 259.61 77.208L259.826 72.768H261.77L262.298 75.864C262.506 76.088 262.874 76.288 263.402 76.464C263.946 76.64 264.562 76.728 265.25 76.728C266.322 76.728 267.122 76.496 267.65 76.032C268.194 75.552 268.466 74.888 268.466 74.04C268.466 73.48 268.306 73 267.986 72.6C267.666 72.184 267.226 71.816 266.666 71.496C266.106 71.16 265.338 70.776 264.362 70.344C263.034 69.736 261.93 69.016 261.05 68.184C260.186 67.336 259.754 66.192 259.754 64.752C259.754 63.856 259.986 63.048 260.45 62.328C260.914 61.592 261.602 61.016 262.514 60.6C263.442 60.168 264.57 59.952 265.898 59.952C266.682 59.952 267.37 60.008 267.962 60.12C268.57 60.232 269.226 60.384 269.93 60.576C270.346 60.688 270.658 60.76 270.866 60.792L270.722 64.992H268.802L268.298 62.04C268.154 61.896 267.866 61.76 267.434 61.632C267.002 61.488 266.522 61.416 265.994 61.416C265.034 61.416 264.306 61.64 263.81 62.088C263.33 62.52 263.09 63.104 263.09 63.84C263.09 64.432 263.266 64.944 263.618 65.376C263.986 65.808 264.426 66.176 264.938 66.48C265.45 66.768 266.258 67.184 267.362 67.728C268.258 68.16 269.026 68.584 269.666 69C270.306 69.416 270.858 69.96 271.322 70.632C271.786 71.288 272.018 72.064 272.018 72.96C272.018 73.84 271.794 74.68 271.346 75.48C270.914 76.28 270.194 76.944 269.186 77.472C268.194 78 266.922 78.264 265.37 78.264Z" fill="#1A2A4A"/>
<path d="M70.0002 36.25C64.5538 36.2488 59.2591 38.0441 54.9367 41.3577C50.6143 44.6713 47.5056 49.3181 46.0924 54.5779C44.6791 59.8377 45.0403 65.4169 47.12 70.4506C49.1996 75.4843 52.8816 79.6914 57.5952 82.42C59.6532 83.614 60.9402 85.444 60.9972 87.289C61.0129 87.7832 61.191 88.2584 61.5039 88.6413C61.8168 89.0241 62.247 89.2932 62.7282 89.407C63.7842 89.656 64.8582 89.851 65.9502 89.992C66.9192 90.115 67.7502 89.338 67.7502 88.36V74.377C66.8022 74.2728 65.8629 74.1013 64.9392 73.864C64.653 73.7903 64.3841 73.661 64.1478 73.4834C63.9116 73.3058 63.7127 73.0834 63.5624 72.829C63.4121 72.5745 63.3134 72.2929 63.2719 72.0003C63.2305 71.7076 63.247 71.4097 63.3207 71.1235C63.3944 70.8373 63.5237 70.5684 63.7013 70.3321C63.8789 70.0959 64.1013 69.897 64.3557 69.7467C64.6102 69.5964 64.8918 69.4977 65.1844 69.4562C65.4771 69.4148 65.775 69.4313 66.0612 69.505C68.645 70.1709 71.3554 70.1709 73.9392 69.505C74.2283 69.4217 74.5312 69.3972 74.8299 69.433C75.1286 69.4688 75.4171 69.5642 75.6784 69.7134C75.9396 69.8627 76.1682 70.0628 76.3508 70.302C76.5333 70.5411 76.666 70.8145 76.7411 71.1058C76.8161 71.3972 76.8319 71.7006 76.7877 71.9982C76.7434 72.2958 76.6399 72.5815 76.4833 72.8383C76.3266 73.0952 76.1201 73.3181 75.8758 73.4937C75.6316 73.6694 75.3546 73.7943 75.0612 73.861C74.1376 74.0994 73.1982 74.2718 72.2502 74.377V88.357C72.2502 89.338 73.0812 90.115 74.0502 89.992C75.1422 89.851 76.2162 89.656 77.2722 89.407C77.7534 89.2932 78.1836 89.0241 78.4965 88.6413C78.8094 88.2584 78.9875 87.7832 79.0032 87.289C79.0632 85.444 80.3472 83.614 82.4052 82.42C87.1188 79.6914 90.8008 75.4843 92.8804 70.4506C94.9601 65.4169 95.3213 59.8377 93.908 54.5779C92.4948 49.3181 89.3861 44.6713 85.0637 41.3577C80.7413 38.0441 75.4466 36.2488 70.0002 36.25Z" fill="#1A2A4A"/>
<path fill-rule="evenodd" clip-rule="evenodd" d="M61.0391 93.7C61.0942 93.4096 61.2059 93.1329 61.368 92.8857C61.53 92.6386 61.7392 92.4257 61.9835 92.2594C62.2279 92.0931 62.5026 91.9765 62.792 91.9164C63.0813 91.8563 63.3797 91.8538 63.6701 91.909C67.8528 92.7026 72.1474 92.7026 76.3301 91.909C76.624 91.8443 76.9279 91.8392 77.2238 91.894C77.5197 91.9489 77.8016 92.0625 78.0528 92.2282C78.304 92.3939 78.5194 92.6083 78.6863 92.8588C78.8531 93.1092 78.9681 93.3906 79.0243 93.6862C79.0804 93.9819 79.0768 94.2858 79.0134 94.58C78.9501 94.8742 78.8284 95.1526 78.6555 95.399C78.4826 95.6453 78.2621 95.8544 78.0069 96.014C77.7518 96.1736 77.4672 96.2803 77.1701 96.328C72.4324 97.2271 67.5678 97.2271 62.8301 96.328C62.2443 96.2167 61.7266 95.8774 61.3907 95.3846C61.0549 94.8919 60.9284 94.286 61.0391 93.7ZM63.2621 101.032C63.2928 100.738 63.3811 100.453 63.5219 100.193C63.6628 99.9336 63.8534 99.7041 64.083 99.518C64.3125 99.3319 64.5765 99.1928 64.8598 99.1088C65.1431 99.0247 65.4402 98.9972 65.7341 99.028C68.5704 99.3244 71.4298 99.3244 74.2661 99.028C74.8596 98.9659 75.4535 99.1422 75.9171 99.518C76.3807 99.8939 76.676 100.438 76.7381 101.032C76.8001 101.626 76.6239 102.219 76.2481 102.683C75.8722 103.147 75.3276 103.442 74.7341 103.504C71.5867 103.833 68.4135 103.833 65.2661 103.504C64.9722 103.473 64.6872 103.385 64.4274 103.244C64.1676 103.103 63.9382 102.913 63.7521 102.683C63.566 102.454 63.4269 102.19 63.3428 101.906C63.2588 101.623 63.2313 101.326 63.2621 101.032Z" fill="#1A2A4A"/>
<defs>
<filter id="filter0_d_632_120" x="0" y="0" width="328" height="148" filterUnits="userSpaceOnUse" color-interpolation-filters="sRGB">
<feFlood flood-opacity="0" result="BackgroundImageFix"/>
<feColorMatrix in="SourceAlpha" type="matrix" values="0 0 0 0 0 0 0 0 0 0 0 0 0 0 0 0 0 0 127 0" result="hardAlpha"/>
<feOffset dy="4"/>
<feGaussianBlur stdDeviation="2"/>
<feComposite in2="hardAlpha" operator="out"/>
<feColorMatrix type="matrix" values="0 0 0 0 0 0 0 0 0 0 0 0 0 0 0 0 0 0 0.25 0"/>
<feBlend mode="normal" in2="BackgroundImageFix" result="effect1_dropShadow_632_120"/>
<feBlend mode="normal" in="SourceGraphic" in2="effect1_dropShadow_632_120" result="shape"/>
</filter>
</defs>
</svg>
