<?xml version="1.0" encoding="UTF-8"?>
<svg xmlns="http://www.w3.org/2000/svg" version="1.1" viewBox="0 0 800 800">
  <!-- Generator: Adobe Illustrator 29.5.1, SVG Export Plug-In . SVG Version: 2.1.0 Build 141)  -->
  <defs>
    <style>
      .st0 {
        fill: #fcfcfc;
      }

      .st1 {
        display: none;
      }

      .st2 {
        fill: #3a5070;
      }

      .st3 {
        fill: #031638;
      }
    </style>
  </defs>
  <g id="Camada_2">
    <path class="st1" d="M475.19,200.86h-154.13v-57.96c29.32-4.11,58.82-9.12,88.62-7.94,21.41.85,42.57,5.14,63.85,7.28.55-.04,1.65.61,1.65.98v57.63Z"/>
  </g>
  <g id="Camada_1">
    <path class="st3" d="M219.43,164.66c14.72,15.24,27.58,25.02,47.48,33.2,4.84,1.99,17.61,7.08,22.19,7.42s22.7-5.92,28.94-7.31c53.54-11.97,111.81-11.91,165.3.14,6.53,1.47,22.51,7.21,27.64,7.23,4.02.01,21.27-6.94,25.89-8.98,18.65-8.22,32.01-18.19,46.11-32.66.72-.74,3.58-5.78,4.89-4.59,3.2,12.84,4.82,25.06.35,37.85-4.54,12.99-16.08,21.51-26.86,29.2l22.26,11.85,2.79,3.26-.06,192.45c-2.63,29.16-10.1,58.12-23.57,84.01-33.42,64.22-96.9,108.23-161.27,138.79-1.96.49-7.32-2.32-9.6-3.34-16.39-7.34-34.6-17.81-49.73-27.54-70.5-45.32-124.68-110.62-128.53-197.22-2.73-61.42,2.06-124.77-.05-186.39l.74-2.29,25.06-13.59c-4.22-3.32-9.24-5.89-13.24-9.49-3.72-3.35-9.1-9.26-11.4-13.6-7.25-13.73-6.76-30.4-1.51-44.71,1.74,2.49,4.28,4.36,6.18,6.32ZM380.6,299.71c-12.93-16.56-27.91-29.11-46.99-38.24-17.58-8.41-36.36-11.97-55.8-12.87-7.53,6.64-14.11,14.05-18.62,23.08-9.93,19.89-10.12,42.72.25,62.44,19.34,36.78,66.34,47.63,102.44,28.88,2.09-1.08,6.97-5.39,8.61-4.34l29.9,49.65,29.23-49.93c1.21-.86,10.14,5.12,12.31,6.14,53.61,25.29,118.11-16.31,105.6-76.82-1.8-8.7-9.35-23.29-15.4-30.05-.81-.91-8.43-8.15-8.97-8.45-.75-.43-1.38-.85-2.3-.78-48.92,1.67-91.08,28.23-114.05,70.72-.27.5-4.99,9.57-6.05,13.43l-5.84-11.91c-4.47-7.54-8.87-13.98-14.31-20.94ZM361.36,600.38c-.62-6.12,0-14.08,0-20.45,0-.2,1.18-1.42,1.81-1.07l37.14,21.92,38.32-21.98v22.35c0,3.67-4.67,17.84-6.6,21.39-.6,1.1-3.1,2.18-2.88,3.97l32.2-17.42c-2.04-3.69-3.15-7.6-4.61-11.51-1.29-3.48-3.72-7.98-3.72-12.34v-11.74c6.82.19,22.52,11.19,28.22,9.68l21.41-13.46,1.13,3.02c11.16-8.77,19.55-20.66,29.24-31.04,1.1-3.4-1.88-3.71-2.97-5.54-19.64-33.01-25.64-81.92-20.89-119.77.81-6.48,2.3-13.03,3.69-19.41-1.83-1.61-30.82,4.14-35.33,5.19-27.24,6.39-53.7,17.72-77.3,32.57-20.75-12.85-43.33-23.21-66.9-29.83-5.87-1.65-43.51-10.32-46.22-7.94,7.45,31.42,6.85,64.77-.37,96.21-2.75,11.98-9.93,31.61-16.13,42.22-1.18,2.02-4.4,2.6-3.1,6.52.29.88,1.59,1.09,2.17,1.84,5.35,6.86,16.72,21.8,23.12,26.67,4.32,3.29,2.09-1.2,4.44-.67l21.5,13.4c4.44,1.74,26.59-11.39,28.21-9.68-.26,6.72-.07,16-2.21,22.38-.41,1.23-1.3,1.21-1.5,1.71-.69,1.8-3.83,8.71-3.88,9.68-.12,2.21,2.27,3.23,3.91,4.37,8.14,5.69,18.58,10.68,27.56,14.86.48-2.28-2.2-3.4-2.88-4.72-2.55-4.9-6.05-15.97-6.6-21.4Z"/>
    <path class="st0" d="M380.6,299.71c5.44,6.97,9.84,13.4,14.31,20.94l5.84,11.91c1.07-3.86,5.78-12.93,6.05-13.43,22.97-42.49,65.13-69.05,114.05-70.72.92-.08,1.55.35,2.3.78.53.31,8.16,7.55,8.97,8.45,6.05,6.76,13.6,21.36,15.4,30.05,12.51,60.51-52,102.1-105.6,76.82-2.17-1.02-11.1-7-12.31-6.14l-29.23,49.93-29.9-49.65c-1.64-1.05-6.52,3.25-8.61,4.34-36.1,18.75-83.09,7.89-102.44-28.88-10.37-19.72-10.18-42.56-.25-62.44,4.51-9.03,11.09-16.44,18.62-23.08,19.44.9,38.23,4.46,55.8,12.87,19.08,9.13,34.06,21.69,46.99,38.24ZM336.82,270.78c-11.62-3.91-25.88-1.63-35.32,6.11-31.94,26.18.46,70.91,37.12,56.81,31.21-12.01,28.99-52.57-1.8-62.92ZM505.59,284.57c-23.41-31.83-74.16-11.23-65.07,26.8,3.07,12.85,18.03,23.95,31.08,24.98,27.85,2.19,52.17-27.06,33.99-51.78ZM393.46,346.7c-5.74-7.92-10.74-12.77-20.69-15.3-1-.26-3.64-1.11-3.06.79l30.67,55.68,31.44-56.8c-14.87.87-27.07,13.41-31.07,27.26-.86.66-4.79-9.16-5.42-10.14-.5-.78-1.54-1.04-1.87-1.5Z"/>
    <path class="st2" d="M361.36,600.38c.55,5.42,4.04,16.49,6.6,21.4.69,1.32,3.37,2.44,2.88,4.72-8.97-4.18-19.41-9.17-27.56-14.86-1.64-1.15-4.03-2.16-3.91-4.37.05-.97,3.19-7.89,3.88-9.68.2-.51,1.09-.48,1.5-1.71,2.13-6.38,1.95-15.66,2.21-22.38-1.63-1.71-23.77,11.42-28.21,9.68l-21.5-13.4c-2.35-.52-.12,3.96-4.44.67-6.4-4.87-17.77-19.81-23.12-26.67-.58-.74-1.88-.96-2.17-1.84-1.3-3.92,1.92-4.5,3.1-6.52,6.19-10.62,13.37-30.25,16.13-42.22,7.23-31.44,7.82-64.79.37-96.21,2.71-2.38,40.35,6.29,46.22,7.94,23.57,6.62,46.15,16.98,66.9,29.83,23.6-14.86,50.06-26.19,77.3-32.57,4.51-1.06,33.5-6.8,35.33-5.19-1.39,6.38-2.88,12.92-3.69,19.41-4.75,37.85,1.24,86.76,20.89,119.77,1.09,1.83,4.06,2.15,2.97,5.54-9.69,10.38-18.08,22.26-29.24,31.04l-1.13-3.02-21.41,13.46c-5.7,1.51-21.4-9.49-28.22-9.68v11.74c0,4.36,2.43,8.86,3.72,12.34,1.45,3.91,2.57,7.82,4.61,11.51l-32.2,17.42c-.22-1.79,2.28-2.87,2.88-3.97,1.93-3.55,6.6-17.72,6.6-21.39v-22.35l-38.32,21.98-37.14-21.92c-.63-.35-1.81.88-1.81,1.07,0,6.37-.62,14.33,0,20.45ZM307.58,435.98c-.63,4.28,0,11.25,0,15.91,0,8.82,10.34,22.51,17.94,26.75,5.13,2.87,7.8.36,12.3-2.58,12.59-8.23,18.71-23.45,16.37-38.18-7.56,3.02-14.93,7.79-22.68,9.85l-22.8-13.64c-.23-.08-1.1,1.68-1.13,1.89ZM491.66,434.09c-.99-.9-20.33,13.24-23.16,13.64-3.58.51-22.5-11.2-23.8-9.85-.46,16.54,5.07,31.94,20.22,40.01,2.91,1.55,4.88,3.02,8.06,1.55,16.18-7.51,22.25-28.9,18.69-45.34ZM368.18,453.79v18.94c0,.25.81.68,1.71,3.96,3.25,11.93,8.1,21.94,18.05,29.69,3.7,2.88,8.27,4.77,12.3,7.14,15.53-7.78,24.25-18.02,28.93-34.72.49-1.74,2.63-8.88,2.7-9.43.31-2.34.31-9.88,0-12.22-.17-1.29-2.27-1.37-1.58-3.36l-30.55,17.3-28.58-16.87-2.99-.42ZM346.97,505.31c-1.11-1.17-21.5,8.03-24.62,9.03-4.02-.41-23.96-16.12-25.37-15.1-1.68,3.31-1.47,7.66-2.32,10.82-.18.67-1.36.25-1.54,1.63-.84,6.42.14,13.84,1.92,19.39,1.99,6.22,5.68,14.16,10.52,18.66.6.56,6.93,5.03,7.37,5.18,2.3.8,5.23-.59,7.44-1.6,15.28-6.93,25.38-26.34,26.59-42.35.14-1.88-.05-3.79,0-5.67ZM503.78,499.24c-1.81-1.55-21.62,13.96-25.36,15.12-3.17-1.01-24.35-10.15-25.38-9.06.05,1.88-.14,3.79,0,5.67.67,8.89,5.02,19.75,9.71,27.41,3.67,5.98,10.5,11.99,17.04,14.78,7.87,3.36,6.02,2.53,11.5-1.65,10.06-7.68,10.85-11.77,14.07-23.68.18-.68,1.35-.3,1.52-1.65.39-3.03.39-12.98,0-16.01-.18-1.35-1.38-1-1.52-1.66-.66-3-.87-6.27-1.57-9.28ZM437.87,510.6l-37.63,21.87-38.12-21.87c-2.87,18.05,1.29,36.04,11.94,50.56,6.54,8.91,16.09,16,26.18,20.52,18.92-9.01,34.01-26.49,37.44-47.4,1.27-7.77,1.39-15.91.19-23.67Z"/>
    <path class="st3" d="M437.87,510.6c1.2,7.76,1.08,15.91-.19,23.67-3.43,20.91-18.52,38.39-37.44,47.4-10.09-4.51-19.64-11.6-26.18-20.52-10.65-14.52-14.81-32.51-11.94-50.56l38.12,21.87,37.63-21.87Z"/>
    <path class="st3" d="M368.18,453.79l2.99.42,28.58,16.87,30.55-17.3c-.69,1.99,1.41,2.07,1.58,3.36.31,2.34.31,9.87,0,12.22-.07.55-2.22,7.68-2.7,9.43-4.69,16.71-13.4,26.95-28.93,34.72-4.03-2.38-8.6-4.26-12.3-7.14-9.95-7.75-14.8-17.76-18.05-29.69-.89-3.28-1.71-3.71-1.71-3.96v-18.94Z"/>
    <path class="st3" d="M503.78,499.24c.71,3.01.92,6.28,1.57,9.28.14.65,1.35.31,1.52,1.66.39,3.03.39,12.98,0,16.01-.18,1.36-1.34.97-1.52,1.65-3.22,11.9-4,15.99-14.07,23.68-5.48,4.18-3.63,5.01-11.5,1.65-6.53-2.79-13.37-8.8-17.04-14.78-4.69-7.66-9.04-18.52-9.71-27.41-.14-1.88.05-3.79,0-5.67,1.04-1.1,22.21,8.05,25.38,9.06,3.74-1.16,23.56-16.67,25.36-15.12Z"/>
    <path class="st3" d="M346.97,505.31c-.05,1.88.14,3.79,0,5.67-1.21,16.01-11.31,35.42-26.59,42.35-2.21,1-5.15,2.4-7.44,1.6-.44-.15-6.76-4.62-7.37-5.18-4.84-4.5-8.53-12.43-10.52-18.66-1.78-5.55-2.76-12.97-1.92-19.39.18-1.38,1.36-.96,1.54-1.63.85-3.16.63-7.52,2.32-10.82,1.41-1.02,21.35,14.69,25.37,15.1,3.11-1.01,23.5-10.21,24.62-9.03Z"/>
    <path class="st3" d="M491.66,434.09c3.56,16.44-2.5,37.83-18.69,45.34-3.17,1.47-5.15,0-8.06-1.55-15.15-8.07-20.67-23.47-20.22-40.01,1.31-1.35,20.22,10.36,23.8,9.85,2.83-.4,22.17-14.55,23.16-13.64Z"/>
    <path class="st3" d="M307.58,435.98c.03-.21.9-1.96,1.13-1.89l22.8,13.64c7.75-2.05,15.11-6.83,22.68-9.85,2.34,14.73-3.78,29.95-16.37,38.18-4.49,2.94-7.16,5.45-12.3,2.58-7.6-4.25-17.94-17.93-17.94-26.75,0-4.66-.63-11.63,0-15.91Z"/>
    <path class="st3" d="M336.82,270.78c30.79,10.36,33.01,50.92,1.8,62.92-36.65,14.1-69.06-30.63-37.12-56.81,9.44-7.74,23.7-10.02,35.32-6.11ZM316.9,302.8c7.36,6.55,21.02,2.83,21.47-7.83.76-17.79-30.45-14.22-23.58,4.26.29.78,1.57,3.08,2.11,3.57Z"/>
    <path class="st3" d="M505.59,284.57c18.18,24.72-6.14,53.98-33.99,51.78-13.05-1.03-28.01-12.14-31.08-24.98-9.09-38.03,41.66-58.63,65.07-26.8ZM471.03,283.54c-14.53,2.23-10.92,25.82,5.7,22.35,15.21-3.18,12.25-25.11-5.7-22.35Z"/>
    <path class="st3" d="M400.75,358.33c4-13.85,16.19-26.39,31.07-27.26l-31.44,56.8-30.67-55.68c-.58-1.9-.22-1.27.81-1.2,13.56.94,26.67,13.67,30.23,27.34Z"/>
    <path class="st0" d="M316.9,302.8c-.54-.48-1.82-2.79-2.11-3.57-6.87-18.49,24.34-22.05,23.58-4.26-.45,10.66-14.11,14.38-21.47,7.83Z"/>
    <path class="st0" d="M471.03,283.54c17.95-2.76,20.91,19.18,5.7,22.35-16.61,3.47-20.23-20.12-5.7-22.35Z"/>
  </g>
  <g id="Camada_3" class="st1">
    <path d="M261.12,162.98c.09.29,3.7,2.75,4.61,3.96,2.5,3.34,2.71,6.96.79,10.66-1.21,2.34-3.86,3.2-4.45,4.16-1.17,1.89,10.55,37.4,8.85,43.07-1.73,10.36-12.15,18.62-21.61,10.56-6.68-5.69-5.97-13.2-4.47-20.83,2.06-10.46,5.6-20.72,7.75-31.18.49-2.56-1.85-3.28-2.96-4.95-3.92-5.89-1.38-13.37,5.45-15.21l.15-48.89c-.14-.5-8.42-2.82-9.74-3.54-.77-.42-1.11.02-.84-1.47l151.89-47.39,3.06.11,151.99,47.61c.28,1.34-.51.93-1.32,1.29-23.71,10.48-50.55,17.7-74.76,27.37-51.82-9.42-102.96-9.31-154.77.03l-59.63-21.77v46.44Z"/>
  </g>
</svg>