<svg width="591" height="84" viewBox="0 0 591 84" fill="none" xmlns="http://www.w3.org/2000/svg">
<path d="M42.1028 71.0409C41.4886 71.0409 40.9447 70.8089 40.3955 70.5495C40.3556 70.5306 40.321 70.5138 40.2916 70.5012C38.0876 69.5142 35.8994 68.1713 34.7917 67.4594C25.7249 61.6319 20.7259 53.8923 20.3342 45.0786C20.182 41.6493 20.2492 38.1392 20.3132 34.7456C20.372 31.688 20.4319 28.5264 20.3279 25.4867L20.3153 25.1192L20.7647 23.729L21.4325 23.3667C21.1648 23.0496 20.8918 22.6811 20.6933 22.3062C19.7095 20.4425 19.6097 18.1104 20.4193 15.9054L21.8063 12.1265L24.0943 15.3993C24.1247 15.4308 24.1909 15.4917 24.2402 15.5369C24.3326 15.6209 24.4376 15.7164 24.5479 15.8309C26.0263 17.3597 27.1445 18.1451 28.8235 18.8349C29.611 19.1583 30.1675 19.3515 30.4436 19.4324C30.787 19.3547 31.4222 19.1667 31.7908 19.0575C32.2475 18.9221 32.6413 18.8055 32.9363 18.7394C35.87 18.0831 38.9329 17.7503 42.0367 17.7503C45.1405 17.7503 48.2527 18.0884 51.2116 18.7551C51.5371 18.8286 51.9403 18.9504 52.4075 19.0922C52.7299 19.1898 53.278 19.3568 53.5951 19.4324C54.0676 19.2875 55.0451 18.9095 55.5229 18.6984C57.0874 18.0086 58.2802 17.1717 59.6084 15.8267C59.8751 15.4466 60.5219 14.5898 61.678 14.5898C62.2187 14.5898 62.7374 14.7903 63.1375 15.1536L63.6089 15.582L63.7633 16.2005C64.1318 17.6789 64.4174 19.4502 63.7444 21.3759C63.4787 22.1372 63.0787 22.7798 62.6198 23.331L63.6719 24.5606L63.6656 45.6383L63.6572 45.7317C63.338 49.2681 62.4287 52.499 60.9535 55.3329C57.7405 61.5059 51.7198 66.7212 43.0573 70.8341L42.8683 70.9233L42.6656 70.9737C42.4829 71.0189 42.2929 71.042 42.1007 71.042L42.1028 71.0409Z" fill="white"/>
<path d="M61.7631 20.6808C62.2325 19.3379 62.0624 18.0548 61.7264 16.7066C61.5888 16.5816 61.2885 17.1108 61.2129 17.1885C59.7324 18.7079 58.3296 19.7547 56.3714 20.6178C55.8863 20.832 54.075 21.5618 53.6529 21.5607C53.1143 21.5586 51.4364 20.9559 50.7507 20.8016C45.1343 19.5363 39.0159 19.53 33.3942 20.7869C32.739 20.9328 30.8364 21.5901 30.3555 21.5544C29.8746 21.5187 28.5338 20.9843 28.0256 20.7753C25.9361 19.9164 24.5868 18.8895 23.0402 17.2904C22.8407 17.0846 22.574 16.8882 22.3913 16.6268C21.84 18.1293 21.7886 19.8797 22.5498 21.3213C22.7913 21.777 23.3562 22.3976 23.7468 22.7493C24.1668 23.1273 24.6939 23.3972 25.137 23.7458L22.5057 25.1727L22.428 25.4132C22.6496 31.8833 22.1466 38.535 22.4333 44.9841C22.8375 54.0771 28.5264 60.9336 35.9289 65.6922C37.5176 66.7139 39.4296 67.8132 41.1506 68.5839C41.39 68.691 41.9528 68.9861 42.1586 68.9346C48.9174 65.7258 55.5828 61.1048 59.0919 54.3617C60.5063 51.6432 61.2906 48.6024 61.5668 45.5406L61.5731 25.3334L61.2801 24.9911L58.9428 23.7468C60.0747 22.9394 61.2864 22.0448 61.7631 20.6808ZM52.8969 60.1377L52.7793 59.8238V59.8206L50.5302 61.2339C49.9317 61.3925 48.2832 60.2375 47.5671 60.2175V61.4502C47.5671 61.908 47.8223 62.3805 47.9577 62.7459C47.9955 62.8488 48.0323 62.9517 48.068 63.0536C48.068 63.0536 48.0683 63.0543 48.069 63.0557C48.1047 63.1575 48.1404 63.2583 48.1772 63.3591C48.1877 63.3854 48.1971 63.4106 48.2066 63.4368C48.2738 63.6122 48.3483 63.7854 48.4418 63.9545L45.0629 65.7825H45.0608C45.0377 65.5956 45.3002 65.4822 45.3632 65.3667C45.5658 64.994 46.0562 63.5061 46.0562 63.1208V60.774L42.0326 63.0819L38.1329 60.7803C38.0667 60.7436 37.9428 60.8717 37.9428 60.8927C37.9428 61.5615 37.8777 62.3973 37.9428 63.0399L37.9407 63.0378C37.9985 63.608 38.366 64.7703 38.6337 65.2848C38.6337 65.2859 38.6348 65.2859 38.6358 65.2869C38.64 65.2953 38.6453 65.3027 38.6505 65.3111C38.6652 65.3331 38.6862 65.3562 38.7093 65.3783C38.7408 65.4098 38.7776 65.4413 38.8122 65.4759C38.8941 65.5568 38.9634 65.6513 38.9361 65.7804C38.8196 65.7258 38.6999 65.6702 38.5791 65.6145C38.4563 65.5557 38.3313 65.4969 38.2064 65.436C38.0825 65.3762 37.9586 65.3163 37.8347 65.2533C37.7076 65.1903 37.5816 65.1263 37.4556 65.0601C37.3317 64.9961 37.2089 64.9299 37.0881 64.8627C37.0251 64.8281 36.9632 64.7934 36.9023 64.7588C36.8424 64.7241 36.7815 64.6895 36.7227 64.6548C36.4865 64.5152 36.2576 64.3713 36.0444 64.2222C35.9499 64.1561 35.8313 64.0941 35.7462 64.0133C35.7368 64.0049 35.7284 63.9954 35.72 63.986C35.7021 63.9671 35.6864 63.9471 35.6748 63.9261C35.6444 63.8789 35.6286 63.8243 35.6318 63.7613C35.637 63.6594 35.9667 62.9339 36.0392 62.7449C36.0602 62.6924 36.1536 62.6945 36.1967 62.5653C36.4214 61.8954 36.4014 60.921 36.4287 60.2154C36.4266 60.2144 36.4245 60.2123 36.4214 60.2102C36.203 60.0684 33.9276 61.4124 33.4667 61.2318L31.2113 59.8269L31.2092 59.8248C30.9876 59.7744 31.1535 60.1493 30.8616 59.9771C30.8291 59.9582 30.7902 59.9319 30.7451 59.8973C30.0731 59.3859 28.8792 57.8172 28.3175 57.0969C28.2944 57.0675 28.2608 57.0465 28.2272 57.0255C28.2146 57.0192 28.202 57.0119 28.1904 57.0035C28.1789 56.9982 28.1673 56.9909 28.1568 56.9825C28.1463 56.9751 28.1358 56.9678 28.1274 56.9594C28.1138 56.9478 28.1043 56.9352 28.0959 56.9205C28.0928 56.9142 28.0896 56.9079 28.0875 56.9016C27.951 56.49 28.2891 56.4291 28.413 56.217C29.064 55.103 29.8179 53.0418 30.1067 51.7839C30.8648 48.4827 30.9278 44.981 30.1455 41.6819C30.4301 41.432 34.3823 42.3423 34.9986 42.5156C37.3191 43.1676 39.5493 44.1651 41.6147 45.3999C41.7512 45.4818 41.8877 45.5648 42.0231 45.6477C44.5011 44.0885 47.2794 42.8988 50.1396 42.2279C50.6079 42.1187 53.5836 41.5286 53.8409 41.6777C53.844 41.6798 53.8472 41.6819 53.8493 41.684C53.7033 42.3539 53.5469 43.0406 53.4618 43.721C53.2203 45.6477 53.2434 47.8485 53.5679 49.9989C53.5847 50.1081 53.6015 50.2163 53.6193 50.3244C53.655 50.5407 53.6928 50.756 53.7348 50.9702C53.8619 51.618 54.0162 52.2554 54.2 52.8749C54.3197 53.2802 54.452 53.6771 54.5969 54.0645C54.6042 54.0834 54.6116 54.1013 54.6179 54.1202C54.9119 54.894 55.2563 55.6269 55.6553 56.2968C55.6553 56.2979 55.6563 56.2979 55.6574 56.2989C55.6889 56.3514 55.7351 56.3924 55.7844 56.4312C55.8096 56.4512 55.8359 56.4711 55.86 56.4921C55.8611 56.4932 55.8621 56.4942 55.8621 56.4942C55.881 56.5089 55.8978 56.5257 55.9136 56.5425C55.9356 56.5677 55.9556 56.594 55.9692 56.6255C55.9976 56.6885 56.0028 56.7672 55.9671 56.8785C54.9497 57.9684 54.0698 59.2158 52.898 60.1367L52.8969 60.1377ZM48.1509 38.8731C48.1509 38.8731 48.1499 38.8731 48.1488 38.8731C47.8548 38.8091 47.5619 38.7272 47.27 38.6264C46.9781 38.5266 46.6883 38.4101 46.4016 38.2746C46.3019 38.2274 46.0667 38.0814 45.822 37.9386C45.7895 37.9208 45.758 37.9019 45.7254 37.884C45.5301 37.7717 45.3411 37.6709 45.2214 37.6362C45.1689 37.6205 45.1301 37.6173 45.1101 37.631L42.041 42.8736H42.0399L38.9004 37.6593C38.8962 37.6562 38.891 37.6541 38.8868 37.653C38.8815 37.6509 38.8763 37.6488 38.871 37.6478C38.6757 37.5974 38.2053 38.009 37.9974 38.1161C34.9283 39.71 31.1094 39.2669 28.6892 36.9905C28.119 36.455 27.6276 35.8176 27.2402 35.0826C27.0701 34.7592 26.9273 34.4274 26.8118 34.0904C26.3697 32.8094 26.3141 31.4475 26.6259 30.1392C26.6259 30.1392 26.6249 30.1382 26.6259 30.1382C26.7582 29.589 26.9546 29.0483 27.215 28.5275C27.2738 28.4088 27.3368 28.2933 27.4019 28.1799C27.468 28.0655 27.5373 27.9552 27.6087 27.8471C27.6087 27.8471 27.6087 27.8467 27.6087 27.846C27.8607 27.4659 28.1484 27.1152 28.4613 26.7834C28.4613 26.7834 28.4603 26.7834 28.4613 26.7824C28.686 26.5472 28.9233 26.3214 29.1701 26.1041C29.357 26.1125 29.5428 26.124 29.7287 26.1366C29.7381 26.1366 29.7476 26.1377 29.757 26.1387C29.8736 26.1482 29.9891 26.1576 30.1046 26.1681C30.1161 26.1681 30.1277 26.1681 30.1392 26.1713C30.2526 26.1818 30.365 26.1933 30.4784 26.2059C30.4931 26.207 30.5067 26.208 30.5214 26.2112C31.0023 26.2658 31.4801 26.3403 31.9515 26.4369C31.9767 26.4411 32.003 26.4464 32.0282 26.4527C32.5059 26.5535 32.9774 26.6763 33.4425 26.8254C33.5024 26.8454 33.5622 26.8643 33.6221 26.8853C33.8006 26.9441 33.978 27.0081 34.1544 27.0774C34.3308 27.1457 34.5062 27.2181 34.6805 27.2948C34.797 27.3462 34.9125 27.3987 35.028 27.4544C35.216 27.5447 35.4008 27.6381 35.5814 27.7347C35.7609 27.8313 35.9373 27.93 36.1106 28.0319C36.1106 28.0319 36.1109 28.0319 36.1116 28.0319C36.2849 28.1348 36.4539 28.2408 36.6209 28.349C36.6765 28.3857 36.7322 28.4225 36.7878 28.4603C36.897 28.5338 37.0052 28.6094 37.1112 28.6871C37.5932 29.0346 38.0468 29.4137 38.4783 29.8232C38.5739 29.9135 38.6673 30.0059 38.7608 30.1004C38.8542 30.1938 38.9466 30.2894 39.038 30.387C39.038 30.387 39.0383 30.387 39.039 30.387C39.1304 30.4836 39.2207 30.5823 39.3089 30.6831C39.5325 30.9351 39.7499 31.1955 39.962 31.4675C40.0334 31.5599 40.1037 31.6512 40.172 31.7415C40.2402 31.8308 40.3064 31.92 40.3715 32.0093C40.3715 32.0103 40.3725 32.0103 40.3725 32.0103C40.4376 32.0985 40.5017 32.1878 40.5647 32.277C40.6907 32.4555 40.8125 32.634 40.9322 32.8167C41.1128 33.0897 41.2871 33.3701 41.4635 33.6672L42.0767 34.9167L42.0777 34.9188C42.0956 34.8558 42.1218 34.7792 42.1544 34.6941C42.1544 34.6941 42.1533 34.6941 42.1544 34.6931C42.1943 34.5923 42.2426 34.4799 42.294 34.3655C42.294 34.3655 42.293 34.3644 42.294 34.3644C42.3119 34.3277 42.3287 34.2888 42.3465 34.251C42.3455 34.25 42.3465 34.25 42.3465 34.25C42.4001 34.1355 42.4547 34.0232 42.504 33.9213C42.504 33.9213 42.503 33.9203 42.504 33.9203C42.6132 33.6987 42.7014 33.5297 42.713 33.5087C45.1248 29.0472 49.5516 26.2584 54.6882 26.0831C54.7292 26.0799 54.7638 26.0862 54.7974 26.0967C54.8184 26.1041 54.8394 26.1135 54.8594 26.1251C54.8825 26.1366 54.9045 26.1503 54.9287 26.1639C54.9707 26.1881 55.4327 26.6228 55.6962 26.8779C55.7183 26.8989 55.7382 26.9189 55.7571 26.9367C55.7666 26.9462 55.775 26.9546 55.7844 26.964C55.7928 26.9724 55.8002 26.9798 55.8086 26.9882C55.8159 26.9955 55.8233 27.0029 55.8296 27.0092C55.8485 27.0281 55.8632 27.0428 55.8705 27.0512C55.9104 27.0963 55.9514 27.1436 55.9923 27.195C56.0942 27.32 56.1981 27.4638 56.3021 27.6203C56.3231 27.6518 56.3451 27.6843 56.3661 27.7169C56.4071 27.7809 56.4491 27.846 56.489 27.9132C56.489 27.9143 56.49 27.9143 56.49 27.9143C56.552 28.0161 56.6129 28.1201 56.6717 28.2272C56.951 28.7259 57.2009 29.2698 57.3573 29.7381C57.4151 29.9061 57.4592 30.0647 57.4886 30.2075C58.6677 35.9132 53.3264 40.0176 48.1488 38.8721L48.1509 38.8731Z" fill="#031638"/>
<path d="M57.4896 30.2074C57.4602 30.0646 57.4161 29.9071 57.3594 29.7391C57.2029 29.2708 56.953 28.7269 56.6737 28.2282C56.6139 28.1211 56.553 28.0171 56.4921 27.9153C56.4921 27.9153 56.491 27.9153 56.491 27.9142C56.4501 27.8481 56.4091 27.7819 56.3682 27.7179C56.3472 27.6853 56.3251 27.6528 56.3041 27.6213C56.2002 27.4648 56.0952 27.321 55.9944 27.196C55.9534 27.1446 55.9125 27.0973 55.8726 27.0522C55.8652 27.0438 55.8505 27.0291 55.8316 27.0102C55.8253 27.0039 55.818 26.9965 55.8106 26.9892C55.8022 26.9808 55.7949 26.9734 55.7865 26.965C55.777 26.9556 55.7686 26.9472 55.7592 26.9377C55.7403 26.9199 55.7203 26.8999 55.6983 26.8789C55.4347 26.6238 54.9727 26.1891 54.9307 26.1649C54.9066 26.1513 54.8845 26.1376 54.8614 26.1261C54.8415 26.1145 54.8205 26.1051 54.7995 26.0977C54.7659 26.0851 54.7302 26.0799 54.6892 26.083C49.5526 26.2584 45.1258 29.0472 42.714 33.5086C42.7024 33.5296 42.6142 33.6997 42.5061 33.9213C42.505 33.9213 42.5061 33.9223 42.5061 33.9223C42.4546 34.0242 42.4011 34.1365 42.3486 34.251C42.3486 34.251 42.3475 34.251 42.3486 34.252C42.3307 34.2898 42.3139 34.3287 42.2961 34.3654C42.295 34.3654 42.2961 34.3665 42.2961 34.3665C42.2436 34.4809 42.1953 34.5933 42.1564 34.6941C42.1554 34.6951 42.1564 34.6951 42.1564 34.6951C42.1228 34.7791 42.0966 34.8547 42.0787 34.9177L41.4655 33.6682C41.2891 33.3711 41.1148 33.0907 40.9342 32.8177C40.8145 32.6361 40.6927 32.4576 40.5667 32.2791C40.5037 32.1888 40.4397 32.1006 40.3746 32.0113C40.3746 32.0113 40.3735 32.0113 40.3735 32.0103C40.3084 31.9221 40.2423 31.8328 40.174 31.7425C40.1058 31.6522 40.0354 31.5609 39.964 31.4695C39.7519 31.1965 39.5346 30.9361 39.3109 30.6841C39.2217 30.5844 39.1314 30.4857 39.0411 30.388C39.0411 30.388 39.0407 30.388 39.04 30.388C38.9487 30.2914 38.8563 30.1959 38.7628 30.1014C38.6694 30.0079 38.5749 29.9155 38.4804 29.8242C38.0488 29.4147 37.5952 29.0356 37.1133 28.6881C37.0072 28.6104 36.8991 28.5348 36.7899 28.4613C36.7342 28.4235 36.6786 28.3867 36.6229 28.35C36.457 28.2408 36.2869 28.1347 36.1137 28.0329C36.1137 28.0329 36.1133 28.0329 36.1126 28.0329C35.9404 27.93 35.764 27.8313 35.5834 27.7357C35.4028 27.6391 35.218 27.5457 35.0301 27.4554C34.9146 27.3997 34.7991 27.3472 34.6825 27.2958C34.5082 27.2191 34.3329 27.1467 34.1565 27.0784C33.9801 27.0091 33.8026 26.9451 33.6241 26.8863C33.5643 26.8653 33.5044 26.8464 33.4446 26.8264C32.9794 26.6763 32.508 26.5534 32.0302 26.4537C32.005 26.4474 31.9788 26.4421 31.9536 26.4379C31.4821 26.3413 31.0054 26.2668 30.5235 26.2122C30.5088 26.209 30.4951 26.208 30.4804 26.2069C30.367 26.1943 30.2547 26.1828 30.1413 26.1723C30.1297 26.1702 30.1182 26.1691 30.1066 26.1691C29.9911 26.1586 29.8756 26.1492 29.7591 26.1397C29.7496 26.1387 29.7402 26.1376 29.7307 26.1376C29.5449 26.124 29.358 26.1124 29.1711 26.104C28.9243 26.3214 28.687 26.5471 28.4634 26.7834C28.4623 26.7844 28.4634 26.7844 28.4634 26.7844C28.1484 27.1162 27.8617 27.4669 27.6108 27.847C27.6108 27.847 27.6108 27.8474 27.6108 27.8481C27.5383 27.9562 27.469 28.0665 27.4039 28.1799C27.3378 28.2943 27.2748 28.4098 27.216 28.5274C26.9556 29.0493 26.7592 29.589 26.628 30.1392C26.6269 30.1392 26.628 30.1402 26.628 30.1402C26.3151 31.4485 26.3707 32.8093 26.8138 34.0914C26.9293 34.4284 27.0721 34.7602 27.2422 35.0836C27.6297 35.8186 28.1211 36.456 28.6912 36.9915C31.1125 39.2658 34.9303 39.7099 37.9984 38.116C38.2063 38.0079 38.6778 37.5963 38.8731 37.6488C38.8783 37.6498 38.8836 37.6509 38.8888 37.654C38.893 37.654 38.8983 37.6572 38.9025 37.6603L42.042 42.8736L45.1111 37.6309C45.1311 37.6173 45.1699 37.6204 45.2235 37.6372C45.3432 37.6719 45.5322 37.7727 45.7275 37.885C45.76 37.9029 45.7915 37.9218 45.8241 37.9396C46.0687 38.0824 46.3039 38.2284 46.4037 38.2756C46.6903 38.4111 46.9801 38.5276 47.272 38.6274C47.5639 38.7271 47.8569 38.809 48.1509 38.8741C48.1519 38.8741 48.153 38.8741 48.153 38.8741C53.3305 40.0165 58.6708 35.9131 57.4917 30.2085L57.4896 30.2074ZM35.5551 35.0385C31.7068 36.519 28.3038 31.8223 31.6575 29.0734C32.6487 28.2607 34.146 28.0213 35.3661 28.4319C35.4186 28.4497 35.47 28.4676 35.5204 28.4865C35.6212 28.5253 35.7189 28.5663 35.8144 28.6114C35.9562 28.6776 36.0916 28.7511 36.2197 28.8309C36.3909 28.9369 36.5484 29.0545 36.6943 29.1795C36.7668 29.2425 36.8371 29.3076 36.9022 29.3758C38.5581 31.0558 38.1979 34.0221 35.5551 35.0385ZM42.0399 40.7263L38.8195 34.8799C38.7912 34.7875 38.8353 34.7571 38.9014 34.7539H38.9046C38.935 34.7518 38.9707 34.7571 39.0054 34.7634H39.0064C39.0579 34.7739 39.1072 34.7886 39.1408 34.797C40.1856 35.0626 40.7106 35.5719 41.3133 36.4024C41.3479 36.4507 41.4571 36.478 41.5096 36.5599C41.5758 36.6628 41.9884 37.6939 42.0787 37.6246C42.21 37.17 42.4252 36.729 42.7066 36.3342C42.7917 36.2166 42.882 36.1021 42.9775 35.9929C43.0416 35.9205 43.1088 35.8501 43.177 35.7819C43.7619 35.2044 44.5116 34.8106 45.3411 34.7623L42.0399 40.7263ZM53.6833 32.3904C53.6707 32.4471 53.6571 32.5038 53.6424 32.5605C53.6203 32.6445 53.5941 32.7274 53.5647 32.8093C53.5447 32.8639 53.5237 32.9185 53.5006 32.9721C53.4891 32.9994 53.4775 33.0256 53.466 33.0519C53.4418 33.1054 53.4166 33.1579 53.3893 33.2104C53.3757 33.2367 53.362 33.2619 53.3484 33.2881C53.3053 33.3648 53.2602 33.4404 53.2119 33.5149C53.1804 33.5643 53.1468 33.6136 53.1121 33.6619C53.0775 33.7092 53.0418 33.7575 53.004 33.8037C52.9672 33.8499 52.9294 33.8961 52.8895 33.9412C52.8507 33.9864 52.8097 34.0305 52.7677 34.0735C52.7467 34.0956 52.7257 34.1166 52.7037 34.1386C51.9099 34.9282 50.7465 35.4133 49.518 35.3167C48.1477 35.2086 46.5769 34.042 46.2546 32.6938C45.3001 28.7007 50.6289 26.5377 53.0869 29.8798C53.697 30.7093 53.8513 31.5871 53.6833 32.3904Z" fill="#FCFCFC"/>
<path d="M55.9691 56.6255C55.9555 56.594 55.9355 56.5677 55.9135 56.5425C55.8977 56.5257 55.8809 56.51 55.862 56.4942C55.862 56.4942 55.861 56.4942 55.8599 56.4921C55.8358 56.4722 55.8095 56.4522 55.7843 56.4312C55.735 56.3924 55.6888 56.3514 55.6573 56.2989C55.2583 55.628 54.9128 54.8951 54.6178 54.1202C54.6115 54.1013 54.6041 54.0834 54.5968 54.0645C54.4519 53.6771 54.3196 53.2802 54.1999 52.8749C54.0161 52.2554 53.8618 51.618 53.7347 50.9702C53.6938 50.756 53.6549 50.5407 53.6192 50.3244C53.6014 50.2163 53.5846 50.1081 53.5678 49.9989C53.2454 47.8485 53.2223 45.6498 53.4638 43.7231C53.5489 43.0416 53.7053 42.3549 53.8513 41.685C53.8502 41.685 53.8502 41.684 53.8492 41.684C53.8471 41.6819 53.8439 41.6798 53.8408 41.6777C53.5667 41.5338 50.6078 42.1208 50.1416 42.23C47.2814 42.8999 44.5031 44.0895 42.0251 45.6498C42.0241 45.6498 42.0241 45.6488 42.023 45.6477C41.8876 45.5648 41.7511 45.4818 41.6146 45.3999C39.5492 44.1662 37.3211 43.1697 35.0006 42.5177C34.3843 42.3444 30.4321 41.4341 30.1475 41.684C30.9298 44.9831 30.8678 48.4848 30.1087 51.786C29.8189 53.0429 29.065 55.104 28.415 56.2191C28.2911 56.4312 27.953 56.4921 28.0895 56.9037C28.0916 56.91 28.0937 56.9153 28.0958 56.9205C28.1042 56.9352 28.1137 56.9478 28.1273 56.9594C28.1357 56.9678 28.1462 56.9751 28.1567 56.9825C28.1672 56.9909 28.1788 56.9982 28.1903 57.0035C28.2019 57.0119 28.2145 57.0192 28.2271 57.0255C28.2607 57.0465 28.2943 57.0675 28.3174 57.0969C28.8791 57.8172 30.073 59.3859 30.745 59.8973C30.7901 59.9319 30.829 59.9582 30.8615 59.9771C31.1566 60.1535 30.9896 59.7776 31.2112 59.8269L33.4666 61.2318L33.4687 61.2339C33.9275 61.4135 36.1882 60.08 36.4213 60.2102C36.4244 60.2123 36.4265 60.2144 36.4286 60.2154L36.4307 60.2175C36.4034 60.9231 36.4223 61.8975 36.1987 62.5674C36.1556 62.6966 36.0622 62.6934 36.0412 62.747C35.9687 62.9349 35.639 63.6615 35.6338 63.7634C35.6306 63.8253 35.6464 63.8789 35.6747 63.9261C35.6863 63.9471 35.702 63.9671 35.7199 63.986C35.7283 63.9954 35.7367 64.0049 35.7461 64.0133C35.8312 64.0941 35.9498 64.1561 36.0443 64.2222C36.2575 64.3713 36.4864 64.5152 36.7226 64.6548C36.7814 64.6895 36.8423 64.7241 36.9022 64.7588C36.9631 64.7934 37.025 64.8281 37.088 64.8627C37.2088 64.9299 37.3316 64.9961 37.4555 65.0601C37.5815 65.1263 37.7075 65.1903 37.8346 65.2533C37.9585 65.3163 38.0824 65.3762 38.2063 65.436C38.3312 65.4969 38.4562 65.5557 38.579 65.6145C38.7008 65.6712 38.8205 65.7279 38.9381 65.7825C38.9665 65.6513 38.894 65.5568 38.8121 65.4759C38.7775 65.4413 38.7407 65.4098 38.7092 65.3783C38.6861 65.3552 38.6662 65.3331 38.6504 65.3111C38.6452 65.3027 38.6399 65.2953 38.6357 65.2869C38.3669 64.7714 38.0005 63.609 37.9427 63.0399L37.9448 63.042C37.8797 62.3994 37.9448 61.5636 37.9448 60.8948C37.9448 60.8748 38.0687 60.7457 38.1349 60.7824L42.0346 63.084L46.0561 60.7772H46.0582V63.1229C46.0582 63.5082 45.5678 64.9961 45.3652 65.3688C45.3022 65.4833 45.0428 65.5967 45.0628 65.7825V65.7857L48.4438 63.9566C48.3503 63.7865 48.2747 63.6122 48.2065 63.4368C48.197 63.4106 48.1876 63.3854 48.1771 63.3591C48.1403 63.2583 48.1046 63.1575 48.0689 63.0557C48.0689 63.0557 48.0686 63.055 48.0679 63.0536C48.0332 62.9517 47.9975 62.8499 47.9597 62.748C47.8243 62.3826 47.5691 61.9101 47.5691 61.4523V60.2196C48.2852 60.2396 49.9337 61.3946 50.5322 61.236L52.7792 59.8238H52.7803L52.8979 60.1367V60.1398C54.0707 59.2179 54.9517 57.9705 55.9691 56.8806C56.0048 56.7683 55.9985 56.6885 55.9691 56.6255ZM32.8135 58.2414C32.7967 58.2299 32.7757 58.2162 32.7526 58.2015C32.7526 58.2015 32.7515 58.2015 32.7515 58.2005C32.7358 58.19 32.7179 58.1784 32.7001 58.1658H32.699C32.6812 58.1532 32.6612 58.1396 32.6413 58.1259C32.4271 57.9779 32.1268 57.7626 32.0848 57.7238C31.6081 57.2807 31.2385 56.5215 31.0211 55.8894C31.0064 55.8464 30.9928 55.8044 30.9791 55.7634C30.7922 55.1807 30.6893 54.4016 30.7775 53.7275C30.7922 53.6193 30.8647 53.6162 30.9088 53.5931H30.9098C30.9235 53.5836 30.935 53.5742 30.9392 53.5563C31.0064 53.3075 31.0106 52.9893 31.0831 52.6985C31.1009 52.626 31.123 52.5546 31.1524 52.4874C31.1618 52.4643 31.1723 52.4423 31.1828 52.4202C31.1944 52.4118 31.2175 52.4139 31.2511 52.4255C31.6238 52.5515 33.2807 53.8293 33.7795 53.99C33.8047 53.9984 33.8278 54.0036 33.8467 54.0057C33.875 53.9963 33.9181 53.9805 33.9727 53.9595H33.9737C33.9916 53.9522 34.0105 53.9438 34.0315 53.9364C34.0525 53.9291 34.0735 53.9196 34.0966 53.9102C34.1186 53.9007 34.1428 53.8913 34.168 53.8808C34.2173 53.8598 34.2719 53.8377 34.3286 53.8146C34.3423 53.8094 34.357 53.8031 34.3717 53.7968C34.4105 53.78 34.4515 53.7632 34.4935 53.7453C34.5292 53.7306 34.5659 53.7159 34.6027 53.7002C34.6352 53.6865 34.6678 53.6729 34.7014 53.6592C34.7843 53.6246 34.8704 53.5889 34.9565 53.5532C34.9859 53.5416 35.0153 53.529 35.0447 53.5175C35.0552 53.5133 35.0657 53.5091 35.0752 53.5049C35.1172 53.487 35.1592 53.4702 35.2012 53.4534C35.2589 53.4303 35.3156 53.4072 35.3723 53.3841C35.4059 53.3705 35.4395 53.3579 35.4731 53.3453C35.5582 53.3117 35.6401 53.2791 35.7188 53.2497C35.7493 53.2382 35.7797 53.2266 35.8102 53.2161C35.8102 53.2161 35.8105 53.2158 35.8112 53.2151C35.8406 53.2046 35.87 53.193 35.8984 53.1836C35.8994 53.1836 35.8994 53.1825 35.8994 53.1825C35.9278 53.1731 35.9551 53.1636 35.9824 53.1542C35.996 53.1489 36.0097 53.1447 36.0223 53.1405C36.2207 53.0733 36.3667 53.0355 36.4171 53.0502C36.4202 53.0513 36.4234 53.0523 36.4265 53.0534C36.4276 53.0544 36.4297 53.0555 36.4307 53.0565C36.4255 53.2539 36.4454 53.4545 36.4307 53.6519C36.415 53.8619 36.3845 54.0782 36.3404 54.2955C36.3194 54.4047 36.2932 54.515 36.2638 54.6252C36.2344 54.7344 36.2018 54.8447 36.1672 54.9539C36.1304 55.0641 36.0926 55.1733 36.0506 55.2815V55.2825C36.0076 55.3917 35.9624 55.4988 35.9152 55.6059C35.9152 55.6059 35.9162 55.6059 35.9152 55.607C35.6726 56.1425 35.3545 56.6517 34.9723 57.0833C34.8557 57.2145 34.736 57.3363 34.61 57.4508C34.441 57.603 34.2635 57.7406 34.0766 57.8613C33.9832 57.9212 33.8876 57.9758 33.79 58.0272C33.7889 58.0283 33.7889 58.0272 33.7889 58.0272C33.7396 58.0524 33.6902 58.0755 33.6398 58.0986C33.6052 58.1144 33.5695 58.1312 33.5327 58.148C33.3185 58.2425 33.0655 58.338 32.8597 58.2666C32.8534 58.2645 32.8376 58.2561 32.8156 58.2414H32.8135ZM35.471 49.9863C34.9996 50.295 34.7192 50.5586 34.1795 50.2572C34.105 50.2152 34.0273 50.1648 33.9485 50.1071C33.8698 50.0493 33.79 49.9842 33.7091 49.9118C33.013 49.2902 32.2958 48.2013 32.2958 47.4485C32.2958 46.9592 32.2297 46.2273 32.2958 45.7779C32.2969 45.7695 32.3105 45.7401 32.3273 45.7055C32.3389 45.6824 32.3515 45.6582 32.3651 45.6362C32.3714 45.6257 32.3777 45.6162 32.384 45.6078C32.3903 45.5984 32.3956 45.591 32.4008 45.5868C32.4061 45.5816 32.4113 45.5784 32.4145 45.5795L34.8085 47.0117C34.9103 46.9844 35.0111 46.9529 35.1119 46.9182C35.4973 46.7838 35.8753 46.598 36.2533 46.4111C36.5641 46.2567 36.8759 46.1024 37.1899 45.9774C37.4356 47.5241 36.793 49.1222 35.471 49.9863ZM47.2636 46.1675C47.3738 46.221 47.4935 46.2809 47.6195 46.3428C47.6206 46.3428 47.6206 46.3439 47.6206 46.3439C47.7151 46.3911 47.8117 46.4394 47.9083 46.4888C47.9083 46.4888 47.9093 46.4888 47.9093 46.4898C48.0385 46.5549 48.1687 46.62 48.2947 46.6809C48.2957 46.6809 48.2957 46.682 48.2957 46.682C48.3587 46.7124 48.4207 46.7418 48.4805 46.7702C48.6611 46.8542 48.8249 46.9245 48.9551 46.9676C49.0591 47.0022 49.141 47.019 49.1924 47.0117C49.4854 46.9707 51.4583 45.5301 51.6179 45.5763C51.62 45.5763 51.6221 45.5774 51.6232 45.5784L51.6242 45.5805C51.8269 46.514 51.7324 47.5997 51.3344 48.5247V48.5258C51.2977 48.6129 51.2567 48.698 51.2137 48.782C51.1276 48.95 51.031 49.1117 50.9239 49.265C50.8714 49.3406 50.8147 49.4141 50.7548 49.4855C50.7538 49.4855 50.7548 49.4865 50.7548 49.4865C50.696 49.5579 50.6341 49.6262 50.569 49.6923C50.5049 49.7595 50.4377 49.8225 50.3674 49.8834C50.3674 49.8834 50.3663 49.8824 50.3663 49.8834C50.1563 50.0661 49.9211 50.2205 49.6618 50.3412C49.4749 50.4273 49.3289 50.4168 49.1819 50.3633C49.1704 50.358 49.1588 50.3538 49.1473 50.3496C49.1242 50.3402 49.1011 50.3297 49.078 50.3192C49.0423 50.3003 49.0066 50.2814 48.9688 50.2614C48.9446 50.2488 48.9194 50.2352 48.8942 50.2215C48.869 50.2068 48.8417 50.1921 48.8144 50.1774C48.7661 50.1522 48.7199 50.126 48.6737 50.0987C48.5824 50.0462 48.4942 49.9895 48.4091 49.9307C48.239 49.812 48.0826 49.6839 47.9398 49.5453C47.8694 49.4771 47.8022 49.4067 47.7382 49.3343C47.5765 49.1505 47.4358 48.9542 47.3129 48.7452C47.2657 48.6633 47.2205 48.5793 47.1785 48.4943C47.1365 48.4082 47.0966 48.32 47.0599 48.2297C47.0053 48.0953 46.957 47.9577 46.9139 47.817C46.8856 47.7215 46.8604 47.6259 46.8373 47.5283C46.8152 47.4338 46.7953 47.3372 46.7785 47.2395C46.7606 47.1398 46.7459 47.039 46.7333 46.9371C46.6966 46.6242 46.6829 46.3029 46.6924 45.9774C46.7354 45.9333 46.9601 46.0236 47.2615 46.1664H47.2625L47.2636 46.1675ZM38.6588 47.649H38.6599L38.9717 47.6931L41.9726 49.4645H41.9737L45.1804 47.648C45.1079 47.8569 45.3284 47.8653 45.3463 48.0008C45.3788 48.2465 45.3788 49.0382 45.3463 49.2839C45.3452 49.2902 45.3421 49.3059 45.3358 49.3301C45.3358 49.3332 45.3347 49.3364 45.3337 49.3395C45.3305 49.3511 45.3263 49.3647 45.3221 49.3805C45.3169 49.3994 45.3116 49.4214 45.3043 49.4456C45.2969 49.4708 45.2896 49.4981 45.2812 49.5275C45.2728 49.5569 45.2633 49.5894 45.2528 49.623C45.2476 49.6409 45.2423 49.6598 45.236 49.6787C45.2077 49.7795 45.1751 49.8876 45.1468 49.9853C45.1342 50.0294 45.1216 50.0714 45.1111 50.1092C45.1027 50.1375 45.0943 50.1648 45.088 50.189C45.0775 50.2236 45.0691 50.253 45.0628 50.274C45.0323 50.3832 44.9998 50.4903 44.9651 50.5953C44.8979 50.8043 44.8223 51.0027 44.7394 51.1917C44.6984 51.2862 44.6554 51.3776 44.6102 51.4679C44.542 51.6033 44.4706 51.7335 44.3939 51.8585C44.3435 51.9414 44.29 52.0233 44.2343 52.1031C44.0684 52.3415 43.8836 52.562 43.6778 52.7678C43.2316 53.213 42.6877 53.5878 42.0262 53.9186C42.0262 53.9196 42.0251 53.9196 42.0251 53.9196C41.602 53.6708 41.1221 53.4723 40.7336 53.1699C40.0805 52.6617 39.6364 52.0601 39.313 51.3744C39.313 51.3744 39.314 51.3734 39.313 51.3734C39.1177 50.9628 38.9665 50.5218 38.8384 50.0525C38.7439 49.7081 38.6588 49.6629 38.6588 49.6367V47.649ZM45.9563 56.0984C45.8996 56.4417 45.8135 56.7767 45.7012 57.1001C45.6329 57.2943 45.5563 57.4833 45.4691 57.6692C45.4124 57.7941 45.3505 57.9159 45.2854 58.0346C44.9588 58.6352 44.5378 59.1833 44.0474 59.6631C43.4594 60.2417 42.7706 60.7215 42.0251 61.0764C41.959 61.047 41.8928 61.0155 41.8277 60.984C41.6965 60.921 41.5652 60.8528 41.4371 60.7814C41.2439 60.6743 41.0549 60.5577 40.8712 60.4328C40.5026 60.1829 40.1561 59.8994 39.8464 59.5854C39.6395 59.3775 39.4484 59.1549 39.2762 58.9208C38.158 57.3962 37.7212 55.5083 38.0225 53.613L42.0251 55.9094L45.9763 53.613C46.1023 54.4278 46.0897 55.2836 45.9563 56.0984ZM52.7834 56.3903C52.7635 56.4438 52.7446 56.4953 52.7246 56.5467C52.6553 56.7221 52.5755 56.8796 52.4726 57.0329C52.4285 57.098 52.3802 57.162 52.3277 57.2271C52.292 57.2691 52.2542 57.3122 52.2143 57.3563C52.1734 57.3993 52.1303 57.4434 52.0841 57.4875C52.0379 57.5316 51.9896 57.5757 51.9382 57.6219C51.8332 57.7133 51.7166 57.8088 51.5843 57.9096C51.3134 58.1165 51.2126 58.2446 51.0961 58.2855C50.9659 58.3317 50.8136 58.2677 50.3779 58.0818C49.8203 57.8435 49.2428 57.3836 48.8375 56.8827C48.8365 56.8817 48.8375 56.8817 48.8375 56.8817C48.7756 56.804 48.7178 56.7263 48.6643 56.6486V56.6475C48.638 56.6087 48.6128 56.5688 48.5887 56.5299C48.5582 56.4795 48.5278 56.4291 48.4963 56.3766C48.4648 56.3231 48.4343 56.2685 48.406 56.2139C48.3461 56.1036 48.2884 55.9902 48.2306 55.8737C48.1739 55.7561 48.1193 55.6353 48.0679 55.5125C47.8085 54.8993 47.6132 54.2357 47.5691 53.6519C47.5544 53.4545 47.5744 53.2539 47.5691 53.0565C47.5723 53.0544 47.5765 53.0513 47.5817 53.0502C47.6353 53.0345 47.8169 53.0838 48.0626 53.1689C48.1487 53.1983 48.2422 53.2319 48.3409 53.2676C48.3409 53.2676 48.3409 53.2686 48.3419 53.2686C48.3745 53.2802 48.4081 53.2928 48.4417 53.3054C48.4585 53.3127 48.4763 53.319 48.4942 53.3253C48.5456 53.3442 48.5981 53.3642 48.6506 53.3852C48.6506 53.3852 48.6506 53.3855 48.6506 53.3862C48.6863 53.3988 48.722 53.4125 48.7567 53.4261C48.7567 53.4261 48.7567 53.4272 48.7577 53.4272C48.7934 53.4408 48.8291 53.4545 48.8648 53.4692H48.8659C49.4623 53.7033 50.0713 53.9564 50.233 54.0078C50.2382 54.0057 50.2445 54.0036 50.2508 54.0026C50.297 53.9847 50.3611 53.9522 50.4388 53.906C50.4608 53.8934 50.4839 53.8797 50.507 53.865C50.569 53.8283 50.6362 53.7852 50.7086 53.738C50.737 53.7191 50.7664 53.7002 50.7958 53.6802C50.842 53.6498 50.8892 53.6183 50.9375 53.5857C50.9858 53.5532 51.0341 53.5206 51.0845 53.487C51.1181 53.4629 51.1517 53.4398 51.1853 53.4177H51.1864C51.22 53.3925 51.2546 53.3694 51.2893 53.3463C51.3071 53.3337 51.325 53.3222 51.3428 53.3096C51.3953 53.2739 51.4478 53.2382 51.5003 53.2025C51.5192 53.1899 51.5371 53.1773 51.5549 53.1647C51.6074 53.129 51.6599 53.0933 51.7124 53.0586C51.7303 53.046 51.7481 53.0345 51.766 53.0219C51.8699 52.9515 51.9728 52.8833 52.0715 52.8203H52.0726C52.1702 52.7552 52.2647 52.6953 52.3519 52.6428C52.6322 52.4738 52.8401 52.374 52.8947 52.4202C52.922 52.5378 52.943 52.6596 52.9609 52.7835C52.9661 52.8245 52.9724 52.8665 52.9787 52.9074C52.9903 52.9893 53.0018 53.0723 53.0144 53.1531C53.0207 53.1941 53.0281 53.235 53.0354 53.2749C53.0428 53.3148 53.0512 53.3547 53.0596 53.3936C53.0627 53.4104 53.0732 53.4209 53.0869 53.4303C53.0942 53.4345 53.1026 53.4387 53.111 53.4419C53.1247 53.4471 53.1383 53.4534 53.1509 53.4608C53.1593 53.465 53.1688 53.4713 53.1761 53.4797C53.1803 53.4828 53.1845 53.487 53.1877 53.4912C53.1919 53.4954 53.195 53.5007 53.1982 53.5059C53.2055 53.5164 53.2108 53.529 53.2139 53.5437C53.216 53.5511 53.2181 53.5595 53.2192 53.5679C53.2601 53.886 53.2601 54.9308 53.2192 55.2489C53.216 55.2762 53.2087 55.2962 53.1992 55.3119H53.1982C53.1919 55.3235 53.1845 55.3329 53.1761 55.3392C53.1373 55.3739 53.0837 55.3749 53.0638 55.4096C53.0627 55.4138 53.0606 55.418 53.0596 55.4222C52.9535 55.8128 52.8737 56.1236 52.7803 56.3903H52.7834Z" fill="#3A5070"/>
<path d="M45.9764 53.613C46.1024 54.4278 46.0898 55.2835 45.9565 56.0983C45.5963 58.2939 44.0119 60.1293 42.0253 61.0753C40.9658 60.6018 39.9631 59.8573 39.2764 58.9207C38.1581 57.3961 37.7213 55.5072 38.0227 53.6119L42.0253 55.9083L45.9764 53.6119V53.613Z" fill="#031638"/>
<path d="M38.6589 47.648L38.9729 47.6921L41.9738 49.4634L45.1815 47.6469C45.1091 47.8559 45.3296 47.8643 45.3474 47.9997C45.38 48.2454 45.38 49.0361 45.3474 49.2828C45.3401 49.3406 45.1143 50.0892 45.0639 50.273C44.5715 52.0275 43.6569 53.1027 42.0263 53.9186C41.6031 53.6687 41.1233 53.4713 40.7348 53.1689C39.69 52.3551 39.1808 51.3041 38.8395 50.0514C38.7461 49.707 38.66 49.6619 38.66 49.6356V47.6469L38.6589 47.648Z" fill="#031638"/>
<path d="M52.897 52.4202C52.9716 52.7363 52.9936 53.0796 53.0619 53.3946C53.0766 53.4629 53.2036 53.4272 53.2215 53.5689C53.2624 53.8871 53.2624 54.9318 53.2215 55.25C53.2026 55.3928 53.0808 55.3518 53.0619 55.4232C52.7238 56.6727 52.6419 57.1022 51.5845 57.9096C51.0091 58.3485 51.2034 58.4357 50.377 58.0829C49.6914 57.7899 48.9732 57.1589 48.5878 56.531C48.0954 55.7267 47.6386 54.5864 47.5683 53.6529C47.5536 53.4555 47.5735 53.255 47.5683 53.0576C47.6775 52.9421 49.9003 53.9028 50.2332 54.0089C50.6259 53.8871 52.707 52.2585 52.896 52.4213L52.897 52.4202Z" fill="#031638"/>
<path d="M36.4318 53.0576C36.4265 53.255 36.4465 53.4555 36.4318 53.6529C36.3047 55.334 35.2442 57.372 33.6398 58.0997C33.4078 58.2047 33.0991 58.3517 32.8586 58.2677C32.8124 58.2519 32.1488 57.7826 32.0848 57.7238C31.5766 57.2513 31.1891 56.4186 30.9802 55.7645C30.7933 55.1817 30.6904 54.4026 30.7786 53.7285C30.7975 53.5836 30.9214 53.6277 30.9403 53.5574C31.0295 53.2256 31.0064 52.7678 31.1839 52.4213C31.3319 52.3142 33.4256 53.9637 33.8477 54.0068C34.1743 53.9007 36.3152 52.9347 36.4328 53.0586H36.4318V53.0576Z" fill="#031638"/>
<path d="M51.6244 45.5794C51.9982 47.3056 51.3619 49.5516 49.662 50.3401C49.3291 50.4945 49.1212 50.3401 48.8157 50.1774C47.2249 49.33 46.6453 47.713 46.6926 45.9763C46.8301 45.8346 48.8157 47.0641 49.1916 47.0106C49.4887 46.9686 51.5194 45.4828 51.6234 45.5784H51.6244V45.5794Z" fill="#031638"/>
<path d="M32.296 45.7779C32.2992 45.7558 32.3905 45.5721 32.4147 45.5794L34.8087 47.0116C35.6224 46.7964 36.3952 46.2945 37.1901 45.9774C37.4358 47.524 36.7932 49.1221 35.4712 49.9863C34.9998 50.295 34.7194 50.5585 34.1797 50.2572C33.3817 49.8109 32.296 48.3745 32.296 47.4484C32.296 46.9591 32.2299 46.2273 32.296 45.7779Z" fill="#031638"/>
<path d="M36.9024 29.3759C36.8362 29.3076 36.7669 29.2425 36.6945 29.1795C36.5485 29.0546 36.391 28.937 36.2199 28.8309C36.0918 28.7522 35.9563 28.6787 35.8146 28.6115C35.719 28.5674 35.6214 28.5254 35.5206 28.4865C35.4702 28.4676 35.4187 28.4498 35.3662 28.4319C34.1461 28.0214 32.6488 28.2608 31.6576 29.0735C28.3039 31.8224 31.707 36.519 35.5552 35.0385C38.1981 34.0221 38.5582 31.0559 36.9024 29.3759ZM33.2746 31.794C33.2179 31.7436 33.0835 31.5011 33.0531 31.4192C32.3317 29.4777 35.6088 29.1039 35.529 30.9719C35.4817 32.0912 34.0474 32.4818 33.2746 31.794Z" fill="#031638"/>
<path d="M53.0871 29.8799C50.629 26.5377 45.3003 28.7007 46.2547 32.6939C46.5771 34.0421 48.1479 35.2086 49.5181 35.3168C50.7466 35.4134 51.91 34.9283 52.7038 34.1387C52.7259 34.1166 52.7469 34.0956 52.7679 34.0736C52.8099 34.0305 52.8508 33.9864 52.8897 33.9413C52.9296 33.8961 52.9674 33.8499 53.0041 33.8037C53.0419 33.7575 53.0776 33.7092 53.1123 33.662C53.1469 33.6137 53.1805 33.5643 53.212 33.515C53.2603 33.4404 53.3065 33.3648 53.3485 33.2882C53.3622 33.2619 53.3758 33.2367 53.3895 33.2105C53.4168 33.158 53.442 33.1055 53.4661 33.0519C53.4777 33.0257 53.4892 32.9994 53.5008 32.9721C53.5239 32.9186 53.5449 32.864 53.5648 32.8094C53.5942 32.7275 53.6205 32.6445 53.6425 32.5605C53.6572 32.5038 53.6709 32.4471 53.6835 32.3904C53.8515 31.5872 53.6971 30.7094 53.0871 29.8799ZM50.6469 31.8518C50.6185 31.8738 50.5891 31.8959 50.5587 31.9158C50.5272 31.9358 50.4946 31.9557 50.461 31.9736C50.3434 32.0376 50.209 32.087 50.0568 32.1185C49.8825 32.1552 49.7218 32.1626 49.5759 32.1479C49.5286 32.1426 49.4845 32.1363 49.4404 32.1269C49.2451 32.0849 49.0782 31.9988 48.9417 31.8833C48.9123 31.8581 48.8829 31.8308 48.8556 31.8024C48.2581 31.1798 48.3988 29.9345 49.4583 29.7717C49.599 29.7497 49.7313 29.7434 49.8552 29.7486C49.9066 29.7507 49.957 29.7549 50.0064 29.7612C50.104 29.7749 50.1954 29.7969 50.2804 29.8253C50.3224 29.84 50.3634 29.8568 50.4022 29.8746C50.4999 29.9198 50.5881 29.9754 50.6647 30.0384C50.6962 30.0647 50.7256 30.0909 50.7529 30.1193C51.2212 30.5949 51.2034 31.4108 50.6469 31.8518Z" fill="#031638"/>
<path d="M42.0788 37.6247C42.4988 36.1704 43.7788 34.8537 45.3412 34.7624L42.04 40.7264L38.8196 34.88C38.7587 34.6805 38.7965 34.7466 38.9047 34.754C40.3285 34.8527 41.705 36.1893 42.0788 37.6247Z" fill="#031638"/>
<path d="M33.2746 31.794C33.2179 31.7436 33.0835 31.5011 33.053 31.4192C32.3317 29.4777 35.6087 29.1039 35.5289 30.9719C35.4817 32.0912 34.0474 32.4817 33.2746 31.794Z" fill="#FCFCFC"/>
<path d="M49.4583 29.7717C51.343 29.4819 51.6538 31.7856 50.0568 32.1185C48.3127 32.4828 47.9326 30.0059 49.4583 29.7717Z" fill="#FCFCFC"/>
<path d="M105.008 46.16H103.728V56H99.5675L99.0475 53.28C98.2475 54.2133 97.2208 54.9733 95.9675 55.56C94.7408 56.12 93.2875 56.4 91.6075 56.4C87.9542 56.4 85.0475 55.1333 82.8875 52.6C80.7542 50.0667 79.6875 46.9333 79.6875 43.2C79.6875 39.4667 80.8208 36.2667 83.0875 33.6C85.3542 30.9333 88.6875 29.6 93.0875 29.6C95.1942 29.6 97.1008 29.9067 98.8075 30.52C100.541 31.1333 101.834 31.8667 102.688 32.72L103.408 38.36L99.0875 38.76L98.3675 35.72C97.6742 35.2667 96.7942 34.92 95.7275 34.68C94.6875 34.44 93.7275 34.32 92.8475 34.32C90.7142 34.32 88.9408 35.04 87.5275 36.48C86.1408 37.92 85.4475 40.1333 85.4475 43.12C85.4475 46 86.1008 48.1467 87.4075 49.56C88.7408 50.9733 90.4608 51.68 92.5675 51.68C94.3275 51.68 95.7275 51.2133 96.7675 50.28C97.8075 49.3467 98.3275 48.0267 98.3275 46.32V46.16H93.2475V41.64H105.008V46.16ZM128.793 56H121.033V53.24C119.833 55.32 117.9 56.36 115.233 56.36C113.526 56.36 112.046 55.8533 110.793 54.84C109.54 53.8267 108.913 52.2533 108.913 50.12V41.84H106.513V37.96H114.073V48.12C114.073 49.6933 114.326 50.8133 114.833 51.48C115.366 52.12 116.14 52.44 117.153 52.44C118.38 52.44 119.326 52.04 119.993 51.24C120.686 50.44 121.033 49.4133 121.033 48.16V41.84H118.113V37.96H126.193V52.12H128.793V56ZM132.072 39.24C133.645 38.6 134.952 38.1733 135.992 37.96C137.058 37.72 138.325 37.6 139.792 37.6C141.738 37.6 143.418 38.1067 144.832 39.12C146.245 40.1333 146.952 41.6667 146.952 43.72V51.56C146.952 52.4933 147.365 52.96 148.192 52.96C148.432 52.96 148.685 52.92 148.952 52.84L148.992 55.56C147.952 56.12 146.872 56.4 145.752 56.4C143.378 56.4 142.058 55.2133 141.792 52.84V52.8C141.285 53.7067 140.552 54.5333 139.592 55.28C138.658 56.0267 137.458 56.4 135.992 56.4C134.685 56.4 133.432 56.0133 132.232 55.24C131.032 54.4667 130.432 53.1333 130.432 51.24C130.432 49.0267 131.312 47.56 133.072 46.84C134.858 46.12 136.778 45.76 138.832 45.76C139.978 45.76 140.965 45.8133 141.792 45.92V45.32C141.792 44.3867 141.658 43.48 141.392 42.6C141.152 41.72 140.298 41.28 138.832 41.28C138.298 41.28 137.805 41.32 137.352 41.4C136.925 41.4533 136.498 41.5867 136.072 41.8L135.392 44.36L131.272 43.92L132.072 39.24ZM141.792 48.64V48.4C141.365 48.3467 140.925 48.2933 140.472 48.24C140.045 48.1867 139.618 48.16 139.192 48.16C138.285 48.16 137.485 48.3333 136.792 48.68C136.098 49 135.752 49.6533 135.752 50.64C135.752 51.2267 135.912 51.72 136.232 52.12C136.552 52.52 137.098 52.72 137.872 52.72C138.778 52.72 139.618 52.4 140.392 51.76C141.192 51.0933 141.658 50.0533 141.792 48.64ZM162.146 37.72C162.653 37.72 163.213 37.8 163.826 37.96C164.466 38.0933 165.093 38.3467 165.706 38.72L166.506 45.04L162.586 45.48L161.906 42.4C161.373 42.08 160.906 41.92 160.506 41.92C159.919 41.92 159.399 42.1467 158.946 42.6C158.519 43.0533 158.306 43.72 158.306 44.6V52.12H161.506V56H150.746V52.12H153.146V41.88H150.546V37.96H157.906V41.4C158.199 40.36 158.666 39.4933 159.306 38.8C159.973 38.08 160.919 37.72 162.146 37.72ZM189.482 56H181.922V52.64C181.416 53.68 180.669 54.5733 179.682 55.32C178.696 56.04 177.389 56.4 175.762 56.4C173.389 56.4 171.522 55.5867 170.162 53.96C168.802 52.3333 168.122 50.12 168.122 47.32C168.122 44.6267 168.789 42.3333 170.122 40.44C171.456 38.5467 173.469 37.6 176.162 37.6C177.629 37.6 178.829 37.8933 179.762 38.48C180.696 39.0667 181.416 39.8133 181.922 40.72V32.4H178.322V28.48H187.082V52.12H189.482V56ZM181.922 46.88V46.44C181.922 44.9467 181.522 43.7867 180.722 42.96C179.949 42.1067 178.976 41.68 177.802 41.68C176.656 41.68 175.642 42.1067 174.762 42.96C173.909 43.8133 173.482 45.16 173.482 47C173.482 48.7333 173.882 50.0533 174.682 50.96C175.482 51.8667 176.429 52.32 177.522 52.32C178.882 52.32 179.949 51.7467 180.722 50.6C181.522 49.4533 181.922 48.2133 181.922 46.88ZM193.535 34.76V29.4H198.695V34.76H193.535ZM201.295 56H191.335V52.12H193.735V41.88H191.135V37.96H198.895V52.12H201.295V56ZM218.648 30.12C218.648 31.2667 218.421 32.4267 217.968 33.6C217.514 34.7467 216.634 35.32 215.328 35.32C214.314 35.32 213.421 35.0533 212.648 34.52C211.901 33.96 211.128 33.68 210.328 33.68C209.448 33.68 208.848 34.2533 208.528 35.4L206.528 34.76C206.501 34.2533 206.581 33.6133 206.768 32.84C206.981 32.04 207.341 31.3333 207.848 30.72C208.354 30.1067 209.048 29.8 209.928 29.8C210.834 29.8 211.674 30.0533 212.448 30.56C213.221 31.0667 213.941 31.32 214.608 31.32C215.514 31.32 216.141 30.7733 216.488 29.68L218.648 30.12ZM222.128 47C222.128 49.8533 221.194 52.1333 219.328 53.84C217.461 55.5467 215.088 56.4 212.208 56.4C209.434 56.4 207.168 55.6 205.408 54C203.674 52.3733 202.808 50.1067 202.808 47.2C202.808 44.56 203.608 42.2933 205.208 40.4C206.808 38.5067 209.234 37.56 212.488 37.56C215.741 37.56 218.154 38.5067 219.728 40.4C221.328 42.2667 222.128 44.4667 222.128 47ZM216.808 46.84C216.808 45 216.381 43.6533 215.528 42.8C214.674 41.9467 213.634 41.52 212.408 41.52C211.074 41.52 210.021 42 209.248 42.96C208.501 43.8933 208.128 45.2133 208.128 46.92C208.128 48.4667 208.474 49.7733 209.168 50.84C209.888 51.9067 210.954 52.44 212.368 52.44C213.701 52.44 214.768 51.9467 215.568 50.96C216.394 49.9467 216.808 48.5733 216.808 46.84ZM241.426 50.32C241.293 51.92 240.506 53.3333 239.066 54.56C237.626 55.7867 235.613 56.4 233.026 56.4C230.333 56.4 228.106 55.64 226.346 54.12C224.613 52.6 223.746 50.3333 223.746 47.32C223.746 44.5467 224.533 42.24 226.106 40.4C227.706 38.5333 229.933 37.6 232.786 37.6C235.293 37.6 237.32 38.32 238.866 39.76C240.44 41.2 241.24 43.0933 241.266 45.44C241.266 46.32 241.173 47.1867 240.986 48.04H229.146C229.44 50.8933 230.853 52.32 233.386 52.32C234.773 52.32 235.706 51.9867 236.186 51.32C236.693 50.6533 237 50.0533 237.106 49.52L241.426 50.32ZM235.946 45.04C236.053 44.1333 235.853 43.28 235.346 42.48C234.866 41.68 234.013 41.28 232.786 41.28C231.72 41.28 230.893 41.6267 230.306 42.32C229.72 43.0133 229.346 43.92 229.186 45.04H235.946ZM259.642 50.48C259.642 52.48 258.842 53.9733 257.242 54.96C255.669 55.92 253.616 56.4 251.082 56.4C249.776 56.4 248.456 56.2667 247.122 56C245.816 55.7067 244.562 55.2533 243.362 54.64L244.082 49.6L248.082 50.04V52.28C248.562 52.44 249.069 52.5467 249.602 52.6C250.136 52.6267 250.536 52.64 250.802 52.64C251.789 52.64 252.642 52.48 253.362 52.16C254.082 51.84 254.442 51.36 254.442 50.72C254.442 49.9467 253.896 49.44 252.802 49.2C251.709 48.96 250.442 48.72 249.002 48.48C247.562 48.24 246.296 47.7467 245.202 47C244.109 46.2533 243.562 44.9867 243.562 43.2C243.562 40.9867 244.416 39.5067 246.122 38.76C247.856 37.9867 249.642 37.6 251.482 37.6C253.882 37.6 256.136 38.1467 258.242 39.24L258.682 43.84L254.682 44.28L254.362 41.76C253.482 41.4667 252.536 41.32 251.522 41.32C250.856 41.32 250.282 41.4667 249.802 41.76C249.349 42.0267 249.122 42.4533 249.122 43.04C249.122 43.8133 249.642 44.3333 250.682 44.6C251.749 44.84 252.976 45.08 254.362 45.32C255.776 45.56 257.002 46.0533 258.042 46.8C259.109 47.52 259.642 48.7467 259.642 50.48ZM290.303 56H282.743V52.64C282.236 53.68 281.489 54.5733 280.503 55.32C279.516 56.04 278.209 56.4 276.583 56.4C274.209 56.4 272.343 55.5867 270.983 53.96C269.623 52.3333 268.943 50.12 268.943 47.32C268.943 44.6267 269.609 42.3333 270.943 40.44C272.276 38.5467 274.289 37.6 276.983 37.6C278.449 37.6 279.649 37.8933 280.583 38.48C281.516 39.0667 282.236 39.8133 282.743 40.72V32.4H279.143V28.48H287.903V52.12H290.303V56ZM282.743 46.88V46.44C282.743 44.9467 282.343 43.7867 281.543 42.96C280.769 42.1067 279.796 41.68 278.622 41.68C277.476 41.68 276.463 42.1067 275.583 42.96C274.729 43.8133 274.303 45.16 274.303 47C274.303 48.7333 274.703 50.0533 275.503 50.96C276.303 51.8667 277.249 52.32 278.342 52.32C279.703 52.32 280.769 51.7467 281.543 50.6C282.343 49.4533 282.743 48.2133 282.743 46.88ZM293.595 39.24C295.168 38.6 296.475 38.1733 297.515 37.96C298.582 37.72 299.848 37.6 301.315 37.6C303.262 37.6 304.942 38.1067 306.355 39.12C307.768 40.1333 308.475 41.6667 308.475 43.72V51.56C308.475 52.4933 308.888 52.96 309.715 52.96C309.955 52.96 310.208 52.92 310.475 52.84L310.515 55.56C309.475 56.12 308.395 56.4 307.275 56.4C304.902 56.4 303.582 55.2133 303.315 52.84V52.8C302.808 53.7067 302.075 54.5333 301.115 55.28C300.182 56.0267 298.982 56.4 297.515 56.4C296.208 56.4 294.955 56.0133 293.755 55.24C292.555 54.4667 291.955 53.1333 291.955 51.24C291.955 49.0267 292.835 47.56 294.595 46.84C296.382 46.12 298.302 45.76 300.355 45.76C301.502 45.76 302.488 45.8133 303.315 45.92V45.32C303.315 44.3867 303.182 43.48 302.915 42.6C302.675 41.72 301.822 41.28 300.355 41.28C299.822 41.28 299.328 41.32 298.875 41.4C298.448 41.4533 298.022 41.5867 297.595 41.8L296.915 44.36L292.795 43.92L293.595 39.24ZM303.315 48.64V48.4C302.888 48.3467 302.448 48.2933 301.995 48.24C301.568 48.1867 301.142 48.16 300.715 48.16C299.808 48.16 299.008 48.3333 298.315 48.68C297.622 49 297.275 49.6533 297.275 50.64C297.275 51.2267 297.435 51.72 297.755 52.12C298.075 52.52 298.622 52.72 299.395 52.72C300.302 52.72 301.142 52.4 301.915 51.76C302.715 51.0933 303.182 50.0533 303.315 48.64ZM346.25 34.56H343.93V45.24C343.93 47.08 343.584 48.8533 342.89 50.56C342.197 52.2667 341.037 53.6667 339.41 54.76C337.784 55.8533 335.584 56.4 332.81 56.4C328.864 56.4 326.077 55.32 324.45 53.16C322.824 50.9733 322.01 48.48 322.01 45.68V34.56H319.69V30H330.41V34.56H327.37V45.52C327.37 47.3067 327.797 48.7867 328.65 49.96C329.53 51.1067 331.01 51.68 333.09 51.68C335.144 51.68 336.624 51.0933 337.53 49.92C338.464 48.7467 338.93 47.1867 338.93 45.24V34.56H335.89V30H346.25V34.56ZM369.428 56H359.468V52.12H361.868V45.84C361.868 44.2933 361.601 43.1867 361.068 42.52C360.561 41.8533 359.801 41.52 358.788 41.52C357.561 41.52 356.614 41.9067 355.948 42.68C355.281 43.4267 354.934 44.4133 354.908 45.64V52.12H357.308V56H347.348V52.12H349.748V41.88H347.148V37.96H354.908V40.72C356.108 38.64 358.041 37.6 360.708 37.6C362.414 37.6 363.894 38.1067 365.148 39.12C366.401 40.1333 367.028 41.7067 367.028 43.84V52.12H369.428V56ZM373.378 34.76V29.4H378.538V34.76H373.378ZM381.138 56H371.178V52.12H373.578V41.88H370.978V37.96H378.738V52.12H381.138V56ZM402.144 41.84H400.304L393.864 56H390.144L383.344 41.84H381.424V37.96H390.624V41.84H388.904L392.424 49.4H392.664L395.344 41.84H393.904V37.96H402.144V41.84ZM420.333 50.32C420.199 51.92 419.413 53.3333 417.973 54.56C416.533 55.7867 414.519 56.4 411.933 56.4C409.239 56.4 407.013 55.64 405.253 54.12C403.519 52.6 402.653 50.3333 402.653 47.32C402.653 44.5467 403.439 42.24 405.013 40.4C406.613 38.5333 408.839 37.6 411.693 37.6C414.199 37.6 416.226 38.32 417.773 39.76C419.346 41.2 420.146 43.0933 420.173 45.44C420.173 46.32 420.079 47.1867 419.893 48.04H408.053C408.346 50.8933 409.759 52.32 412.293 52.32C413.679 52.32 414.613 51.9867 415.093 51.32C415.599 50.6533 415.906 50.0533 416.013 49.52L420.333 50.32ZM414.853 45.04C414.959 44.1333 414.759 43.28 414.253 42.48C413.773 41.68 412.919 41.28 411.693 41.28C410.626 41.28 409.799 41.6267 409.213 42.32C408.626 43.0133 408.253 43.92 408.093 45.04H414.853ZM433.708 37.72C434.215 37.72 434.775 37.8 435.388 37.96C436.028 38.0933 436.655 38.3467 437.268 38.72L438.068 45.04L434.148 45.48L433.468 42.4C432.935 42.08 432.468 41.92 432.068 41.92C431.482 41.92 430.962 42.1467 430.508 42.6C430.082 43.0533 429.868 43.72 429.868 44.6V52.12H433.068V56H422.308V52.12H424.708V41.88H422.108V37.96H429.468V41.4C429.762 40.36 430.228 39.4933 430.868 38.8C431.535 38.08 432.482 37.72 433.708 37.72ZM456.205 50.48C456.205 52.48 455.405 53.9733 453.805 54.96C452.231 55.92 450.178 56.4 447.645 56.4C446.338 56.4 445.018 56.2667 443.685 56C442.378 55.7067 441.125 55.2533 439.925 54.64L440.645 49.6L444.645 50.04V52.28C445.125 52.44 445.631 52.5467 446.165 52.6C446.698 52.6267 447.098 52.64 447.365 52.64C448.351 52.64 449.205 52.48 449.925 52.16C450.645 51.84 451.005 51.36 451.005 50.72C451.005 49.9467 450.458 49.44 449.365 49.2C448.271 48.96 447.005 48.72 445.565 48.48C444.125 48.24 442.858 47.7467 441.765 47C440.671 46.2533 440.125 44.9867 440.125 43.2C440.125 40.9867 440.978 39.5067 442.685 38.76C444.418 37.9867 446.205 37.6 448.045 37.6C450.445 37.6 452.698 38.1467 454.805 39.24L455.245 43.84L451.245 44.28L450.925 41.76C450.045 41.4667 449.098 41.32 448.085 41.32C447.418 41.32 446.845 41.4667 446.365 41.76C445.911 42.0267 445.685 42.4533 445.685 43.04C445.685 43.8133 446.205 44.3333 447.245 44.6C448.311 44.84 449.538 45.08 450.925 45.32C452.338 45.56 453.565 46.0533 454.605 46.8C455.671 47.52 456.205 48.7467 456.205 50.48ZM460.644 34.76V29.4H465.804V34.76H460.644ZM468.404 56H458.444V52.12H460.844V41.88H458.244V37.96H466.004V52.12H468.404V56ZM491.357 56H483.797V52.64C483.291 53.68 482.544 54.5733 481.557 55.32C480.571 56.04 479.264 56.4 477.637 56.4C475.264 56.4 473.397 55.5867 472.037 53.96C470.677 52.3333 469.997 50.12 469.997 47.32C469.997 44.6267 470.664 42.3333 471.997 40.44C473.331 38.5467 475.344 37.6 478.037 37.6C479.504 37.6 480.704 37.8933 481.637 38.48C482.571 39.0667 483.291 39.8133 483.797 40.72V32.4H480.197V28.48H488.957V52.12H491.357V56ZM483.797 46.88V46.44C483.797 44.9467 483.397 43.7867 482.597 42.96C481.824 42.1067 480.851 41.68 479.677 41.68C478.531 41.68 477.517 42.1067 476.637 42.96C475.784 43.8133 475.357 45.16 475.357 47C475.357 48.7333 475.757 50.0533 476.557 50.96C477.357 51.8667 478.304 52.32 479.397 52.32C480.757 52.32 481.824 51.7467 482.597 50.6C483.397 49.4533 483.797 48.2133 483.797 46.88ZM494.65 39.24C496.223 38.6 497.53 38.1733 498.57 37.96C499.636 37.72 500.903 37.6 502.37 37.6C504.316 37.6 505.996 38.1067 507.41 39.12C508.823 40.1333 509.53 41.6667 509.53 43.72V51.56C509.53 52.4933 509.943 52.96 510.77 52.96C511.01 52.96 511.263 52.92 511.53 52.84L511.57 55.56C510.53 56.12 509.45 56.4 508.33 56.4C505.956 56.4 504.636 55.2133 504.37 52.84V52.8C503.863 53.7067 503.13 54.5333 502.17 55.28C501.236 56.0267 500.036 56.4 498.57 56.4C497.263 56.4 496.01 56.0133 494.81 55.24C493.61 54.4667 493.01 53.1333 493.01 51.24C493.01 49.0267 493.89 47.56 495.65 46.84C497.436 46.12 499.356 45.76 501.41 45.76C502.556 45.76 503.543 45.8133 504.37 45.92V45.32C504.37 44.3867 504.236 43.48 503.97 42.6C503.73 41.72 502.876 41.28 501.41 41.28C500.876 41.28 500.383 41.32 499.93 41.4C499.503 41.4533 499.076 41.5867 498.65 41.8L497.97 44.36L493.85 43.92L494.65 39.24ZM504.37 48.64V48.4C503.943 48.3467 503.503 48.2933 503.05 48.24C502.623 48.1867 502.196 48.16 501.77 48.16C500.863 48.16 500.063 48.3333 499.37 48.68C498.676 49 498.33 49.6533 498.33 50.64C498.33 51.2267 498.49 51.72 498.81 52.12C499.13 52.52 499.676 52.72 500.45 52.72C501.356 52.72 502.196 52.4 502.97 51.76C503.77 51.0933 504.236 50.0533 504.37 48.64ZM534.404 56H526.844V52.64C526.337 53.68 525.591 54.5733 524.604 55.32C523.617 56.04 522.311 56.4 520.684 56.4C518.311 56.4 516.444 55.5867 515.084 53.96C513.724 52.3333 513.044 50.12 513.044 47.32C513.044 44.6267 513.711 42.3333 515.044 40.44C516.377 38.5467 518.391 37.6 521.084 37.6C522.551 37.6 523.751 37.8933 524.684 38.48C525.617 39.0667 526.337 39.8133 526.844 40.72V32.4H523.244V28.48H532.004V52.12H534.404V56ZM526.844 46.88V46.44C526.844 44.9467 526.444 43.7867 525.644 42.96C524.871 42.1067 523.897 41.68 522.724 41.68C521.577 41.68 520.564 42.1067 519.684 42.96C518.831 43.8133 518.404 45.16 518.404 47C518.404 48.7333 518.804 50.0533 519.604 50.96C520.404 51.8667 521.351 52.32 522.444 52.32C523.804 52.32 524.871 51.7467 525.644 50.6C526.444 49.4533 526.844 48.2133 526.844 46.88ZM553.497 50.32C553.363 51.92 552.577 53.3333 551.137 54.56C549.697 55.7867 547.683 56.4 545.097 56.4C542.403 56.4 540.177 55.64 538.417 54.12C536.683 52.6 535.817 50.3333 535.817 47.32C535.817 44.5467 536.603 42.24 538.177 40.4C539.777 38.5333 542.003 37.6 544.857 37.6C547.363 37.6 549.39 38.32 550.937 39.76C552.51 41.2 553.31 43.0933 553.337 45.44C553.337 46.32 553.243 47.1867 553.057 48.04H541.217C541.51 50.8933 542.923 52.32 545.457 52.32C546.843 52.32 547.777 51.9867 548.257 51.32C548.763 50.6533 549.07 50.0533 549.177 49.52L553.497 50.32ZM548.017 45.04C548.123 44.1333 547.923 43.28 547.417 42.48C546.937 41.68 546.083 41.28 544.857 41.28C543.79 41.28 542.963 41.6267 542.377 42.32C541.79 43.0133 541.417 43.92 541.257 45.04H548.017Z" fill="white"/>
</svg>
